G04 #@! TF.GenerationSoftware,KiCad,Pcbnew,(5.1.4)-1*
G04 #@! TF.CreationDate,2023-02-06T19:17:42+01:00*
G04 #@! TF.ProjectId,Keypad PCB,4b657970-6164-4205-9043-422e6b696361,rev?*
G04 #@! TF.SameCoordinates,Original*
G04 #@! TF.FileFunction,Copper,L2,Bot*
G04 #@! TF.FilePolarity,Positive*
%FSLAX46Y46*%
G04 Gerber Fmt 4.6, Leading zero omitted, Abs format (unit mm)*
G04 Created by KiCad (PCBNEW (5.1.4)-1) date 2023-02-06 19:17:42*
%MOMM*%
%LPD*%
G04 APERTURE LIST*
%ADD10C,2.250000*%
%ADD11C,2.250000*%
%ADD12R,0.900000X1.200000*%
%ADD13C,0.550000*%
%ADD14C,0.100000*%
%ADD15R,1.200000X1.800000*%
%ADD16R,0.600000X1.550000*%
%ADD17C,1.200000*%
%ADD18R,1.800000X1.100000*%
%ADD19C,0.975000*%
%ADD20C,1.250000*%
%ADD21C,0.800000*%
%ADD22C,0.381000*%
%ADD23C,0.250000*%
%ADD24C,0.254000*%
G04 APERTURE END LIST*
D10*
X192500000Y-54000000D03*
X193154999Y-53270000D03*
D11*
X193810000Y-52540000D02*
X192499998Y-54000000D01*
D10*
X187460000Y-55080000D03*
X187480000Y-54790000D03*
D11*
X187500000Y-54500000D02*
X187460000Y-55080000D01*
D12*
X188850000Y-42068750D03*
X192150000Y-42068750D03*
X169006250Y-42068750D03*
X172306250Y-42068750D03*
D13*
X179241918Y-59553564D03*
D14*
G36*
X179966702Y-59889440D02*
G01*
X179577794Y-60278348D01*
X178517134Y-59217688D01*
X178906042Y-58828780D01*
X179966702Y-59889440D01*
X179966702Y-59889440D01*
G37*
D13*
X178676233Y-60119250D03*
D14*
G36*
X179401017Y-60455126D02*
G01*
X179012109Y-60844034D01*
X177951449Y-59783374D01*
X178340357Y-59394466D01*
X179401017Y-60455126D01*
X179401017Y-60455126D01*
G37*
D13*
X178110548Y-60684935D03*
D14*
G36*
X178835332Y-61020811D02*
G01*
X178446424Y-61409719D01*
X177385764Y-60349059D01*
X177774672Y-59960151D01*
X178835332Y-61020811D01*
X178835332Y-61020811D01*
G37*
D13*
X177544862Y-61250620D03*
D14*
G36*
X178269646Y-61586496D02*
G01*
X177880738Y-61975404D01*
X176820078Y-60914744D01*
X177208986Y-60525836D01*
X178269646Y-61586496D01*
X178269646Y-61586496D01*
G37*
D13*
X176979177Y-61816306D03*
D14*
G36*
X177703961Y-62152182D02*
G01*
X177315053Y-62541090D01*
X176254393Y-61480430D01*
X176643301Y-61091522D01*
X177703961Y-62152182D01*
X177703961Y-62152182D01*
G37*
D13*
X176413491Y-62381991D03*
D14*
G36*
X177138275Y-62717867D02*
G01*
X176749367Y-63106775D01*
X175688707Y-62046115D01*
X176077615Y-61657207D01*
X177138275Y-62717867D01*
X177138275Y-62717867D01*
G37*
D13*
X175847806Y-62947677D03*
D14*
G36*
X176572590Y-63283553D02*
G01*
X176183682Y-63672461D01*
X175123022Y-62611801D01*
X175511930Y-62222893D01*
X176572590Y-63283553D01*
X176572590Y-63283553D01*
G37*
D13*
X175282120Y-63513362D03*
D14*
G36*
X176006904Y-63849238D02*
G01*
X175617996Y-64238146D01*
X174557336Y-63177486D01*
X174946244Y-62788578D01*
X176006904Y-63849238D01*
X176006904Y-63849238D01*
G37*
D13*
X174716435Y-64079048D03*
D14*
G36*
X175441219Y-64414924D02*
G01*
X175052311Y-64803832D01*
X173991651Y-63743172D01*
X174380559Y-63354264D01*
X175441219Y-64414924D01*
X175441219Y-64414924D01*
G37*
D13*
X174150750Y-64644733D03*
D14*
G36*
X174875534Y-64980609D02*
G01*
X174486626Y-65369517D01*
X173425966Y-64308857D01*
X173814874Y-63919949D01*
X174875534Y-64980609D01*
X174875534Y-64980609D01*
G37*
D13*
X173585064Y-65210418D03*
D14*
G36*
X174309848Y-65546294D02*
G01*
X173920940Y-65935202D01*
X172860280Y-64874542D01*
X173249188Y-64485634D01*
X174309848Y-65546294D01*
X174309848Y-65546294D01*
G37*
D13*
X173585064Y-67614582D03*
D14*
G36*
X173920940Y-66889798D02*
G01*
X174309848Y-67278706D01*
X173249188Y-68339366D01*
X172860280Y-67950458D01*
X173920940Y-66889798D01*
X173920940Y-66889798D01*
G37*
D13*
X174150750Y-68180267D03*
D14*
G36*
X174486626Y-67455483D02*
G01*
X174875534Y-67844391D01*
X173814874Y-68905051D01*
X173425966Y-68516143D01*
X174486626Y-67455483D01*
X174486626Y-67455483D01*
G37*
D13*
X174716435Y-68745952D03*
D14*
G36*
X175052311Y-68021168D02*
G01*
X175441219Y-68410076D01*
X174380559Y-69470736D01*
X173991651Y-69081828D01*
X175052311Y-68021168D01*
X175052311Y-68021168D01*
G37*
D13*
X175282120Y-69311638D03*
D14*
G36*
X175617996Y-68586854D02*
G01*
X176006904Y-68975762D01*
X174946244Y-70036422D01*
X174557336Y-69647514D01*
X175617996Y-68586854D01*
X175617996Y-68586854D01*
G37*
D13*
X175847806Y-69877323D03*
D14*
G36*
X176183682Y-69152539D02*
G01*
X176572590Y-69541447D01*
X175511930Y-70602107D01*
X175123022Y-70213199D01*
X176183682Y-69152539D01*
X176183682Y-69152539D01*
G37*
D13*
X176413491Y-70443009D03*
D14*
G36*
X176749367Y-69718225D02*
G01*
X177138275Y-70107133D01*
X176077615Y-71167793D01*
X175688707Y-70778885D01*
X176749367Y-69718225D01*
X176749367Y-69718225D01*
G37*
D13*
X176979177Y-71008694D03*
D14*
G36*
X177315053Y-70283910D02*
G01*
X177703961Y-70672818D01*
X176643301Y-71733478D01*
X176254393Y-71344570D01*
X177315053Y-70283910D01*
X177315053Y-70283910D01*
G37*
D13*
X177544862Y-71574380D03*
D14*
G36*
X177880738Y-70849596D02*
G01*
X178269646Y-71238504D01*
X177208986Y-72299164D01*
X176820078Y-71910256D01*
X177880738Y-70849596D01*
X177880738Y-70849596D01*
G37*
D13*
X178110548Y-72140065D03*
D14*
G36*
X178446424Y-71415281D02*
G01*
X178835332Y-71804189D01*
X177774672Y-72864849D01*
X177385764Y-72475941D01*
X178446424Y-71415281D01*
X178446424Y-71415281D01*
G37*
D13*
X178676233Y-72705750D03*
D14*
G36*
X179012109Y-71980966D02*
G01*
X179401017Y-72369874D01*
X178340357Y-73430534D01*
X177951449Y-73041626D01*
X179012109Y-71980966D01*
X179012109Y-71980966D01*
G37*
D13*
X179241918Y-73271436D03*
D14*
G36*
X179577794Y-72546652D02*
G01*
X179966702Y-72935560D01*
X178906042Y-73996220D01*
X178517134Y-73607312D01*
X179577794Y-72546652D01*
X179577794Y-72546652D01*
G37*
D13*
X181646082Y-73271436D03*
D14*
G36*
X182370866Y-73607312D02*
G01*
X181981958Y-73996220D01*
X180921298Y-72935560D01*
X181310206Y-72546652D01*
X182370866Y-73607312D01*
X182370866Y-73607312D01*
G37*
D13*
X182211767Y-72705750D03*
D14*
G36*
X182936551Y-73041626D02*
G01*
X182547643Y-73430534D01*
X181486983Y-72369874D01*
X181875891Y-71980966D01*
X182936551Y-73041626D01*
X182936551Y-73041626D01*
G37*
D13*
X182777452Y-72140065D03*
D14*
G36*
X183502236Y-72475941D02*
G01*
X183113328Y-72864849D01*
X182052668Y-71804189D01*
X182441576Y-71415281D01*
X183502236Y-72475941D01*
X183502236Y-72475941D01*
G37*
D13*
X183343138Y-71574380D03*
D14*
G36*
X184067922Y-71910256D02*
G01*
X183679014Y-72299164D01*
X182618354Y-71238504D01*
X183007262Y-70849596D01*
X184067922Y-71910256D01*
X184067922Y-71910256D01*
G37*
D13*
X183908823Y-71008694D03*
D14*
G36*
X184633607Y-71344570D02*
G01*
X184244699Y-71733478D01*
X183184039Y-70672818D01*
X183572947Y-70283910D01*
X184633607Y-71344570D01*
X184633607Y-71344570D01*
G37*
D13*
X184474509Y-70443009D03*
D14*
G36*
X185199293Y-70778885D02*
G01*
X184810385Y-71167793D01*
X183749725Y-70107133D01*
X184138633Y-69718225D01*
X185199293Y-70778885D01*
X185199293Y-70778885D01*
G37*
D13*
X185040194Y-69877323D03*
D14*
G36*
X185764978Y-70213199D02*
G01*
X185376070Y-70602107D01*
X184315410Y-69541447D01*
X184704318Y-69152539D01*
X185764978Y-70213199D01*
X185764978Y-70213199D01*
G37*
D13*
X185605880Y-69311638D03*
D14*
G36*
X186330664Y-69647514D02*
G01*
X185941756Y-70036422D01*
X184881096Y-68975762D01*
X185270004Y-68586854D01*
X186330664Y-69647514D01*
X186330664Y-69647514D01*
G37*
D13*
X186171565Y-68745952D03*
D14*
G36*
X186896349Y-69081828D02*
G01*
X186507441Y-69470736D01*
X185446781Y-68410076D01*
X185835689Y-68021168D01*
X186896349Y-69081828D01*
X186896349Y-69081828D01*
G37*
D13*
X186737250Y-68180267D03*
D14*
G36*
X187462034Y-68516143D02*
G01*
X187073126Y-68905051D01*
X186012466Y-67844391D01*
X186401374Y-67455483D01*
X187462034Y-68516143D01*
X187462034Y-68516143D01*
G37*
D13*
X187302936Y-67614582D03*
D14*
G36*
X188027720Y-67950458D02*
G01*
X187638812Y-68339366D01*
X186578152Y-67278706D01*
X186967060Y-66889798D01*
X188027720Y-67950458D01*
X188027720Y-67950458D01*
G37*
D13*
X187302936Y-65210418D03*
D14*
G36*
X187638812Y-64485634D02*
G01*
X188027720Y-64874542D01*
X186967060Y-65935202D01*
X186578152Y-65546294D01*
X187638812Y-64485634D01*
X187638812Y-64485634D01*
G37*
D13*
X186737250Y-64644733D03*
D14*
G36*
X187073126Y-63919949D02*
G01*
X187462034Y-64308857D01*
X186401374Y-65369517D01*
X186012466Y-64980609D01*
X187073126Y-63919949D01*
X187073126Y-63919949D01*
G37*
D13*
X186171565Y-64079048D03*
D14*
G36*
X186507441Y-63354264D02*
G01*
X186896349Y-63743172D01*
X185835689Y-64803832D01*
X185446781Y-64414924D01*
X186507441Y-63354264D01*
X186507441Y-63354264D01*
G37*
D13*
X185605880Y-63513362D03*
D14*
G36*
X185941756Y-62788578D02*
G01*
X186330664Y-63177486D01*
X185270004Y-64238146D01*
X184881096Y-63849238D01*
X185941756Y-62788578D01*
X185941756Y-62788578D01*
G37*
D13*
X185040194Y-62947677D03*
D14*
G36*
X185376070Y-62222893D02*
G01*
X185764978Y-62611801D01*
X184704318Y-63672461D01*
X184315410Y-63283553D01*
X185376070Y-62222893D01*
X185376070Y-62222893D01*
G37*
D13*
X184474509Y-62381991D03*
D14*
G36*
X184810385Y-61657207D02*
G01*
X185199293Y-62046115D01*
X184138633Y-63106775D01*
X183749725Y-62717867D01*
X184810385Y-61657207D01*
X184810385Y-61657207D01*
G37*
D13*
X183908823Y-61816306D03*
D14*
G36*
X184244699Y-61091522D02*
G01*
X184633607Y-61480430D01*
X183572947Y-62541090D01*
X183184039Y-62152182D01*
X184244699Y-61091522D01*
X184244699Y-61091522D01*
G37*
D13*
X183343138Y-61250620D03*
D14*
G36*
X183679014Y-60525836D02*
G01*
X184067922Y-60914744D01*
X183007262Y-61975404D01*
X182618354Y-61586496D01*
X183679014Y-60525836D01*
X183679014Y-60525836D01*
G37*
D13*
X182777452Y-60684935D03*
D14*
G36*
X183113328Y-59960151D02*
G01*
X183502236Y-60349059D01*
X182441576Y-61409719D01*
X182052668Y-61020811D01*
X183113328Y-59960151D01*
X183113328Y-59960151D01*
G37*
D13*
X182211767Y-60119250D03*
D14*
G36*
X182547643Y-59394466D02*
G01*
X182936551Y-59783374D01*
X181875891Y-60844034D01*
X181486983Y-60455126D01*
X182547643Y-59394466D01*
X182547643Y-59394466D01*
G37*
D13*
X181646082Y-59553564D03*
D14*
G36*
X181981958Y-58828780D02*
G01*
X182370866Y-59217688D01*
X181310206Y-60278348D01*
X180921298Y-59889440D01*
X181981958Y-58828780D01*
X181981958Y-58828780D01*
G37*
D15*
X182831250Y-35900000D03*
X177231250Y-35900000D03*
D16*
X181531250Y-39775000D03*
X180531250Y-39775000D03*
X179531250Y-39775000D03*
X178531250Y-39775000D03*
D17*
X186998223Y-76522608D03*
D14*
G36*
X186927512Y-77441847D02*
G01*
X186078984Y-76593319D01*
X187068934Y-75603369D01*
X187917462Y-76451897D01*
X186927512Y-77441847D01*
X186927512Y-77441847D01*
G37*
D17*
X188553858Y-74966973D03*
D14*
G36*
X188483147Y-75886212D02*
G01*
X187634619Y-75037684D01*
X188624569Y-74047734D01*
X189473097Y-74896262D01*
X188483147Y-75886212D01*
X188483147Y-75886212D01*
G37*
D17*
X187351777Y-73764892D03*
D14*
G36*
X187281066Y-74684131D02*
G01*
X186432538Y-73835603D01*
X187422488Y-72845653D01*
X188271016Y-73694181D01*
X187281066Y-74684131D01*
X187281066Y-74684131D01*
G37*
D17*
X185796142Y-75320527D03*
D14*
G36*
X185725431Y-76239766D02*
G01*
X184876903Y-75391238D01*
X185866853Y-74401288D01*
X186715381Y-75249816D01*
X185725431Y-76239766D01*
X185725431Y-76239766D01*
G37*
D18*
X194393750Y-59800000D03*
X200593750Y-63500000D03*
X194393750Y-63500000D03*
X200593750Y-59800000D03*
D14*
G36*
X173855402Y-70437449D02*
G01*
X173879063Y-70440959D01*
X173902267Y-70446771D01*
X173924789Y-70454829D01*
X173946413Y-70465057D01*
X173966930Y-70477354D01*
X173986143Y-70491604D01*
X174003867Y-70507668D01*
X174348582Y-70852383D01*
X174364646Y-70870107D01*
X174378896Y-70889320D01*
X174391193Y-70909837D01*
X174401421Y-70931461D01*
X174409479Y-70953983D01*
X174415291Y-70977187D01*
X174418801Y-71000848D01*
X174419975Y-71024740D01*
X174418801Y-71048632D01*
X174415291Y-71072293D01*
X174409479Y-71095497D01*
X174401421Y-71118019D01*
X174391193Y-71139643D01*
X174378896Y-71160160D01*
X174364646Y-71179373D01*
X174348582Y-71197097D01*
X173703347Y-71842332D01*
X173685623Y-71858396D01*
X173666410Y-71872646D01*
X173645893Y-71884943D01*
X173624269Y-71895171D01*
X173601747Y-71903229D01*
X173578543Y-71909041D01*
X173554882Y-71912551D01*
X173530990Y-71913725D01*
X173507098Y-71912551D01*
X173483437Y-71909041D01*
X173460233Y-71903229D01*
X173437711Y-71895171D01*
X173416087Y-71884943D01*
X173395570Y-71872646D01*
X173376357Y-71858396D01*
X173358633Y-71842332D01*
X173013918Y-71497617D01*
X172997854Y-71479893D01*
X172983604Y-71460680D01*
X172971307Y-71440163D01*
X172961079Y-71418539D01*
X172953021Y-71396017D01*
X172947209Y-71372813D01*
X172943699Y-71349152D01*
X172942525Y-71325260D01*
X172943699Y-71301368D01*
X172947209Y-71277707D01*
X172953021Y-71254503D01*
X172961079Y-71231981D01*
X172971307Y-71210357D01*
X172983604Y-71189840D01*
X172997854Y-71170627D01*
X173013918Y-71152903D01*
X173659153Y-70507668D01*
X173676877Y-70491604D01*
X173696090Y-70477354D01*
X173716607Y-70465057D01*
X173738231Y-70454829D01*
X173760753Y-70446771D01*
X173783957Y-70440959D01*
X173807618Y-70437449D01*
X173831510Y-70436275D01*
X173855402Y-70437449D01*
X173855402Y-70437449D01*
G37*
D19*
X173681250Y-71175000D03*
D14*
G36*
X172529576Y-69111623D02*
G01*
X172553237Y-69115133D01*
X172576441Y-69120945D01*
X172598963Y-69129003D01*
X172620587Y-69139231D01*
X172641104Y-69151528D01*
X172660317Y-69165778D01*
X172678041Y-69181842D01*
X173022756Y-69526557D01*
X173038820Y-69544281D01*
X173053070Y-69563494D01*
X173065367Y-69584011D01*
X173075595Y-69605635D01*
X173083653Y-69628157D01*
X173089465Y-69651361D01*
X173092975Y-69675022D01*
X173094149Y-69698914D01*
X173092975Y-69722806D01*
X173089465Y-69746467D01*
X173083653Y-69769671D01*
X173075595Y-69792193D01*
X173065367Y-69813817D01*
X173053070Y-69834334D01*
X173038820Y-69853547D01*
X173022756Y-69871271D01*
X172377521Y-70516506D01*
X172359797Y-70532570D01*
X172340584Y-70546820D01*
X172320067Y-70559117D01*
X172298443Y-70569345D01*
X172275921Y-70577403D01*
X172252717Y-70583215D01*
X172229056Y-70586725D01*
X172205164Y-70587899D01*
X172181272Y-70586725D01*
X172157611Y-70583215D01*
X172134407Y-70577403D01*
X172111885Y-70569345D01*
X172090261Y-70559117D01*
X172069744Y-70546820D01*
X172050531Y-70532570D01*
X172032807Y-70516506D01*
X171688092Y-70171791D01*
X171672028Y-70154067D01*
X171657778Y-70134854D01*
X171645481Y-70114337D01*
X171635253Y-70092713D01*
X171627195Y-70070191D01*
X171621383Y-70046987D01*
X171617873Y-70023326D01*
X171616699Y-69999434D01*
X171617873Y-69975542D01*
X171621383Y-69951881D01*
X171627195Y-69928677D01*
X171635253Y-69906155D01*
X171645481Y-69884531D01*
X171657778Y-69864014D01*
X171672028Y-69844801D01*
X171688092Y-69827077D01*
X172333327Y-69181842D01*
X172351051Y-69165778D01*
X172370264Y-69151528D01*
X172390781Y-69139231D01*
X172412405Y-69129003D01*
X172434927Y-69120945D01*
X172458131Y-69115133D01*
X172481792Y-69111623D01*
X172505684Y-69110449D01*
X172529576Y-69111623D01*
X172529576Y-69111623D01*
G37*
D19*
X172355424Y-69849174D03*
D14*
G36*
X190473892Y-62538674D02*
G01*
X190497553Y-62542184D01*
X190520757Y-62547996D01*
X190543279Y-62556054D01*
X190564903Y-62566282D01*
X190585420Y-62578579D01*
X190604633Y-62592829D01*
X190622357Y-62608893D01*
X190638421Y-62626617D01*
X190652671Y-62645830D01*
X190664968Y-62666347D01*
X190675196Y-62687971D01*
X190683254Y-62710493D01*
X190689066Y-62733697D01*
X190692576Y-62757358D01*
X190693750Y-62781250D01*
X190693750Y-63693750D01*
X190692576Y-63717642D01*
X190689066Y-63741303D01*
X190683254Y-63764507D01*
X190675196Y-63787029D01*
X190664968Y-63808653D01*
X190652671Y-63829170D01*
X190638421Y-63848383D01*
X190622357Y-63866107D01*
X190604633Y-63882171D01*
X190585420Y-63896421D01*
X190564903Y-63908718D01*
X190543279Y-63918946D01*
X190520757Y-63927004D01*
X190497553Y-63932816D01*
X190473892Y-63936326D01*
X190450000Y-63937500D01*
X189962500Y-63937500D01*
X189938608Y-63936326D01*
X189914947Y-63932816D01*
X189891743Y-63927004D01*
X189869221Y-63918946D01*
X189847597Y-63908718D01*
X189827080Y-63896421D01*
X189807867Y-63882171D01*
X189790143Y-63866107D01*
X189774079Y-63848383D01*
X189759829Y-63829170D01*
X189747532Y-63808653D01*
X189737304Y-63787029D01*
X189729246Y-63764507D01*
X189723434Y-63741303D01*
X189719924Y-63717642D01*
X189718750Y-63693750D01*
X189718750Y-62781250D01*
X189719924Y-62757358D01*
X189723434Y-62733697D01*
X189729246Y-62710493D01*
X189737304Y-62687971D01*
X189747532Y-62666347D01*
X189759829Y-62645830D01*
X189774079Y-62626617D01*
X189790143Y-62608893D01*
X189807867Y-62592829D01*
X189827080Y-62578579D01*
X189847597Y-62566282D01*
X189869221Y-62556054D01*
X189891743Y-62547996D01*
X189914947Y-62542184D01*
X189938608Y-62538674D01*
X189962500Y-62537500D01*
X190450000Y-62537500D01*
X190473892Y-62538674D01*
X190473892Y-62538674D01*
G37*
D19*
X190206250Y-63237500D03*
D14*
G36*
X192348892Y-62538674D02*
G01*
X192372553Y-62542184D01*
X192395757Y-62547996D01*
X192418279Y-62556054D01*
X192439903Y-62566282D01*
X192460420Y-62578579D01*
X192479633Y-62592829D01*
X192497357Y-62608893D01*
X192513421Y-62626617D01*
X192527671Y-62645830D01*
X192539968Y-62666347D01*
X192550196Y-62687971D01*
X192558254Y-62710493D01*
X192564066Y-62733697D01*
X192567576Y-62757358D01*
X192568750Y-62781250D01*
X192568750Y-63693750D01*
X192567576Y-63717642D01*
X192564066Y-63741303D01*
X192558254Y-63764507D01*
X192550196Y-63787029D01*
X192539968Y-63808653D01*
X192527671Y-63829170D01*
X192513421Y-63848383D01*
X192497357Y-63866107D01*
X192479633Y-63882171D01*
X192460420Y-63896421D01*
X192439903Y-63908718D01*
X192418279Y-63918946D01*
X192395757Y-63927004D01*
X192372553Y-63932816D01*
X192348892Y-63936326D01*
X192325000Y-63937500D01*
X191837500Y-63937500D01*
X191813608Y-63936326D01*
X191789947Y-63932816D01*
X191766743Y-63927004D01*
X191744221Y-63918946D01*
X191722597Y-63908718D01*
X191702080Y-63896421D01*
X191682867Y-63882171D01*
X191665143Y-63866107D01*
X191649079Y-63848383D01*
X191634829Y-63829170D01*
X191622532Y-63808653D01*
X191612304Y-63787029D01*
X191604246Y-63764507D01*
X191598434Y-63741303D01*
X191594924Y-63717642D01*
X191593750Y-63693750D01*
X191593750Y-62781250D01*
X191594924Y-62757358D01*
X191598434Y-62733697D01*
X191604246Y-62710493D01*
X191612304Y-62687971D01*
X191622532Y-62666347D01*
X191634829Y-62645830D01*
X191649079Y-62626617D01*
X191665143Y-62608893D01*
X191682867Y-62592829D01*
X191702080Y-62578579D01*
X191722597Y-62566282D01*
X191744221Y-62556054D01*
X191766743Y-62547996D01*
X191789947Y-62542184D01*
X191813608Y-62538674D01*
X191837500Y-62537500D01*
X192325000Y-62537500D01*
X192348892Y-62538674D01*
X192348892Y-62538674D01*
G37*
D19*
X192081250Y-63237500D03*
D14*
G36*
X181305142Y-42763674D02*
G01*
X181328803Y-42767184D01*
X181352007Y-42772996D01*
X181374529Y-42781054D01*
X181396153Y-42791282D01*
X181416670Y-42803579D01*
X181435883Y-42817829D01*
X181453607Y-42833893D01*
X181469671Y-42851617D01*
X181483921Y-42870830D01*
X181496218Y-42891347D01*
X181506446Y-42912971D01*
X181514504Y-42935493D01*
X181520316Y-42958697D01*
X181523826Y-42982358D01*
X181525000Y-43006250D01*
X181525000Y-43493750D01*
X181523826Y-43517642D01*
X181520316Y-43541303D01*
X181514504Y-43564507D01*
X181506446Y-43587029D01*
X181496218Y-43608653D01*
X181483921Y-43629170D01*
X181469671Y-43648383D01*
X181453607Y-43666107D01*
X181435883Y-43682171D01*
X181416670Y-43696421D01*
X181396153Y-43708718D01*
X181374529Y-43718946D01*
X181352007Y-43727004D01*
X181328803Y-43732816D01*
X181305142Y-43736326D01*
X181281250Y-43737500D01*
X180368750Y-43737500D01*
X180344858Y-43736326D01*
X180321197Y-43732816D01*
X180297993Y-43727004D01*
X180275471Y-43718946D01*
X180253847Y-43708718D01*
X180233330Y-43696421D01*
X180214117Y-43682171D01*
X180196393Y-43666107D01*
X180180329Y-43648383D01*
X180166079Y-43629170D01*
X180153782Y-43608653D01*
X180143554Y-43587029D01*
X180135496Y-43564507D01*
X180129684Y-43541303D01*
X180126174Y-43517642D01*
X180125000Y-43493750D01*
X180125000Y-43006250D01*
X180126174Y-42982358D01*
X180129684Y-42958697D01*
X180135496Y-42935493D01*
X180143554Y-42912971D01*
X180153782Y-42891347D01*
X180166079Y-42870830D01*
X180180329Y-42851617D01*
X180196393Y-42833893D01*
X180214117Y-42817829D01*
X180233330Y-42803579D01*
X180253847Y-42791282D01*
X180275471Y-42781054D01*
X180297993Y-42772996D01*
X180321197Y-42767184D01*
X180344858Y-42763674D01*
X180368750Y-42762500D01*
X181281250Y-42762500D01*
X181305142Y-42763674D01*
X181305142Y-42763674D01*
G37*
D19*
X180825000Y-43250000D03*
D14*
G36*
X181305142Y-44638674D02*
G01*
X181328803Y-44642184D01*
X181352007Y-44647996D01*
X181374529Y-44656054D01*
X181396153Y-44666282D01*
X181416670Y-44678579D01*
X181435883Y-44692829D01*
X181453607Y-44708893D01*
X181469671Y-44726617D01*
X181483921Y-44745830D01*
X181496218Y-44766347D01*
X181506446Y-44787971D01*
X181514504Y-44810493D01*
X181520316Y-44833697D01*
X181523826Y-44857358D01*
X181525000Y-44881250D01*
X181525000Y-45368750D01*
X181523826Y-45392642D01*
X181520316Y-45416303D01*
X181514504Y-45439507D01*
X181506446Y-45462029D01*
X181496218Y-45483653D01*
X181483921Y-45504170D01*
X181469671Y-45523383D01*
X181453607Y-45541107D01*
X181435883Y-45557171D01*
X181416670Y-45571421D01*
X181396153Y-45583718D01*
X181374529Y-45593946D01*
X181352007Y-45602004D01*
X181328803Y-45607816D01*
X181305142Y-45611326D01*
X181281250Y-45612500D01*
X180368750Y-45612500D01*
X180344858Y-45611326D01*
X180321197Y-45607816D01*
X180297993Y-45602004D01*
X180275471Y-45593946D01*
X180253847Y-45583718D01*
X180233330Y-45571421D01*
X180214117Y-45557171D01*
X180196393Y-45541107D01*
X180180329Y-45523383D01*
X180166079Y-45504170D01*
X180153782Y-45483653D01*
X180143554Y-45462029D01*
X180135496Y-45439507D01*
X180129684Y-45416303D01*
X180126174Y-45392642D01*
X180125000Y-45368750D01*
X180125000Y-44881250D01*
X180126174Y-44857358D01*
X180129684Y-44833697D01*
X180135496Y-44810493D01*
X180143554Y-44787971D01*
X180153782Y-44766347D01*
X180166079Y-44745830D01*
X180180329Y-44726617D01*
X180196393Y-44708893D01*
X180214117Y-44692829D01*
X180233330Y-44678579D01*
X180253847Y-44666282D01*
X180275471Y-44656054D01*
X180297993Y-44647996D01*
X180321197Y-44642184D01*
X180344858Y-44638674D01*
X180368750Y-44637500D01*
X181281250Y-44637500D01*
X181305142Y-44638674D01*
X181305142Y-44638674D01*
G37*
D19*
X180825000Y-45125000D03*
D14*
G36*
X178923892Y-42763674D02*
G01*
X178947553Y-42767184D01*
X178970757Y-42772996D01*
X178993279Y-42781054D01*
X179014903Y-42791282D01*
X179035420Y-42803579D01*
X179054633Y-42817829D01*
X179072357Y-42833893D01*
X179088421Y-42851617D01*
X179102671Y-42870830D01*
X179114968Y-42891347D01*
X179125196Y-42912971D01*
X179133254Y-42935493D01*
X179139066Y-42958697D01*
X179142576Y-42982358D01*
X179143750Y-43006250D01*
X179143750Y-43493750D01*
X179142576Y-43517642D01*
X179139066Y-43541303D01*
X179133254Y-43564507D01*
X179125196Y-43587029D01*
X179114968Y-43608653D01*
X179102671Y-43629170D01*
X179088421Y-43648383D01*
X179072357Y-43666107D01*
X179054633Y-43682171D01*
X179035420Y-43696421D01*
X179014903Y-43708718D01*
X178993279Y-43718946D01*
X178970757Y-43727004D01*
X178947553Y-43732816D01*
X178923892Y-43736326D01*
X178900000Y-43737500D01*
X177987500Y-43737500D01*
X177963608Y-43736326D01*
X177939947Y-43732816D01*
X177916743Y-43727004D01*
X177894221Y-43718946D01*
X177872597Y-43708718D01*
X177852080Y-43696421D01*
X177832867Y-43682171D01*
X177815143Y-43666107D01*
X177799079Y-43648383D01*
X177784829Y-43629170D01*
X177772532Y-43608653D01*
X177762304Y-43587029D01*
X177754246Y-43564507D01*
X177748434Y-43541303D01*
X177744924Y-43517642D01*
X177743750Y-43493750D01*
X177743750Y-43006250D01*
X177744924Y-42982358D01*
X177748434Y-42958697D01*
X177754246Y-42935493D01*
X177762304Y-42912971D01*
X177772532Y-42891347D01*
X177784829Y-42870830D01*
X177799079Y-42851617D01*
X177815143Y-42833893D01*
X177832867Y-42817829D01*
X177852080Y-42803579D01*
X177872597Y-42791282D01*
X177894221Y-42781054D01*
X177916743Y-42772996D01*
X177939947Y-42767184D01*
X177963608Y-42763674D01*
X177987500Y-42762500D01*
X178900000Y-42762500D01*
X178923892Y-42763674D01*
X178923892Y-42763674D01*
G37*
D19*
X178443750Y-43250000D03*
D14*
G36*
X178923892Y-44638674D02*
G01*
X178947553Y-44642184D01*
X178970757Y-44647996D01*
X178993279Y-44656054D01*
X179014903Y-44666282D01*
X179035420Y-44678579D01*
X179054633Y-44692829D01*
X179072357Y-44708893D01*
X179088421Y-44726617D01*
X179102671Y-44745830D01*
X179114968Y-44766347D01*
X179125196Y-44787971D01*
X179133254Y-44810493D01*
X179139066Y-44833697D01*
X179142576Y-44857358D01*
X179143750Y-44881250D01*
X179143750Y-45368750D01*
X179142576Y-45392642D01*
X179139066Y-45416303D01*
X179133254Y-45439507D01*
X179125196Y-45462029D01*
X179114968Y-45483653D01*
X179102671Y-45504170D01*
X179088421Y-45523383D01*
X179072357Y-45541107D01*
X179054633Y-45557171D01*
X179035420Y-45571421D01*
X179014903Y-45583718D01*
X178993279Y-45593946D01*
X178970757Y-45602004D01*
X178947553Y-45607816D01*
X178923892Y-45611326D01*
X178900000Y-45612500D01*
X177987500Y-45612500D01*
X177963608Y-45611326D01*
X177939947Y-45607816D01*
X177916743Y-45602004D01*
X177894221Y-45593946D01*
X177872597Y-45583718D01*
X177852080Y-45571421D01*
X177832867Y-45557171D01*
X177815143Y-45541107D01*
X177799079Y-45523383D01*
X177784829Y-45504170D01*
X177772532Y-45483653D01*
X177762304Y-45462029D01*
X177754246Y-45439507D01*
X177748434Y-45416303D01*
X177744924Y-45392642D01*
X177743750Y-45368750D01*
X177743750Y-44881250D01*
X177744924Y-44857358D01*
X177748434Y-44833697D01*
X177754246Y-44810493D01*
X177762304Y-44787971D01*
X177772532Y-44766347D01*
X177784829Y-44745830D01*
X177799079Y-44726617D01*
X177815143Y-44708893D01*
X177832867Y-44692829D01*
X177852080Y-44678579D01*
X177872597Y-44666282D01*
X177894221Y-44656054D01*
X177916743Y-44647996D01*
X177939947Y-44642184D01*
X177963608Y-44638674D01*
X177987500Y-44637500D01*
X178900000Y-44637500D01*
X178923892Y-44638674D01*
X178923892Y-44638674D01*
G37*
D19*
X178443750Y-45125000D03*
D10*
X172500000Y-54000000D03*
X173154999Y-53270000D03*
D11*
X173810000Y-52540000D02*
X172499998Y-54000000D01*
D10*
X167460000Y-55080000D03*
X167480000Y-54790000D03*
D11*
X167500000Y-54500000D02*
X167460000Y-55080000D01*
D14*
G36*
X183855754Y-42163704D02*
G01*
X183880023Y-42167304D01*
X183903821Y-42173265D01*
X183926921Y-42181530D01*
X183949099Y-42192020D01*
X183970143Y-42204633D01*
X183989848Y-42219247D01*
X184008027Y-42235723D01*
X184024503Y-42253902D01*
X184039117Y-42273607D01*
X184051730Y-42294651D01*
X184062220Y-42316829D01*
X184070485Y-42339929D01*
X184076446Y-42363727D01*
X184080046Y-42387996D01*
X184081250Y-42412500D01*
X184081250Y-43162500D01*
X184080046Y-43187004D01*
X184076446Y-43211273D01*
X184070485Y-43235071D01*
X184062220Y-43258171D01*
X184051730Y-43280349D01*
X184039117Y-43301393D01*
X184024503Y-43321098D01*
X184008027Y-43339277D01*
X183989848Y-43355753D01*
X183970143Y-43370367D01*
X183949099Y-43382980D01*
X183926921Y-43393470D01*
X183903821Y-43401735D01*
X183880023Y-43407696D01*
X183855754Y-43411296D01*
X183831250Y-43412500D01*
X182581250Y-43412500D01*
X182556746Y-43411296D01*
X182532477Y-43407696D01*
X182508679Y-43401735D01*
X182485579Y-43393470D01*
X182463401Y-43382980D01*
X182442357Y-43370367D01*
X182422652Y-43355753D01*
X182404473Y-43339277D01*
X182387997Y-43321098D01*
X182373383Y-43301393D01*
X182360770Y-43280349D01*
X182350280Y-43258171D01*
X182342015Y-43235071D01*
X182336054Y-43211273D01*
X182332454Y-43187004D01*
X182331250Y-43162500D01*
X182331250Y-42412500D01*
X182332454Y-42387996D01*
X182336054Y-42363727D01*
X182342015Y-42339929D01*
X182350280Y-42316829D01*
X182360770Y-42294651D01*
X182373383Y-42273607D01*
X182387997Y-42253902D01*
X182404473Y-42235723D01*
X182422652Y-42219247D01*
X182442357Y-42204633D01*
X182463401Y-42192020D01*
X182485579Y-42181530D01*
X182508679Y-42173265D01*
X182532477Y-42167304D01*
X182556746Y-42163704D01*
X182581250Y-42162500D01*
X183831250Y-42162500D01*
X183855754Y-42163704D01*
X183855754Y-42163704D01*
G37*
D20*
X183206250Y-42787500D03*
D14*
G36*
X183855754Y-44963704D02*
G01*
X183880023Y-44967304D01*
X183903821Y-44973265D01*
X183926921Y-44981530D01*
X183949099Y-44992020D01*
X183970143Y-45004633D01*
X183989848Y-45019247D01*
X184008027Y-45035723D01*
X184024503Y-45053902D01*
X184039117Y-45073607D01*
X184051730Y-45094651D01*
X184062220Y-45116829D01*
X184070485Y-45139929D01*
X184076446Y-45163727D01*
X184080046Y-45187996D01*
X184081250Y-45212500D01*
X184081250Y-45962500D01*
X184080046Y-45987004D01*
X184076446Y-46011273D01*
X184070485Y-46035071D01*
X184062220Y-46058171D01*
X184051730Y-46080349D01*
X184039117Y-46101393D01*
X184024503Y-46121098D01*
X184008027Y-46139277D01*
X183989848Y-46155753D01*
X183970143Y-46170367D01*
X183949099Y-46182980D01*
X183926921Y-46193470D01*
X183903821Y-46201735D01*
X183880023Y-46207696D01*
X183855754Y-46211296D01*
X183831250Y-46212500D01*
X182581250Y-46212500D01*
X182556746Y-46211296D01*
X182532477Y-46207696D01*
X182508679Y-46201735D01*
X182485579Y-46193470D01*
X182463401Y-46182980D01*
X182442357Y-46170367D01*
X182422652Y-46155753D01*
X182404473Y-46139277D01*
X182387997Y-46121098D01*
X182373383Y-46101393D01*
X182360770Y-46080349D01*
X182350280Y-46058171D01*
X182342015Y-46035071D01*
X182336054Y-46011273D01*
X182332454Y-45987004D01*
X182331250Y-45962500D01*
X182331250Y-45212500D01*
X182332454Y-45187996D01*
X182336054Y-45163727D01*
X182342015Y-45139929D01*
X182350280Y-45116829D01*
X182360770Y-45094651D01*
X182373383Y-45073607D01*
X182387997Y-45053902D01*
X182404473Y-45035723D01*
X182422652Y-45019247D01*
X182442357Y-45004633D01*
X182463401Y-44992020D01*
X182485579Y-44981530D01*
X182508679Y-44973265D01*
X182532477Y-44967304D01*
X182556746Y-44963704D01*
X182581250Y-44962500D01*
X183831250Y-44962500D01*
X183855754Y-44963704D01*
X183855754Y-44963704D01*
G37*
D20*
X183206250Y-45587500D03*
D14*
G36*
X186042489Y-58130786D02*
G01*
X186066150Y-58134296D01*
X186089354Y-58140108D01*
X186111876Y-58148166D01*
X186133500Y-58158394D01*
X186154017Y-58170691D01*
X186173230Y-58184941D01*
X186190954Y-58201005D01*
X186535669Y-58545720D01*
X186551733Y-58563444D01*
X186565983Y-58582657D01*
X186578280Y-58603174D01*
X186588508Y-58624798D01*
X186596566Y-58647320D01*
X186602378Y-58670524D01*
X186605888Y-58694185D01*
X186607062Y-58718077D01*
X186605888Y-58741969D01*
X186602378Y-58765630D01*
X186596566Y-58788834D01*
X186588508Y-58811356D01*
X186578280Y-58832980D01*
X186565983Y-58853497D01*
X186551733Y-58872710D01*
X186535669Y-58890434D01*
X185890434Y-59535669D01*
X185872710Y-59551733D01*
X185853497Y-59565983D01*
X185832980Y-59578280D01*
X185811356Y-59588508D01*
X185788834Y-59596566D01*
X185765630Y-59602378D01*
X185741969Y-59605888D01*
X185718077Y-59607062D01*
X185694185Y-59605888D01*
X185670524Y-59602378D01*
X185647320Y-59596566D01*
X185624798Y-59588508D01*
X185603174Y-59578280D01*
X185582657Y-59565983D01*
X185563444Y-59551733D01*
X185545720Y-59535669D01*
X185201005Y-59190954D01*
X185184941Y-59173230D01*
X185170691Y-59154017D01*
X185158394Y-59133500D01*
X185148166Y-59111876D01*
X185140108Y-59089354D01*
X185134296Y-59066150D01*
X185130786Y-59042489D01*
X185129612Y-59018597D01*
X185130786Y-58994705D01*
X185134296Y-58971044D01*
X185140108Y-58947840D01*
X185148166Y-58925318D01*
X185158394Y-58903694D01*
X185170691Y-58883177D01*
X185184941Y-58863964D01*
X185201005Y-58846240D01*
X185846240Y-58201005D01*
X185863964Y-58184941D01*
X185883177Y-58170691D01*
X185903694Y-58158394D01*
X185925318Y-58148166D01*
X185947840Y-58140108D01*
X185971044Y-58134296D01*
X185994705Y-58130786D01*
X186018597Y-58129612D01*
X186042489Y-58130786D01*
X186042489Y-58130786D01*
G37*
D19*
X185868337Y-58868337D03*
D14*
G36*
X187368315Y-59456612D02*
G01*
X187391976Y-59460122D01*
X187415180Y-59465934D01*
X187437702Y-59473992D01*
X187459326Y-59484220D01*
X187479843Y-59496517D01*
X187499056Y-59510767D01*
X187516780Y-59526831D01*
X187861495Y-59871546D01*
X187877559Y-59889270D01*
X187891809Y-59908483D01*
X187904106Y-59929000D01*
X187914334Y-59950624D01*
X187922392Y-59973146D01*
X187928204Y-59996350D01*
X187931714Y-60020011D01*
X187932888Y-60043903D01*
X187931714Y-60067795D01*
X187928204Y-60091456D01*
X187922392Y-60114660D01*
X187914334Y-60137182D01*
X187904106Y-60158806D01*
X187891809Y-60179323D01*
X187877559Y-60198536D01*
X187861495Y-60216260D01*
X187216260Y-60861495D01*
X187198536Y-60877559D01*
X187179323Y-60891809D01*
X187158806Y-60904106D01*
X187137182Y-60914334D01*
X187114660Y-60922392D01*
X187091456Y-60928204D01*
X187067795Y-60931714D01*
X187043903Y-60932888D01*
X187020011Y-60931714D01*
X186996350Y-60928204D01*
X186973146Y-60922392D01*
X186950624Y-60914334D01*
X186929000Y-60904106D01*
X186908483Y-60891809D01*
X186889270Y-60877559D01*
X186871546Y-60861495D01*
X186526831Y-60516780D01*
X186510767Y-60499056D01*
X186496517Y-60479843D01*
X186484220Y-60459326D01*
X186473992Y-60437702D01*
X186465934Y-60415180D01*
X186460122Y-60391976D01*
X186456612Y-60368315D01*
X186455438Y-60344423D01*
X186456612Y-60320531D01*
X186460122Y-60296870D01*
X186465934Y-60273666D01*
X186473992Y-60251144D01*
X186484220Y-60229520D01*
X186496517Y-60209003D01*
X186510767Y-60189790D01*
X186526831Y-60172066D01*
X187172066Y-59526831D01*
X187189790Y-59510767D01*
X187209003Y-59496517D01*
X187229520Y-59484220D01*
X187251144Y-59473992D01*
X187273666Y-59465934D01*
X187296870Y-59460122D01*
X187320531Y-59456612D01*
X187344423Y-59455438D01*
X187368315Y-59456612D01*
X187368315Y-59456612D01*
G37*
D19*
X187194163Y-60194163D03*
D14*
G36*
X189067489Y-71362036D02*
G01*
X189091150Y-71365546D01*
X189114354Y-71371358D01*
X189136876Y-71379416D01*
X189158500Y-71389644D01*
X189179017Y-71401941D01*
X189198230Y-71416191D01*
X189215954Y-71432255D01*
X189560669Y-71776970D01*
X189576733Y-71794694D01*
X189590983Y-71813907D01*
X189603280Y-71834424D01*
X189613508Y-71856048D01*
X189621566Y-71878570D01*
X189627378Y-71901774D01*
X189630888Y-71925435D01*
X189632062Y-71949327D01*
X189630888Y-71973219D01*
X189627378Y-71996880D01*
X189621566Y-72020084D01*
X189613508Y-72042606D01*
X189603280Y-72064230D01*
X189590983Y-72084747D01*
X189576733Y-72103960D01*
X189560669Y-72121684D01*
X188915434Y-72766919D01*
X188897710Y-72782983D01*
X188878497Y-72797233D01*
X188857980Y-72809530D01*
X188836356Y-72819758D01*
X188813834Y-72827816D01*
X188790630Y-72833628D01*
X188766969Y-72837138D01*
X188743077Y-72838312D01*
X188719185Y-72837138D01*
X188695524Y-72833628D01*
X188672320Y-72827816D01*
X188649798Y-72819758D01*
X188628174Y-72809530D01*
X188607657Y-72797233D01*
X188588444Y-72782983D01*
X188570720Y-72766919D01*
X188226005Y-72422204D01*
X188209941Y-72404480D01*
X188195691Y-72385267D01*
X188183394Y-72364750D01*
X188173166Y-72343126D01*
X188165108Y-72320604D01*
X188159296Y-72297400D01*
X188155786Y-72273739D01*
X188154612Y-72249847D01*
X188155786Y-72225955D01*
X188159296Y-72202294D01*
X188165108Y-72179090D01*
X188173166Y-72156568D01*
X188183394Y-72134944D01*
X188195691Y-72114427D01*
X188209941Y-72095214D01*
X188226005Y-72077490D01*
X188871240Y-71432255D01*
X188888964Y-71416191D01*
X188908177Y-71401941D01*
X188928694Y-71389644D01*
X188950318Y-71379416D01*
X188972840Y-71371358D01*
X188996044Y-71365546D01*
X189019705Y-71362036D01*
X189043597Y-71360862D01*
X189067489Y-71362036D01*
X189067489Y-71362036D01*
G37*
D19*
X188893337Y-72099587D03*
D14*
G36*
X190393315Y-72687862D02*
G01*
X190416976Y-72691372D01*
X190440180Y-72697184D01*
X190462702Y-72705242D01*
X190484326Y-72715470D01*
X190504843Y-72727767D01*
X190524056Y-72742017D01*
X190541780Y-72758081D01*
X190886495Y-73102796D01*
X190902559Y-73120520D01*
X190916809Y-73139733D01*
X190929106Y-73160250D01*
X190939334Y-73181874D01*
X190947392Y-73204396D01*
X190953204Y-73227600D01*
X190956714Y-73251261D01*
X190957888Y-73275153D01*
X190956714Y-73299045D01*
X190953204Y-73322706D01*
X190947392Y-73345910D01*
X190939334Y-73368432D01*
X190929106Y-73390056D01*
X190916809Y-73410573D01*
X190902559Y-73429786D01*
X190886495Y-73447510D01*
X190241260Y-74092745D01*
X190223536Y-74108809D01*
X190204323Y-74123059D01*
X190183806Y-74135356D01*
X190162182Y-74145584D01*
X190139660Y-74153642D01*
X190116456Y-74159454D01*
X190092795Y-74162964D01*
X190068903Y-74164138D01*
X190045011Y-74162964D01*
X190021350Y-74159454D01*
X189998146Y-74153642D01*
X189975624Y-74145584D01*
X189954000Y-74135356D01*
X189933483Y-74123059D01*
X189914270Y-74108809D01*
X189896546Y-74092745D01*
X189551831Y-73748030D01*
X189535767Y-73730306D01*
X189521517Y-73711093D01*
X189509220Y-73690576D01*
X189498992Y-73668952D01*
X189490934Y-73646430D01*
X189485122Y-73623226D01*
X189481612Y-73599565D01*
X189480438Y-73575673D01*
X189481612Y-73551781D01*
X189485122Y-73528120D01*
X189490934Y-73504916D01*
X189498992Y-73482394D01*
X189509220Y-73460770D01*
X189521517Y-73440253D01*
X189535767Y-73421040D01*
X189551831Y-73403316D01*
X190197066Y-72758081D01*
X190214790Y-72742017D01*
X190234003Y-72727767D01*
X190254520Y-72715470D01*
X190276144Y-72705242D01*
X190298666Y-72697184D01*
X190321870Y-72691372D01*
X190345531Y-72687862D01*
X190369423Y-72686688D01*
X190393315Y-72687862D01*
X190393315Y-72687862D01*
G37*
D19*
X190219163Y-73425413D03*
D14*
G36*
X185630815Y-77450362D02*
G01*
X185654476Y-77453872D01*
X185677680Y-77459684D01*
X185700202Y-77467742D01*
X185721826Y-77477970D01*
X185742343Y-77490267D01*
X185761556Y-77504517D01*
X185779280Y-77520581D01*
X186123995Y-77865296D01*
X186140059Y-77883020D01*
X186154309Y-77902233D01*
X186166606Y-77922750D01*
X186176834Y-77944374D01*
X186184892Y-77966896D01*
X186190704Y-77990100D01*
X186194214Y-78013761D01*
X186195388Y-78037653D01*
X186194214Y-78061545D01*
X186190704Y-78085206D01*
X186184892Y-78108410D01*
X186176834Y-78130932D01*
X186166606Y-78152556D01*
X186154309Y-78173073D01*
X186140059Y-78192286D01*
X186123995Y-78210010D01*
X185478760Y-78855245D01*
X185461036Y-78871309D01*
X185441823Y-78885559D01*
X185421306Y-78897856D01*
X185399682Y-78908084D01*
X185377160Y-78916142D01*
X185353956Y-78921954D01*
X185330295Y-78925464D01*
X185306403Y-78926638D01*
X185282511Y-78925464D01*
X185258850Y-78921954D01*
X185235646Y-78916142D01*
X185213124Y-78908084D01*
X185191500Y-78897856D01*
X185170983Y-78885559D01*
X185151770Y-78871309D01*
X185134046Y-78855245D01*
X184789331Y-78510530D01*
X184773267Y-78492806D01*
X184759017Y-78473593D01*
X184746720Y-78453076D01*
X184736492Y-78431452D01*
X184728434Y-78408930D01*
X184722622Y-78385726D01*
X184719112Y-78362065D01*
X184717938Y-78338173D01*
X184719112Y-78314281D01*
X184722622Y-78290620D01*
X184728434Y-78267416D01*
X184736492Y-78244894D01*
X184746720Y-78223270D01*
X184759017Y-78202753D01*
X184773267Y-78183540D01*
X184789331Y-78165816D01*
X185434566Y-77520581D01*
X185452290Y-77504517D01*
X185471503Y-77490267D01*
X185492020Y-77477970D01*
X185513644Y-77467742D01*
X185536166Y-77459684D01*
X185559370Y-77453872D01*
X185583031Y-77450362D01*
X185606923Y-77449188D01*
X185630815Y-77450362D01*
X185630815Y-77450362D01*
G37*
D19*
X185456663Y-78187913D03*
D14*
G36*
X184304989Y-76124536D02*
G01*
X184328650Y-76128046D01*
X184351854Y-76133858D01*
X184374376Y-76141916D01*
X184396000Y-76152144D01*
X184416517Y-76164441D01*
X184435730Y-76178691D01*
X184453454Y-76194755D01*
X184798169Y-76539470D01*
X184814233Y-76557194D01*
X184828483Y-76576407D01*
X184840780Y-76596924D01*
X184851008Y-76618548D01*
X184859066Y-76641070D01*
X184864878Y-76664274D01*
X184868388Y-76687935D01*
X184869562Y-76711827D01*
X184868388Y-76735719D01*
X184864878Y-76759380D01*
X184859066Y-76782584D01*
X184851008Y-76805106D01*
X184840780Y-76826730D01*
X184828483Y-76847247D01*
X184814233Y-76866460D01*
X184798169Y-76884184D01*
X184152934Y-77529419D01*
X184135210Y-77545483D01*
X184115997Y-77559733D01*
X184095480Y-77572030D01*
X184073856Y-77582258D01*
X184051334Y-77590316D01*
X184028130Y-77596128D01*
X184004469Y-77599638D01*
X183980577Y-77600812D01*
X183956685Y-77599638D01*
X183933024Y-77596128D01*
X183909820Y-77590316D01*
X183887298Y-77582258D01*
X183865674Y-77572030D01*
X183845157Y-77559733D01*
X183825944Y-77545483D01*
X183808220Y-77529419D01*
X183463505Y-77184704D01*
X183447441Y-77166980D01*
X183433191Y-77147767D01*
X183420894Y-77127250D01*
X183410666Y-77105626D01*
X183402608Y-77083104D01*
X183396796Y-77059900D01*
X183393286Y-77036239D01*
X183392112Y-77012347D01*
X183393286Y-76988455D01*
X183396796Y-76964794D01*
X183402608Y-76941590D01*
X183410666Y-76919068D01*
X183420894Y-76897444D01*
X183433191Y-76876927D01*
X183447441Y-76857714D01*
X183463505Y-76839990D01*
X184108740Y-76194755D01*
X184126464Y-76178691D01*
X184145677Y-76164441D01*
X184166194Y-76152144D01*
X184187818Y-76141916D01*
X184210340Y-76133858D01*
X184233544Y-76128046D01*
X184257205Y-76124536D01*
X184281097Y-76123362D01*
X184304989Y-76124536D01*
X184304989Y-76124536D01*
G37*
D19*
X184130837Y-76862087D03*
D14*
G36*
X176066969Y-58400362D02*
G01*
X176090630Y-58403872D01*
X176113834Y-58409684D01*
X176136356Y-58417742D01*
X176157980Y-58427970D01*
X176178497Y-58440267D01*
X176197710Y-58454517D01*
X176215434Y-58470581D01*
X176860669Y-59115816D01*
X176876733Y-59133540D01*
X176890983Y-59152753D01*
X176903280Y-59173270D01*
X176913508Y-59194894D01*
X176921566Y-59217416D01*
X176927378Y-59240620D01*
X176930888Y-59264281D01*
X176932062Y-59288173D01*
X176930888Y-59312065D01*
X176927378Y-59335726D01*
X176921566Y-59358930D01*
X176913508Y-59381452D01*
X176903280Y-59403076D01*
X176890983Y-59423593D01*
X176876733Y-59442806D01*
X176860669Y-59460530D01*
X176515954Y-59805245D01*
X176498230Y-59821309D01*
X176479017Y-59835559D01*
X176458500Y-59847856D01*
X176436876Y-59858084D01*
X176414354Y-59866142D01*
X176391150Y-59871954D01*
X176367489Y-59875464D01*
X176343597Y-59876638D01*
X176319705Y-59875464D01*
X176296044Y-59871954D01*
X176272840Y-59866142D01*
X176250318Y-59858084D01*
X176228694Y-59847856D01*
X176208177Y-59835559D01*
X176188964Y-59821309D01*
X176171240Y-59805245D01*
X175526005Y-59160010D01*
X175509941Y-59142286D01*
X175495691Y-59123073D01*
X175483394Y-59102556D01*
X175473166Y-59080932D01*
X175465108Y-59058410D01*
X175459296Y-59035206D01*
X175455786Y-59011545D01*
X175454612Y-58987653D01*
X175455786Y-58963761D01*
X175459296Y-58940100D01*
X175465108Y-58916896D01*
X175473166Y-58894374D01*
X175483394Y-58872750D01*
X175495691Y-58852233D01*
X175509941Y-58833020D01*
X175526005Y-58815296D01*
X175870720Y-58470581D01*
X175888444Y-58454517D01*
X175907657Y-58440267D01*
X175928174Y-58427970D01*
X175949798Y-58417742D01*
X175972320Y-58409684D01*
X175995524Y-58403872D01*
X176019185Y-58400362D01*
X176043077Y-58399188D01*
X176066969Y-58400362D01*
X176066969Y-58400362D01*
G37*
D19*
X176193337Y-59137913D03*
D14*
G36*
X177392795Y-57074536D02*
G01*
X177416456Y-57078046D01*
X177439660Y-57083858D01*
X177462182Y-57091916D01*
X177483806Y-57102144D01*
X177504323Y-57114441D01*
X177523536Y-57128691D01*
X177541260Y-57144755D01*
X178186495Y-57789990D01*
X178202559Y-57807714D01*
X178216809Y-57826927D01*
X178229106Y-57847444D01*
X178239334Y-57869068D01*
X178247392Y-57891590D01*
X178253204Y-57914794D01*
X178256714Y-57938455D01*
X178257888Y-57962347D01*
X178256714Y-57986239D01*
X178253204Y-58009900D01*
X178247392Y-58033104D01*
X178239334Y-58055626D01*
X178229106Y-58077250D01*
X178216809Y-58097767D01*
X178202559Y-58116980D01*
X178186495Y-58134704D01*
X177841780Y-58479419D01*
X177824056Y-58495483D01*
X177804843Y-58509733D01*
X177784326Y-58522030D01*
X177762702Y-58532258D01*
X177740180Y-58540316D01*
X177716976Y-58546128D01*
X177693315Y-58549638D01*
X177669423Y-58550812D01*
X177645531Y-58549638D01*
X177621870Y-58546128D01*
X177598666Y-58540316D01*
X177576144Y-58532258D01*
X177554520Y-58522030D01*
X177534003Y-58509733D01*
X177514790Y-58495483D01*
X177497066Y-58479419D01*
X176851831Y-57834184D01*
X176835767Y-57816460D01*
X176821517Y-57797247D01*
X176809220Y-57776730D01*
X176798992Y-57755106D01*
X176790934Y-57732584D01*
X176785122Y-57709380D01*
X176781612Y-57685719D01*
X176780438Y-57661827D01*
X176781612Y-57637935D01*
X176785122Y-57614274D01*
X176790934Y-57591070D01*
X176798992Y-57568548D01*
X176809220Y-57546924D01*
X176821517Y-57526407D01*
X176835767Y-57507194D01*
X176851831Y-57489470D01*
X177196546Y-57144755D01*
X177214270Y-57128691D01*
X177233483Y-57114441D01*
X177254000Y-57102144D01*
X177275624Y-57091916D01*
X177298146Y-57083858D01*
X177321350Y-57078046D01*
X177345011Y-57074536D01*
X177368903Y-57073362D01*
X177392795Y-57074536D01*
X177392795Y-57074536D01*
G37*
D19*
X177519163Y-57812087D03*
D14*
G36*
X191148219Y-67131612D02*
G01*
X191171880Y-67135122D01*
X191195084Y-67140934D01*
X191217606Y-67148992D01*
X191239230Y-67159220D01*
X191259747Y-67171517D01*
X191278960Y-67185767D01*
X191296684Y-67201831D01*
X191941919Y-67847066D01*
X191957983Y-67864790D01*
X191972233Y-67884003D01*
X191984530Y-67904520D01*
X191994758Y-67926144D01*
X192002816Y-67948666D01*
X192008628Y-67971870D01*
X192012138Y-67995531D01*
X192013312Y-68019423D01*
X192012138Y-68043315D01*
X192008628Y-68066976D01*
X192002816Y-68090180D01*
X191994758Y-68112702D01*
X191984530Y-68134326D01*
X191972233Y-68154843D01*
X191957983Y-68174056D01*
X191941919Y-68191780D01*
X191597204Y-68536495D01*
X191579480Y-68552559D01*
X191560267Y-68566809D01*
X191539750Y-68579106D01*
X191518126Y-68589334D01*
X191495604Y-68597392D01*
X191472400Y-68603204D01*
X191448739Y-68606714D01*
X191424847Y-68607888D01*
X191400955Y-68606714D01*
X191377294Y-68603204D01*
X191354090Y-68597392D01*
X191331568Y-68589334D01*
X191309944Y-68579106D01*
X191289427Y-68566809D01*
X191270214Y-68552559D01*
X191252490Y-68536495D01*
X190607255Y-67891260D01*
X190591191Y-67873536D01*
X190576941Y-67854323D01*
X190564644Y-67833806D01*
X190554416Y-67812182D01*
X190546358Y-67789660D01*
X190540546Y-67766456D01*
X190537036Y-67742795D01*
X190535862Y-67718903D01*
X190537036Y-67695011D01*
X190540546Y-67671350D01*
X190546358Y-67648146D01*
X190554416Y-67625624D01*
X190564644Y-67604000D01*
X190576941Y-67583483D01*
X190591191Y-67564270D01*
X190607255Y-67546546D01*
X190951970Y-67201831D01*
X190969694Y-67185767D01*
X190988907Y-67171517D01*
X191009424Y-67159220D01*
X191031048Y-67148992D01*
X191053570Y-67140934D01*
X191076774Y-67135122D01*
X191100435Y-67131612D01*
X191124327Y-67130438D01*
X191148219Y-67131612D01*
X191148219Y-67131612D01*
G37*
D19*
X191274587Y-67869163D03*
D14*
G36*
X192474045Y-65805786D02*
G01*
X192497706Y-65809296D01*
X192520910Y-65815108D01*
X192543432Y-65823166D01*
X192565056Y-65833394D01*
X192585573Y-65845691D01*
X192604786Y-65859941D01*
X192622510Y-65876005D01*
X193267745Y-66521240D01*
X193283809Y-66538964D01*
X193298059Y-66558177D01*
X193310356Y-66578694D01*
X193320584Y-66600318D01*
X193328642Y-66622840D01*
X193334454Y-66646044D01*
X193337964Y-66669705D01*
X193339138Y-66693597D01*
X193337964Y-66717489D01*
X193334454Y-66741150D01*
X193328642Y-66764354D01*
X193320584Y-66786876D01*
X193310356Y-66808500D01*
X193298059Y-66829017D01*
X193283809Y-66848230D01*
X193267745Y-66865954D01*
X192923030Y-67210669D01*
X192905306Y-67226733D01*
X192886093Y-67240983D01*
X192865576Y-67253280D01*
X192843952Y-67263508D01*
X192821430Y-67271566D01*
X192798226Y-67277378D01*
X192774565Y-67280888D01*
X192750673Y-67282062D01*
X192726781Y-67280888D01*
X192703120Y-67277378D01*
X192679916Y-67271566D01*
X192657394Y-67263508D01*
X192635770Y-67253280D01*
X192615253Y-67240983D01*
X192596040Y-67226733D01*
X192578316Y-67210669D01*
X191933081Y-66565434D01*
X191917017Y-66547710D01*
X191902767Y-66528497D01*
X191890470Y-66507980D01*
X191880242Y-66486356D01*
X191872184Y-66463834D01*
X191866372Y-66440630D01*
X191862862Y-66416969D01*
X191861688Y-66393077D01*
X191862862Y-66369185D01*
X191866372Y-66345524D01*
X191872184Y-66322320D01*
X191880242Y-66299798D01*
X191890470Y-66278174D01*
X191902767Y-66257657D01*
X191917017Y-66238444D01*
X191933081Y-66220720D01*
X192277796Y-65876005D01*
X192295520Y-65859941D01*
X192314733Y-65845691D01*
X192335250Y-65833394D01*
X192356874Y-65823166D01*
X192379396Y-65815108D01*
X192402600Y-65809296D01*
X192426261Y-65805786D01*
X192450153Y-65804612D01*
X192474045Y-65805786D01*
X192474045Y-65805786D01*
G37*
D19*
X192600413Y-66543337D03*
D14*
G36*
X172630295Y-61837036D02*
G01*
X172653956Y-61840546D01*
X172677160Y-61846358D01*
X172699682Y-61854416D01*
X172721306Y-61864644D01*
X172741823Y-61876941D01*
X172761036Y-61891191D01*
X172778760Y-61907255D01*
X173423995Y-62552490D01*
X173440059Y-62570214D01*
X173454309Y-62589427D01*
X173466606Y-62609944D01*
X173476834Y-62631568D01*
X173484892Y-62654090D01*
X173490704Y-62677294D01*
X173494214Y-62700955D01*
X173495388Y-62724847D01*
X173494214Y-62748739D01*
X173490704Y-62772400D01*
X173484892Y-62795604D01*
X173476834Y-62818126D01*
X173466606Y-62839750D01*
X173454309Y-62860267D01*
X173440059Y-62879480D01*
X173423995Y-62897204D01*
X173079280Y-63241919D01*
X173061556Y-63257983D01*
X173042343Y-63272233D01*
X173021826Y-63284530D01*
X173000202Y-63294758D01*
X172977680Y-63302816D01*
X172954476Y-63308628D01*
X172930815Y-63312138D01*
X172906923Y-63313312D01*
X172883031Y-63312138D01*
X172859370Y-63308628D01*
X172836166Y-63302816D01*
X172813644Y-63294758D01*
X172792020Y-63284530D01*
X172771503Y-63272233D01*
X172752290Y-63257983D01*
X172734566Y-63241919D01*
X172089331Y-62596684D01*
X172073267Y-62578960D01*
X172059017Y-62559747D01*
X172046720Y-62539230D01*
X172036492Y-62517606D01*
X172028434Y-62495084D01*
X172022622Y-62471880D01*
X172019112Y-62448219D01*
X172017938Y-62424327D01*
X172019112Y-62400435D01*
X172022622Y-62376774D01*
X172028434Y-62353570D01*
X172036492Y-62331048D01*
X172046720Y-62309424D01*
X172059017Y-62288907D01*
X172073267Y-62269694D01*
X172089331Y-62251970D01*
X172434046Y-61907255D01*
X172451770Y-61891191D01*
X172470983Y-61876941D01*
X172491500Y-61864644D01*
X172513124Y-61854416D01*
X172535646Y-61846358D01*
X172558850Y-61840546D01*
X172582511Y-61837036D01*
X172606403Y-61835862D01*
X172630295Y-61837036D01*
X172630295Y-61837036D01*
G37*
D19*
X172756663Y-62574587D03*
D14*
G36*
X171304469Y-63162862D02*
G01*
X171328130Y-63166372D01*
X171351334Y-63172184D01*
X171373856Y-63180242D01*
X171395480Y-63190470D01*
X171415997Y-63202767D01*
X171435210Y-63217017D01*
X171452934Y-63233081D01*
X172098169Y-63878316D01*
X172114233Y-63896040D01*
X172128483Y-63915253D01*
X172140780Y-63935770D01*
X172151008Y-63957394D01*
X172159066Y-63979916D01*
X172164878Y-64003120D01*
X172168388Y-64026781D01*
X172169562Y-64050673D01*
X172168388Y-64074565D01*
X172164878Y-64098226D01*
X172159066Y-64121430D01*
X172151008Y-64143952D01*
X172140780Y-64165576D01*
X172128483Y-64186093D01*
X172114233Y-64205306D01*
X172098169Y-64223030D01*
X171753454Y-64567745D01*
X171735730Y-64583809D01*
X171716517Y-64598059D01*
X171696000Y-64610356D01*
X171674376Y-64620584D01*
X171651854Y-64628642D01*
X171628650Y-64634454D01*
X171604989Y-64637964D01*
X171581097Y-64639138D01*
X171557205Y-64637964D01*
X171533544Y-64634454D01*
X171510340Y-64628642D01*
X171487818Y-64620584D01*
X171466194Y-64610356D01*
X171445677Y-64598059D01*
X171426464Y-64583809D01*
X171408740Y-64567745D01*
X170763505Y-63922510D01*
X170747441Y-63904786D01*
X170733191Y-63885573D01*
X170720894Y-63865056D01*
X170710666Y-63843432D01*
X170702608Y-63820910D01*
X170696796Y-63797706D01*
X170693286Y-63774045D01*
X170692112Y-63750153D01*
X170693286Y-63726261D01*
X170696796Y-63702600D01*
X170702608Y-63679396D01*
X170710666Y-63656874D01*
X170720894Y-63635250D01*
X170733191Y-63614733D01*
X170747441Y-63595520D01*
X170763505Y-63577796D01*
X171108220Y-63233081D01*
X171125944Y-63217017D01*
X171145157Y-63202767D01*
X171165674Y-63190470D01*
X171187298Y-63180242D01*
X171209820Y-63172184D01*
X171233024Y-63166372D01*
X171256685Y-63162862D01*
X171280577Y-63161688D01*
X171304469Y-63162862D01*
X171304469Y-63162862D01*
G37*
D19*
X171430837Y-63900413D03*
D14*
G36*
X177693315Y-74275362D02*
G01*
X177716976Y-74278872D01*
X177740180Y-74284684D01*
X177762702Y-74292742D01*
X177784326Y-74302970D01*
X177804843Y-74315267D01*
X177824056Y-74329517D01*
X177841780Y-74345581D01*
X178186495Y-74690296D01*
X178202559Y-74708020D01*
X178216809Y-74727233D01*
X178229106Y-74747750D01*
X178239334Y-74769374D01*
X178247392Y-74791896D01*
X178253204Y-74815100D01*
X178256714Y-74838761D01*
X178257888Y-74862653D01*
X178256714Y-74886545D01*
X178253204Y-74910206D01*
X178247392Y-74933410D01*
X178239334Y-74955932D01*
X178229106Y-74977556D01*
X178216809Y-74998073D01*
X178202559Y-75017286D01*
X178186495Y-75035010D01*
X177541260Y-75680245D01*
X177523536Y-75696309D01*
X177504323Y-75710559D01*
X177483806Y-75722856D01*
X177462182Y-75733084D01*
X177439660Y-75741142D01*
X177416456Y-75746954D01*
X177392795Y-75750464D01*
X177368903Y-75751638D01*
X177345011Y-75750464D01*
X177321350Y-75746954D01*
X177298146Y-75741142D01*
X177275624Y-75733084D01*
X177254000Y-75722856D01*
X177233483Y-75710559D01*
X177214270Y-75696309D01*
X177196546Y-75680245D01*
X176851831Y-75335530D01*
X176835767Y-75317806D01*
X176821517Y-75298593D01*
X176809220Y-75278076D01*
X176798992Y-75256452D01*
X176790934Y-75233930D01*
X176785122Y-75210726D01*
X176781612Y-75187065D01*
X176780438Y-75163173D01*
X176781612Y-75139281D01*
X176785122Y-75115620D01*
X176790934Y-75092416D01*
X176798992Y-75069894D01*
X176809220Y-75048270D01*
X176821517Y-75027753D01*
X176835767Y-75008540D01*
X176851831Y-74990816D01*
X177497066Y-74345581D01*
X177514790Y-74329517D01*
X177534003Y-74315267D01*
X177554520Y-74302970D01*
X177576144Y-74292742D01*
X177598666Y-74284684D01*
X177621870Y-74278872D01*
X177645531Y-74275362D01*
X177669423Y-74274188D01*
X177693315Y-74275362D01*
X177693315Y-74275362D01*
G37*
D19*
X177519163Y-75012913D03*
D14*
G36*
X176367489Y-72949536D02*
G01*
X176391150Y-72953046D01*
X176414354Y-72958858D01*
X176436876Y-72966916D01*
X176458500Y-72977144D01*
X176479017Y-72989441D01*
X176498230Y-73003691D01*
X176515954Y-73019755D01*
X176860669Y-73364470D01*
X176876733Y-73382194D01*
X176890983Y-73401407D01*
X176903280Y-73421924D01*
X176913508Y-73443548D01*
X176921566Y-73466070D01*
X176927378Y-73489274D01*
X176930888Y-73512935D01*
X176932062Y-73536827D01*
X176930888Y-73560719D01*
X176927378Y-73584380D01*
X176921566Y-73607584D01*
X176913508Y-73630106D01*
X176903280Y-73651730D01*
X176890983Y-73672247D01*
X176876733Y-73691460D01*
X176860669Y-73709184D01*
X176215434Y-74354419D01*
X176197710Y-74370483D01*
X176178497Y-74384733D01*
X176157980Y-74397030D01*
X176136356Y-74407258D01*
X176113834Y-74415316D01*
X176090630Y-74421128D01*
X176066969Y-74424638D01*
X176043077Y-74425812D01*
X176019185Y-74424638D01*
X175995524Y-74421128D01*
X175972320Y-74415316D01*
X175949798Y-74407258D01*
X175928174Y-74397030D01*
X175907657Y-74384733D01*
X175888444Y-74370483D01*
X175870720Y-74354419D01*
X175526005Y-74009704D01*
X175509941Y-73991980D01*
X175495691Y-73972767D01*
X175483394Y-73952250D01*
X175473166Y-73930626D01*
X175465108Y-73908104D01*
X175459296Y-73884900D01*
X175455786Y-73861239D01*
X175454612Y-73837347D01*
X175455786Y-73813455D01*
X175459296Y-73789794D01*
X175465108Y-73766590D01*
X175473166Y-73744068D01*
X175483394Y-73722444D01*
X175495691Y-73701927D01*
X175509941Y-73682714D01*
X175526005Y-73664990D01*
X176171240Y-73019755D01*
X176188964Y-73003691D01*
X176208177Y-72989441D01*
X176228694Y-72977144D01*
X176250318Y-72966916D01*
X176272840Y-72958858D01*
X176296044Y-72953046D01*
X176319705Y-72949536D01*
X176343597Y-72948362D01*
X176367489Y-72949536D01*
X176367489Y-72949536D01*
G37*
D19*
X176193337Y-73687087D03*
D21*
X191937500Y-69587500D03*
X176062500Y-56093750D03*
X169712500Y-62443750D03*
X174475000Y-75143750D03*
X181618750Y-51331250D03*
X178443750Y-53712500D03*
X192087500Y-43656250D03*
X174625000Y-42068750D03*
X189706250Y-56356250D03*
X175418750Y-60325000D03*
D22*
X186022347Y-77622229D02*
X185456663Y-78187913D01*
X187105891Y-76538685D02*
X186022347Y-77622229D01*
X187105891Y-73887033D02*
X187105891Y-76538685D01*
X188893337Y-72099587D02*
X187105891Y-73887033D01*
X180694163Y-78187913D02*
X177519163Y-75012913D01*
X185456663Y-78187913D02*
X180694163Y-78187913D01*
X186206920Y-69912678D02*
X185605880Y-69311638D01*
X186222244Y-69928002D02*
X186206920Y-69912678D01*
X189215748Y-69928002D02*
X186222244Y-69928002D01*
X191274587Y-67869163D02*
X189215748Y-69928002D01*
X177694896Y-59137913D02*
X178676233Y-60119250D01*
X176193337Y-59137913D02*
X177694896Y-59137913D01*
X172756663Y-63250646D02*
X172756663Y-62574587D01*
X174150750Y-64644733D02*
X172756663Y-63250646D01*
X177519163Y-75012913D02*
X183821478Y-68710598D01*
X185004840Y-68710598D02*
X185605880Y-69311638D01*
X183821478Y-68710598D02*
X185004840Y-68710598D01*
X183307783Y-62417346D02*
X183908823Y-61816306D01*
X183307783Y-68196903D02*
X183307783Y-62417346D01*
X179277273Y-64166393D02*
X183555440Y-68444560D01*
X179277273Y-60720290D02*
X179277273Y-64166393D01*
X178676233Y-60119250D02*
X179277273Y-60720290D01*
X183821478Y-68710598D02*
X183555440Y-68444560D01*
X183555440Y-68444560D02*
X183307783Y-68196903D01*
X174150750Y-64644733D02*
X177506017Y-68000000D01*
X177506017Y-68000000D02*
X183206250Y-68000000D01*
X173759184Y-66499288D02*
X174499288Y-66499288D01*
X172355424Y-69849174D02*
X172355424Y-67903048D01*
X172355424Y-67903048D02*
X173759184Y-66499288D01*
X174499288Y-66499288D02*
X176000000Y-68000000D01*
X176000000Y-68000000D02*
X177506017Y-68000000D01*
X186434021Y-58302653D02*
X185868337Y-58868337D01*
X197815403Y-58302653D02*
X186434021Y-58302653D01*
X199312750Y-59800000D02*
X197815403Y-58302653D01*
X200593750Y-59800000D02*
X199312750Y-59800000D01*
X185868337Y-58868337D02*
X184943750Y-59792924D01*
X184943750Y-60781379D02*
X183908823Y-61816306D01*
X184943750Y-59792924D02*
X184943750Y-60781379D01*
X175627653Y-58572229D02*
X176193337Y-59137913D01*
X178531250Y-39775000D02*
X178531250Y-41565520D01*
X178531250Y-41565520D02*
X177353240Y-42743530D01*
X177353240Y-42743530D02*
X177353240Y-52834260D01*
X177353240Y-52834260D02*
X175271999Y-54915501D01*
X175271999Y-54915501D02*
X175271999Y-58216575D01*
X175271999Y-58216575D02*
X175627653Y-58572229D01*
X192600413Y-66543337D02*
X192600413Y-68924587D01*
X192600413Y-68924587D02*
X191937500Y-69587500D01*
X179241918Y-59534842D02*
X177519163Y-57812087D01*
X179241918Y-59553564D02*
X179241918Y-59534842D01*
X177519163Y-57812087D02*
X177519163Y-57550413D01*
X177519163Y-57550413D02*
X176062500Y-56093750D01*
X172275059Y-63900413D02*
X173585064Y-65210418D01*
X171430837Y-63900413D02*
X172275059Y-63900413D01*
X171430837Y-63900413D02*
X171169163Y-63900413D01*
X171169163Y-63900413D02*
X169712500Y-62443750D01*
X177694896Y-73687087D02*
X176193337Y-73687087D01*
X178676233Y-72705750D02*
X177694896Y-73687087D01*
X175931663Y-73687087D02*
X174475000Y-75143750D01*
X176193337Y-73687087D02*
X175931663Y-73687087D01*
X183206250Y-45587500D02*
X181618750Y-47175000D01*
X181618750Y-47175000D02*
X181618750Y-51331250D01*
X186219363Y-68793750D02*
X186029166Y-68793750D01*
X186772605Y-69346992D02*
X186219363Y-68793750D01*
X188254542Y-69346992D02*
X186772605Y-69346992D01*
X192600413Y-66543337D02*
X191058197Y-66543337D01*
X191058197Y-66543337D02*
X188254542Y-69346992D01*
X192081250Y-66024174D02*
X192600413Y-66543337D01*
X192081250Y-63237500D02*
X192081250Y-66024174D01*
X193385879Y-66543337D02*
X192600413Y-66543337D01*
X193503315Y-66543337D02*
X193385879Y-66543337D01*
X195684251Y-64362401D02*
X193503315Y-66543337D01*
X195684251Y-62637599D02*
X195684251Y-64362401D01*
X194743632Y-61696980D02*
X195684251Y-62637599D01*
X186290891Y-61696980D02*
X194743632Y-61696980D01*
X185040194Y-62947677D02*
X186290891Y-61696980D01*
X182812807Y-58081557D02*
X178443750Y-53712500D01*
X182812807Y-59518210D02*
X182812807Y-58081557D01*
X182211767Y-60119250D02*
X182812807Y-59518210D01*
D23*
X184130837Y-76862087D02*
X185587500Y-75405424D01*
X185587500Y-71556000D02*
X184474509Y-70443009D01*
X185587500Y-75405424D02*
X185587500Y-71556000D01*
X185641234Y-70478363D02*
X185040194Y-69877323D01*
X188721697Y-70478363D02*
X185641234Y-70478363D01*
X190350000Y-72106666D02*
X188721697Y-70478363D01*
X190350000Y-73170831D02*
X190350000Y-72106666D01*
X188553858Y-74966973D02*
X190350000Y-73170831D01*
X184474509Y-62381991D02*
X185737500Y-61119000D01*
X186269326Y-61119000D02*
X187194163Y-60194163D01*
X185737500Y-61119000D02*
X186269326Y-61119000D01*
X192150000Y-42068750D02*
X192150000Y-43593750D01*
X192150000Y-43593750D02*
X192087500Y-43656250D01*
X174625000Y-42068750D02*
X172306250Y-42068750D01*
X174681080Y-62912322D02*
X175282120Y-63513362D01*
X170656250Y-53181250D02*
X170656250Y-58887492D01*
X170656250Y-58887492D02*
X171375004Y-59606246D01*
X171375004Y-59606246D02*
X174681080Y-62912322D01*
X171049999Y-59281241D02*
X171375004Y-59606246D01*
X174625000Y-42068750D02*
X174625000Y-47625000D01*
X174625000Y-47625000D02*
X173037500Y-49212500D01*
X173037500Y-49212500D02*
X173037500Y-50800000D01*
X173037500Y-50800000D02*
X170656250Y-53181250D01*
X181531250Y-41112500D02*
X183206250Y-42787500D01*
X181531250Y-39775000D02*
X181531250Y-41112500D01*
X173810000Y-60909871D02*
X175847806Y-62947677D01*
X173810000Y-52540000D02*
X173810000Y-60909871D01*
X193810000Y-52540000D02*
X193522500Y-52540000D01*
X193522500Y-52540000D02*
X189706250Y-56356250D01*
X176413491Y-62113491D02*
X176413491Y-62381991D01*
X175418750Y-61387250D02*
X176413491Y-62381991D01*
X175418750Y-60325000D02*
X175418750Y-61387250D01*
X183378492Y-60083895D02*
X183378492Y-57853492D01*
X182777452Y-60684935D02*
X183378492Y-60083895D01*
X183378492Y-57853492D02*
X180031250Y-54506250D01*
X180031250Y-46712500D02*
X178443750Y-45125000D01*
X180031250Y-54506250D02*
X180031250Y-46712500D01*
X180825000Y-45125000D02*
X180825000Y-54506250D01*
X183944178Y-60649580D02*
X183343138Y-61250620D01*
X183944178Y-57625428D02*
X183944178Y-60649580D01*
X180825000Y-54506250D02*
X183944178Y-57625428D01*
X190762487Y-62681263D02*
X190206250Y-63237500D01*
X191231260Y-62212490D02*
X190762487Y-62681263D01*
X192756240Y-62212490D02*
X191231260Y-62212490D01*
X194043750Y-63500000D02*
X192756240Y-62212490D01*
X194393750Y-63500000D02*
X194043750Y-63500000D01*
X187338290Y-68781307D02*
X186737250Y-68180267D01*
X187656505Y-68781307D02*
X187338290Y-68781307D01*
X190762487Y-65675325D02*
X187656505Y-68781307D01*
X190762487Y-63793737D02*
X190762487Y-65675325D01*
X190206250Y-63237500D02*
X190762487Y-63793737D01*
X172984024Y-68215622D02*
X173585064Y-67614582D01*
X172984024Y-68533835D02*
X172984024Y-68215622D01*
X173681250Y-69231061D02*
X172984024Y-68533835D01*
X173681250Y-71175000D02*
X173681250Y-69231061D01*
X180531250Y-39775000D02*
X180531250Y-42306250D01*
X180825000Y-42600000D02*
X180825000Y-43250000D01*
X180531250Y-42306250D02*
X180825000Y-42600000D01*
X179531250Y-42162500D02*
X178443750Y-43250000D01*
X179531250Y-39775000D02*
X179531250Y-42162500D01*
X167460000Y-53489010D02*
X167460000Y-55080000D01*
X167460000Y-42915000D02*
X167460000Y-53489010D01*
X168306250Y-42068750D02*
X167460000Y-42915000D01*
X169006250Y-42068750D02*
X168306250Y-42068750D01*
X187460000Y-53489010D02*
X187460000Y-55080000D01*
X187460000Y-42758750D02*
X187460000Y-53489010D01*
X188150000Y-42068750D02*
X187460000Y-42758750D01*
X188850000Y-42068750D02*
X188150000Y-42068750D01*
D24*
G36*
X175993178Y-36800000D02*
G01*
X176005438Y-36924482D01*
X176041748Y-37044180D01*
X176100713Y-37154494D01*
X176180065Y-37251185D01*
X176276756Y-37330537D01*
X176387070Y-37389502D01*
X176506768Y-37425812D01*
X176631250Y-37438072D01*
X177831250Y-37438072D01*
X177955732Y-37425812D01*
X178075430Y-37389502D01*
X178185744Y-37330537D01*
X178282435Y-37251185D01*
X178361787Y-37154494D01*
X178420752Y-37044180D01*
X178457062Y-36924482D01*
X178469322Y-36800000D01*
X178469322Y-35195000D01*
X181593178Y-35195000D01*
X181593178Y-36800000D01*
X181605438Y-36924482D01*
X181641748Y-37044180D01*
X181700713Y-37154494D01*
X181780065Y-37251185D01*
X181876756Y-37330537D01*
X181987070Y-37389502D01*
X182106768Y-37425812D01*
X182231250Y-37438072D01*
X183431250Y-37438072D01*
X183555732Y-37425812D01*
X183675430Y-37389502D01*
X183785744Y-37330537D01*
X183882435Y-37251185D01*
X183961787Y-37154494D01*
X184020752Y-37044180D01*
X184057062Y-36924482D01*
X184069322Y-36800000D01*
X184069322Y-35195000D01*
X201805000Y-35195000D01*
X201805001Y-58696349D01*
X201737930Y-58660498D01*
X201618232Y-58624188D01*
X201493750Y-58611928D01*
X200879500Y-58615000D01*
X200720750Y-58773750D01*
X200720750Y-59673000D01*
X200740750Y-59673000D01*
X200740750Y-59927000D01*
X200720750Y-59927000D01*
X200720750Y-60826250D01*
X200879500Y-60985000D01*
X201493750Y-60988072D01*
X201618232Y-60975812D01*
X201737930Y-60939502D01*
X201805001Y-60903651D01*
X201805001Y-62396349D01*
X201737930Y-62360498D01*
X201618232Y-62324188D01*
X201493750Y-62311928D01*
X199693750Y-62311928D01*
X199569268Y-62324188D01*
X199449570Y-62360498D01*
X199339256Y-62419463D01*
X199242565Y-62498815D01*
X199163213Y-62595506D01*
X199104248Y-62705820D01*
X199067938Y-62825518D01*
X199055678Y-62950000D01*
X199055678Y-64050000D01*
X199067938Y-64174482D01*
X199104248Y-64294180D01*
X199163213Y-64404494D01*
X199242565Y-64501185D01*
X199339256Y-64580537D01*
X199449570Y-64639502D01*
X199569268Y-64675812D01*
X199693750Y-64688072D01*
X201493750Y-64688072D01*
X201618232Y-64675812D01*
X201737930Y-64639502D01*
X201805001Y-64603651D01*
X201805001Y-78805000D01*
X186253358Y-78805000D01*
X186227943Y-78779585D01*
X186452446Y-78779585D01*
X186747537Y-78488838D01*
X186826890Y-78392147D01*
X186885854Y-78281832D01*
X186922164Y-78162134D01*
X186930288Y-78079646D01*
X187051994Y-78067658D01*
X187171692Y-78031349D01*
X187282006Y-77972385D01*
X187378697Y-77893032D01*
X187669444Y-77597941D01*
X187669444Y-77373434D01*
X186998223Y-76702213D01*
X186256291Y-77444145D01*
X186256291Y-77567890D01*
X185636268Y-78187913D01*
X185650411Y-78202056D01*
X185470806Y-78381661D01*
X185456663Y-78367518D01*
X185442521Y-78381661D01*
X185262916Y-78202056D01*
X185277058Y-78187913D01*
X185262916Y-78173771D01*
X185442521Y-77994166D01*
X185456663Y-78008308D01*
X186198595Y-77266376D01*
X186198595Y-77142631D01*
X186818618Y-76522608D01*
X186804476Y-76508466D01*
X186984081Y-76328861D01*
X186998223Y-76343003D01*
X187012366Y-76328861D01*
X187191971Y-76508466D01*
X187177828Y-76522608D01*
X187849049Y-77193829D01*
X188073556Y-77193829D01*
X188368647Y-76903082D01*
X188448000Y-76806391D01*
X188506964Y-76696077D01*
X188543273Y-76576379D01*
X188549043Y-76517794D01*
X188607629Y-76512024D01*
X188727327Y-76475714D01*
X188837641Y-76416749D01*
X188934332Y-76337397D01*
X189924282Y-75347447D01*
X190003634Y-75250756D01*
X190062599Y-75140442D01*
X190098909Y-75020744D01*
X190111169Y-74896262D01*
X190101589Y-74798991D01*
X190240938Y-74785266D01*
X190406362Y-74735085D01*
X190558817Y-74653596D01*
X190692445Y-74543930D01*
X191337680Y-73898695D01*
X191447346Y-73765067D01*
X191528835Y-73612612D01*
X191579016Y-73447188D01*
X191595960Y-73275153D01*
X191579016Y-73103118D01*
X191528835Y-72937694D01*
X191447346Y-72785239D01*
X191337680Y-72651611D01*
X191110000Y-72423931D01*
X191110000Y-72143988D01*
X191113676Y-72106665D01*
X191110000Y-72069342D01*
X191110000Y-72069333D01*
X191099003Y-71957680D01*
X191055546Y-71814419D01*
X190984974Y-71682390D01*
X190890001Y-71566665D01*
X190861003Y-71542867D01*
X189285501Y-69967366D01*
X189261698Y-69938362D01*
X189145973Y-69843389D01*
X189013944Y-69772817D01*
X189000291Y-69768675D01*
X190308132Y-68460835D01*
X190503310Y-68460835D01*
X191094982Y-67869163D01*
X191080840Y-67855021D01*
X191260445Y-67675416D01*
X191274587Y-67689558D01*
X191288730Y-67675416D01*
X191468335Y-67855021D01*
X191454192Y-67869163D01*
X191468335Y-67883306D01*
X191288730Y-68062911D01*
X191274587Y-68048768D01*
X190682915Y-68640440D01*
X190682915Y-68864946D01*
X190973662Y-69160037D01*
X190989053Y-69172668D01*
X190942274Y-69285602D01*
X190902500Y-69485561D01*
X190902500Y-69689439D01*
X190942274Y-69889398D01*
X191020295Y-70077756D01*
X191133563Y-70247274D01*
X191277726Y-70391437D01*
X191447244Y-70504705D01*
X191635602Y-70582726D01*
X191835561Y-70622500D01*
X192039439Y-70622500D01*
X192239398Y-70582726D01*
X192427756Y-70504705D01*
X192597274Y-70391437D01*
X192741437Y-70247274D01*
X192854705Y-70077756D01*
X192932726Y-69889398D01*
X192964928Y-69727505D01*
X193155457Y-69536977D01*
X193186954Y-69511128D01*
X193212802Y-69479632D01*
X193212805Y-69479629D01*
X193290112Y-69385430D01*
X193366766Y-69242021D01*
X193372564Y-69222907D01*
X193413969Y-69086413D01*
X193425913Y-68965140D01*
X193425913Y-68965138D01*
X193429907Y-68924587D01*
X193425913Y-68884037D01*
X193425913Y-67610156D01*
X193685287Y-67350782D01*
X193820749Y-67309690D01*
X193964157Y-67233036D01*
X194089856Y-67129878D01*
X194115713Y-67098371D01*
X196239290Y-64974795D01*
X196270792Y-64948942D01*
X196338771Y-64866109D01*
X196373950Y-64823244D01*
X196407732Y-64760042D01*
X196450604Y-64679835D01*
X196497807Y-64524227D01*
X196509751Y-64402954D01*
X196509751Y-64402952D01*
X196513745Y-64362402D01*
X196509751Y-64321851D01*
X196509751Y-62678149D01*
X196513745Y-62637598D01*
X196507539Y-62574587D01*
X196497807Y-62475773D01*
X196450604Y-62320165D01*
X196439743Y-62299846D01*
X196373950Y-62176756D01*
X196302541Y-62089745D01*
X196270792Y-62051058D01*
X196239291Y-62025206D01*
X195356030Y-61141946D01*
X195330173Y-61110439D01*
X195204474Y-61007281D01*
X195168537Y-60988072D01*
X195293750Y-60988072D01*
X195418232Y-60975812D01*
X195537930Y-60939502D01*
X195648244Y-60880537D01*
X195744935Y-60801185D01*
X195824287Y-60704494D01*
X195883252Y-60594180D01*
X195919562Y-60474482D01*
X195931822Y-60350000D01*
X199055678Y-60350000D01*
X199067938Y-60474482D01*
X199104248Y-60594180D01*
X199163213Y-60704494D01*
X199242565Y-60801185D01*
X199339256Y-60880537D01*
X199449570Y-60939502D01*
X199569268Y-60975812D01*
X199693750Y-60988072D01*
X200308000Y-60985000D01*
X200466750Y-60826250D01*
X200466750Y-59927000D01*
X199217500Y-59927000D01*
X199058750Y-60085750D01*
X199055678Y-60350000D01*
X195931822Y-60350000D01*
X195931822Y-59250000D01*
X199055678Y-59250000D01*
X199058750Y-59514250D01*
X199217500Y-59673000D01*
X200466750Y-59673000D01*
X200466750Y-58773750D01*
X200308000Y-58615000D01*
X199693750Y-58611928D01*
X199569268Y-58624188D01*
X199449570Y-58660498D01*
X199339256Y-58719463D01*
X199242565Y-58798815D01*
X199163213Y-58895506D01*
X199104248Y-59005820D01*
X199067938Y-59125518D01*
X199055678Y-59250000D01*
X195931822Y-59250000D01*
X195919562Y-59125518D01*
X195883252Y-59005820D01*
X195824287Y-58895506D01*
X195744935Y-58798815D01*
X195648244Y-58719463D01*
X195537930Y-58660498D01*
X195418232Y-58624188D01*
X195293750Y-58611928D01*
X193493750Y-58611928D01*
X193369268Y-58624188D01*
X193249570Y-58660498D01*
X193139256Y-58719463D01*
X193042565Y-58798815D01*
X192963213Y-58895506D01*
X192904248Y-59005820D01*
X192867938Y-59125518D01*
X192855678Y-59250000D01*
X192855678Y-60350000D01*
X192867938Y-60474482D01*
X192904248Y-60594180D01*
X192963213Y-60704494D01*
X193042565Y-60801185D01*
X193128220Y-60871480D01*
X188108645Y-60871480D01*
X188312680Y-60667445D01*
X188422346Y-60533817D01*
X188503835Y-60381362D01*
X188554016Y-60215938D01*
X188570960Y-60043903D01*
X188554016Y-59871868D01*
X188503835Y-59706444D01*
X188422346Y-59553989D01*
X188312680Y-59420361D01*
X187967965Y-59075646D01*
X187834337Y-58965980D01*
X187681882Y-58884491D01*
X187516458Y-58834310D01*
X187344423Y-58817366D01*
X187336240Y-58818172D01*
X187346098Y-58718077D01*
X187333838Y-58593596D01*
X187297528Y-58473897D01*
X187238564Y-58363583D01*
X187159211Y-58266892D01*
X187014380Y-58126405D01*
X186789874Y-58126405D01*
X186047942Y-58868337D01*
X186062085Y-58882480D01*
X185882480Y-59062085D01*
X185868337Y-59047942D01*
X185126405Y-59789874D01*
X185126405Y-60014380D01*
X185266892Y-60159211D01*
X185363583Y-60238564D01*
X185473897Y-60297528D01*
X185593596Y-60333838D01*
X185718077Y-60346098D01*
X185818172Y-60336240D01*
X185817366Y-60344423D01*
X185818802Y-60359000D01*
X185774822Y-60359000D01*
X185737499Y-60355324D01*
X185700177Y-60359000D01*
X185700167Y-60359000D01*
X185588514Y-60369997D01*
X185445253Y-60413454D01*
X185313223Y-60484026D01*
X185273705Y-60516458D01*
X185197499Y-60578999D01*
X185173701Y-60607997D01*
X184757339Y-61024359D01*
X184694590Y-61030539D01*
X184705994Y-60914744D01*
X184693866Y-60791607D01*
X184704178Y-60686913D01*
X184704178Y-60686903D01*
X184707854Y-60649580D01*
X184704178Y-60612257D01*
X184704178Y-59592696D01*
X184722294Y-59610269D01*
X184946800Y-59610269D01*
X185688732Y-58868337D01*
X185097060Y-58276665D01*
X184872554Y-58276665D01*
X184704178Y-58442562D01*
X184704178Y-57872554D01*
X185276665Y-57872554D01*
X185276665Y-58097060D01*
X185868337Y-58688732D01*
X186610269Y-57946800D01*
X186610269Y-57722294D01*
X186469782Y-57577463D01*
X186373091Y-57498110D01*
X186262777Y-57439146D01*
X186143078Y-57402836D01*
X186018597Y-57390576D01*
X185894116Y-57402836D01*
X185774418Y-57439146D01*
X185664103Y-57498110D01*
X185567412Y-57577463D01*
X185276665Y-57872554D01*
X184704178Y-57872554D01*
X184704178Y-57662751D01*
X184707854Y-57625428D01*
X184704178Y-57588105D01*
X184704178Y-57588095D01*
X184693181Y-57476442D01*
X184649724Y-57333181D01*
X184579152Y-57201152D01*
X184484179Y-57085427D01*
X184455182Y-57061630D01*
X182438709Y-55045157D01*
X185698223Y-55045157D01*
X185700000Y-55105745D01*
X185700000Y-55253345D01*
X185705078Y-55278872D01*
X185705840Y-55304862D01*
X185738840Y-55448606D01*
X185767636Y-55593373D01*
X185777594Y-55617414D01*
X185783413Y-55642761D01*
X185843820Y-55777298D01*
X185900308Y-55913673D01*
X185914770Y-55935317D01*
X185925419Y-55959034D01*
X186010904Y-56079191D01*
X186092919Y-56201935D01*
X186111322Y-56220338D01*
X186126396Y-56241526D01*
X186233689Y-56342705D01*
X186338065Y-56447081D01*
X186359706Y-56461541D01*
X186378624Y-56479381D01*
X186503593Y-56557684D01*
X186626327Y-56639692D01*
X186650372Y-56649652D01*
X186672408Y-56663459D01*
X186810260Y-56715879D01*
X186946627Y-56772364D01*
X186972154Y-56777442D01*
X186996459Y-56786684D01*
X187141892Y-56811205D01*
X187286655Y-56840000D01*
X187312677Y-56840000D01*
X187338323Y-56844324D01*
X187485749Y-56840000D01*
X187633345Y-56840000D01*
X187658872Y-56834922D01*
X187684862Y-56834160D01*
X187828606Y-56801160D01*
X187973373Y-56772364D01*
X187997414Y-56762406D01*
X188022761Y-56756587D01*
X188157298Y-56696180D01*
X188293673Y-56639692D01*
X188315317Y-56625230D01*
X188339034Y-56614581D01*
X188459191Y-56529096D01*
X188581935Y-56447081D01*
X188600338Y-56428678D01*
X188621526Y-56413604D01*
X188671250Y-56360875D01*
X188671250Y-56458189D01*
X188711024Y-56658148D01*
X188789045Y-56846506D01*
X188902313Y-57016024D01*
X189046476Y-57160187D01*
X189215994Y-57273455D01*
X189404352Y-57351476D01*
X189604311Y-57391250D01*
X189808189Y-57391250D01*
X190008148Y-57351476D01*
X190196506Y-57273455D01*
X190366024Y-57160187D01*
X190510187Y-57016024D01*
X190623455Y-56846506D01*
X190701476Y-56658148D01*
X190741250Y-56458189D01*
X190741250Y-56396051D01*
X191610306Y-55526995D01*
X191633824Y-55537974D01*
X191666327Y-55559692D01*
X191790647Y-55611187D01*
X191912554Y-55668099D01*
X191950514Y-55677405D01*
X191986627Y-55692364D01*
X192118612Y-55718618D01*
X192249272Y-55750651D01*
X192288311Y-55752373D01*
X192326655Y-55760000D01*
X192461241Y-55760000D01*
X192595624Y-55765927D01*
X192634246Y-55760000D01*
X192673345Y-55760000D01*
X192805359Y-55733741D01*
X192938302Y-55713339D01*
X192975022Y-55699993D01*
X193013373Y-55692364D01*
X193137734Y-55640852D01*
X193264137Y-55594909D01*
X193297545Y-55574656D01*
X193333673Y-55559692D01*
X193445606Y-55484901D01*
X193560605Y-55415187D01*
X193589419Y-55388808D01*
X193621935Y-55367081D01*
X193717124Y-55271892D01*
X193752241Y-55239742D01*
X193778153Y-55210863D01*
X193867081Y-55121935D01*
X193893729Y-55082053D01*
X195177716Y-53651048D01*
X195331442Y-53441587D01*
X195478099Y-53127445D01*
X195560651Y-52790727D01*
X195575927Y-52444374D01*
X195523339Y-52101696D01*
X195404909Y-51775861D01*
X195242125Y-51507334D01*
X195520451Y-51451971D01*
X195795253Y-51338144D01*
X196042569Y-51172893D01*
X196252893Y-50962569D01*
X196418144Y-50715253D01*
X196531971Y-50440451D01*
X196590000Y-50148722D01*
X196590000Y-49851278D01*
X196531971Y-49559549D01*
X196418144Y-49284747D01*
X196252893Y-49037431D01*
X196042569Y-48827107D01*
X195795253Y-48661856D01*
X195520451Y-48548029D01*
X195228722Y-48490000D01*
X194931278Y-48490000D01*
X194639549Y-48548029D01*
X194364747Y-48661856D01*
X194117431Y-48827107D01*
X193907107Y-49037431D01*
X193741856Y-49284747D01*
X193628029Y-49559549D01*
X193570000Y-49851278D01*
X193570000Y-50148722D01*
X193628029Y-50440451D01*
X193741856Y-50715253D01*
X193783186Y-50777108D01*
X193714373Y-50774073D01*
X193371695Y-50826661D01*
X193045861Y-50945091D01*
X192749392Y-51124813D01*
X192557756Y-51300258D01*
X191221808Y-52789176D01*
X191132919Y-52878065D01*
X191058166Y-52989941D01*
X190978556Y-53098414D01*
X190962023Y-53133829D01*
X190940308Y-53166327D01*
X190888822Y-53290627D01*
X190831899Y-53412556D01*
X190822591Y-53450523D01*
X190807636Y-53486627D01*
X190781389Y-53618579D01*
X190749347Y-53749274D01*
X190747625Y-53788323D01*
X190740000Y-53826655D01*
X190740000Y-53961198D01*
X190734071Y-54095626D01*
X190740000Y-54134261D01*
X190740000Y-54173345D01*
X190752336Y-54235362D01*
X189666449Y-55321250D01*
X189604311Y-55321250D01*
X189404352Y-55361024D01*
X189215994Y-55439045D01*
X189180279Y-55462909D01*
X189191205Y-55398108D01*
X189220000Y-55253345D01*
X189220000Y-55140613D01*
X189261777Y-54534844D01*
X189254160Y-54275137D01*
X189176587Y-53937238D01*
X189034581Y-53620966D01*
X188833604Y-53338474D01*
X188581376Y-53100619D01*
X188287592Y-52916541D01*
X188220000Y-52890838D01*
X188220000Y-51937826D01*
X188324174Y-52042000D01*
X188754749Y-52329701D01*
X189233178Y-52527873D01*
X189741076Y-52628900D01*
X190258924Y-52628900D01*
X190766822Y-52527873D01*
X191245251Y-52329701D01*
X191675826Y-52042000D01*
X192042000Y-51675826D01*
X192329701Y-51245251D01*
X192527873Y-50766822D01*
X192628900Y-50258924D01*
X192628900Y-49741076D01*
X192527873Y-49233178D01*
X192329701Y-48754749D01*
X192042000Y-48324174D01*
X191675826Y-47958000D01*
X191245251Y-47670299D01*
X190766822Y-47472127D01*
X190258924Y-47371100D01*
X189741076Y-47371100D01*
X189233178Y-47472127D01*
X188754749Y-47670299D01*
X188324174Y-47958000D01*
X188220000Y-48062174D01*
X188220000Y-43554311D01*
X191052500Y-43554311D01*
X191052500Y-43758189D01*
X191092274Y-43958148D01*
X191170295Y-44146506D01*
X191283563Y-44316024D01*
X191427726Y-44460187D01*
X191597244Y-44573455D01*
X191785602Y-44651476D01*
X191985561Y-44691250D01*
X192189439Y-44691250D01*
X192389398Y-44651476D01*
X192577756Y-44573455D01*
X192747274Y-44460187D01*
X192891437Y-44316024D01*
X193004705Y-44146506D01*
X193082726Y-43958148D01*
X193122500Y-43758189D01*
X193122500Y-43554311D01*
X193082726Y-43354352D01*
X193004705Y-43165994D01*
X193001290Y-43160883D01*
X193051185Y-43119935D01*
X193130537Y-43023244D01*
X193189502Y-42912930D01*
X193225812Y-42793232D01*
X193238072Y-42668750D01*
X193238072Y-41468750D01*
X193225812Y-41344268D01*
X193189502Y-41224570D01*
X193130537Y-41114256D01*
X193051185Y-41017565D01*
X192954494Y-40938213D01*
X192844180Y-40879248D01*
X192724482Y-40842938D01*
X192600000Y-40830678D01*
X191700000Y-40830678D01*
X191575518Y-40842938D01*
X191455820Y-40879248D01*
X191345506Y-40938213D01*
X191248815Y-41017565D01*
X191169463Y-41114256D01*
X191110498Y-41224570D01*
X191074188Y-41344268D01*
X191061928Y-41468750D01*
X191061928Y-42668750D01*
X191074188Y-42793232D01*
X191110498Y-42912930D01*
X191169463Y-43023244D01*
X191222498Y-43087867D01*
X191170295Y-43165994D01*
X191092274Y-43354352D01*
X191052500Y-43554311D01*
X188220000Y-43554311D01*
X188220000Y-43277721D01*
X188275518Y-43294562D01*
X188400000Y-43306822D01*
X189300000Y-43306822D01*
X189424482Y-43294562D01*
X189544180Y-43258252D01*
X189654494Y-43199287D01*
X189751185Y-43119935D01*
X189830537Y-43023244D01*
X189889502Y-42912930D01*
X189925812Y-42793232D01*
X189938072Y-42668750D01*
X189938072Y-41468750D01*
X189925812Y-41344268D01*
X189889502Y-41224570D01*
X189830537Y-41114256D01*
X189751185Y-41017565D01*
X189654494Y-40938213D01*
X189544180Y-40879248D01*
X189424482Y-40842938D01*
X189300000Y-40830678D01*
X188400000Y-40830678D01*
X188275518Y-40842938D01*
X188155820Y-40879248D01*
X188045506Y-40938213D01*
X187948815Y-41017565D01*
X187869463Y-41114256D01*
X187810498Y-41224570D01*
X187774188Y-41344268D01*
X187767576Y-41411405D01*
X187725724Y-41433776D01*
X187609999Y-41528749D01*
X187586201Y-41557748D01*
X186949002Y-42194947D01*
X186919999Y-42218749D01*
X186872607Y-42276497D01*
X186825026Y-42334474D01*
X186783320Y-42412500D01*
X186754454Y-42466504D01*
X186710997Y-42609765D01*
X186700000Y-42721418D01*
X186700000Y-42721428D01*
X186696324Y-42758750D01*
X186700000Y-42796072D01*
X186700001Y-52929932D01*
X186620966Y-52965418D01*
X186338474Y-53166396D01*
X186100619Y-53418623D01*
X185916541Y-53712408D01*
X185793316Y-54036458D01*
X185750119Y-54292660D01*
X185711901Y-54846825D01*
X185700000Y-54906655D01*
X185700000Y-55019390D01*
X185698223Y-55045157D01*
X182438709Y-55045157D01*
X181585000Y-54191449D01*
X181585000Y-52366250D01*
X181720689Y-52366250D01*
X181920648Y-52326476D01*
X182109006Y-52248455D01*
X182278524Y-52135187D01*
X182422687Y-51991024D01*
X182535955Y-51821506D01*
X182613976Y-51633148D01*
X182653750Y-51433189D01*
X182653750Y-51229311D01*
X182613976Y-51029352D01*
X182535955Y-50840994D01*
X182444250Y-50703747D01*
X182444250Y-49851278D01*
X183410000Y-49851278D01*
X183410000Y-50148722D01*
X183468029Y-50440451D01*
X183581856Y-50715253D01*
X183747107Y-50962569D01*
X183957431Y-51172893D01*
X184204747Y-51338144D01*
X184479549Y-51451971D01*
X184771278Y-51510000D01*
X185068722Y-51510000D01*
X185360451Y-51451971D01*
X185635253Y-51338144D01*
X185882569Y-51172893D01*
X186092893Y-50962569D01*
X186258144Y-50715253D01*
X186371971Y-50440451D01*
X186430000Y-50148722D01*
X186430000Y-49851278D01*
X186371971Y-49559549D01*
X186258144Y-49284747D01*
X186092893Y-49037431D01*
X185882569Y-48827107D01*
X185635253Y-48661856D01*
X185360451Y-48548029D01*
X185068722Y-48490000D01*
X184771278Y-48490000D01*
X184479549Y-48548029D01*
X184204747Y-48661856D01*
X183957431Y-48827107D01*
X183747107Y-49037431D01*
X183581856Y-49284747D01*
X183468029Y-49559549D01*
X183410000Y-49851278D01*
X182444250Y-49851278D01*
X182444250Y-47516932D01*
X183110611Y-46850572D01*
X183831250Y-46850572D01*
X184004504Y-46833508D01*
X184171100Y-46782972D01*
X184324636Y-46700905D01*
X184459212Y-46590462D01*
X184569655Y-46455886D01*
X184651722Y-46302350D01*
X184702258Y-46135754D01*
X184719322Y-45962500D01*
X184719322Y-45212500D01*
X184702258Y-45039246D01*
X184651722Y-44872650D01*
X184569655Y-44719114D01*
X184459212Y-44584538D01*
X184324636Y-44474095D01*
X184171100Y-44392028D01*
X184004504Y-44341492D01*
X183831250Y-44324428D01*
X182581250Y-44324428D01*
X182407996Y-44341492D01*
X182241400Y-44392028D01*
X182087864Y-44474095D01*
X182067588Y-44490735D01*
X182014458Y-44391336D01*
X181904792Y-44257708D01*
X181819244Y-44187500D01*
X181904792Y-44117292D01*
X182014458Y-43983664D01*
X182067588Y-43884265D01*
X182087864Y-43900905D01*
X182241400Y-43982972D01*
X182407996Y-44033508D01*
X182581250Y-44050572D01*
X183831250Y-44050572D01*
X184004504Y-44033508D01*
X184171100Y-43982972D01*
X184324636Y-43900905D01*
X184459212Y-43790462D01*
X184569655Y-43655886D01*
X184651722Y-43502350D01*
X184702258Y-43335754D01*
X184719322Y-43162500D01*
X184719322Y-42412500D01*
X184702258Y-42239246D01*
X184651722Y-42072650D01*
X184569655Y-41919114D01*
X184459212Y-41784538D01*
X184324636Y-41674095D01*
X184171100Y-41592028D01*
X184004504Y-41541492D01*
X183831250Y-41524428D01*
X183017980Y-41524428D01*
X182374417Y-40880866D01*
X182420752Y-40794180D01*
X182457062Y-40674482D01*
X182469322Y-40550000D01*
X182469322Y-39000000D01*
X182457062Y-38875518D01*
X182420752Y-38755820D01*
X182361787Y-38645506D01*
X182282435Y-38548815D01*
X182185744Y-38469463D01*
X182075430Y-38410498D01*
X181955732Y-38374188D01*
X181831250Y-38361928D01*
X181231250Y-38361928D01*
X181106768Y-38374188D01*
X181031250Y-38397096D01*
X180955732Y-38374188D01*
X180831250Y-38361928D01*
X180231250Y-38361928D01*
X180106768Y-38374188D01*
X180031250Y-38397096D01*
X179955732Y-38374188D01*
X179831250Y-38361928D01*
X179231250Y-38361928D01*
X179106768Y-38374188D01*
X179031250Y-38397096D01*
X178955732Y-38374188D01*
X178831250Y-38361928D01*
X178817000Y-38365000D01*
X178658250Y-38523750D01*
X178658250Y-38724947D01*
X178641748Y-38755820D01*
X178605438Y-38875518D01*
X178593178Y-39000000D01*
X178593178Y-40550000D01*
X178605438Y-40674482D01*
X178641748Y-40794180D01*
X178658250Y-40825053D01*
X178658250Y-41026250D01*
X178771251Y-41139251D01*
X178771251Y-41847697D01*
X178494520Y-42124428D01*
X177987500Y-42124428D01*
X177815465Y-42141372D01*
X177650041Y-42191553D01*
X177497586Y-42273042D01*
X177363958Y-42382708D01*
X177254292Y-42516336D01*
X177172803Y-42668791D01*
X177122622Y-42834215D01*
X177105678Y-43006250D01*
X177105678Y-43493750D01*
X177122622Y-43665785D01*
X177172803Y-43831209D01*
X177254292Y-43983664D01*
X177363958Y-44117292D01*
X177449506Y-44187500D01*
X177363958Y-44257708D01*
X177254292Y-44391336D01*
X177172803Y-44543791D01*
X177122622Y-44709215D01*
X177105678Y-44881250D01*
X177105678Y-45368750D01*
X177122622Y-45540785D01*
X177172803Y-45706209D01*
X177254292Y-45858664D01*
X177363958Y-45992292D01*
X177497586Y-46101958D01*
X177650041Y-46183447D01*
X177815465Y-46233628D01*
X177987500Y-46250572D01*
X178494521Y-46250572D01*
X179271251Y-47027303D01*
X179271250Y-53087991D01*
X179247687Y-53052726D01*
X179103524Y-52908563D01*
X178934006Y-52795295D01*
X178745648Y-52717274D01*
X178545689Y-52677500D01*
X178341811Y-52677500D01*
X178141852Y-52717274D01*
X177953494Y-52795295D01*
X177783976Y-52908563D01*
X177639813Y-53052726D01*
X177526545Y-53222244D01*
X177448524Y-53410602D01*
X177408750Y-53610561D01*
X177408750Y-53814439D01*
X177448524Y-54014398D01*
X177526545Y-54202756D01*
X177639813Y-54372274D01*
X177783976Y-54516437D01*
X177953494Y-54629705D01*
X178141852Y-54707726D01*
X178303746Y-54739929D01*
X181787892Y-58224076D01*
X181737778Y-58239278D01*
X181627464Y-58298243D01*
X181530773Y-58377595D01*
X180470113Y-59438255D01*
X180444000Y-59470074D01*
X180417887Y-59438255D01*
X179357227Y-58377595D01*
X179260536Y-58298243D01*
X179150222Y-58239278D01*
X179097921Y-58223413D01*
X178890661Y-58016152D01*
X178895960Y-57962347D01*
X178879016Y-57790312D01*
X178828835Y-57624888D01*
X178747346Y-57472433D01*
X178637680Y-57338805D01*
X177992445Y-56693570D01*
X177858817Y-56583904D01*
X177706362Y-56502415D01*
X177609092Y-56472908D01*
X177089928Y-55953746D01*
X177057726Y-55791852D01*
X176979705Y-55603494D01*
X176866437Y-55433976D01*
X176722274Y-55289813D01*
X176552756Y-55176545D01*
X176364398Y-55098524D01*
X176164439Y-55058750D01*
X175960561Y-55058750D01*
X175760602Y-55098524D01*
X175572244Y-55176545D01*
X175402726Y-55289813D01*
X175258563Y-55433976D01*
X175145295Y-55603494D01*
X175067274Y-55791852D01*
X175027500Y-55991811D01*
X175027500Y-56195689D01*
X175067274Y-56395648D01*
X175145295Y-56584006D01*
X175258563Y-56753524D01*
X175402726Y-56897687D01*
X175572244Y-57010955D01*
X175760602Y-57088976D01*
X175922496Y-57121178D01*
X176189986Y-57388669D01*
X176159310Y-57489792D01*
X176142366Y-57661827D01*
X176143172Y-57670010D01*
X176043077Y-57660152D01*
X175918596Y-57672412D01*
X175798897Y-57708722D01*
X175688583Y-57767686D01*
X175591892Y-57847039D01*
X175451405Y-57991870D01*
X175451405Y-58216376D01*
X176193337Y-58958308D01*
X176207480Y-58944166D01*
X176387085Y-59123771D01*
X176372942Y-59137913D01*
X176387085Y-59152056D01*
X176207480Y-59331661D01*
X176193337Y-59317518D01*
X176179195Y-59331661D01*
X175999590Y-59152056D01*
X176013732Y-59137913D01*
X175271800Y-58395981D01*
X175047294Y-58395981D01*
X174902463Y-58536468D01*
X174823110Y-58633159D01*
X174764146Y-58743473D01*
X174727836Y-58863172D01*
X174715576Y-58987653D01*
X174727836Y-59112134D01*
X174764146Y-59231832D01*
X174823110Y-59342147D01*
X174895228Y-59430022D01*
X174758976Y-59521063D01*
X174614813Y-59665226D01*
X174570000Y-59732294D01*
X174570000Y-54328348D01*
X175177716Y-53651048D01*
X175331442Y-53441587D01*
X175478099Y-53127445D01*
X175560651Y-52790727D01*
X175575927Y-52444374D01*
X175523339Y-52101696D01*
X175404909Y-51775861D01*
X175242125Y-51507334D01*
X175520451Y-51451971D01*
X175795253Y-51338144D01*
X176042569Y-51172893D01*
X176252893Y-50962569D01*
X176418144Y-50715253D01*
X176531971Y-50440451D01*
X176590000Y-50148722D01*
X176590000Y-49851278D01*
X176531971Y-49559549D01*
X176418144Y-49284747D01*
X176252893Y-49037431D01*
X176042569Y-48827107D01*
X175795253Y-48661856D01*
X175520451Y-48548029D01*
X175228722Y-48490000D01*
X174931278Y-48490000D01*
X174810846Y-48513956D01*
X175136003Y-48188799D01*
X175165001Y-48165001D01*
X175191332Y-48132917D01*
X175259974Y-48049277D01*
X175330546Y-47917247D01*
X175346486Y-47864699D01*
X175374003Y-47773986D01*
X175385000Y-47662333D01*
X175385000Y-47662324D01*
X175388676Y-47625001D01*
X175385000Y-47587678D01*
X175385000Y-42772461D01*
X175428937Y-42728524D01*
X175542205Y-42559006D01*
X175620226Y-42370648D01*
X175660000Y-42170689D01*
X175660000Y-41966811D01*
X175620226Y-41766852D01*
X175542205Y-41578494D01*
X175428937Y-41408976D01*
X175284774Y-41264813D01*
X175115256Y-41151545D01*
X174926898Y-41073524D01*
X174726939Y-41033750D01*
X174523061Y-41033750D01*
X174323102Y-41073524D01*
X174134744Y-41151545D01*
X173965226Y-41264813D01*
X173921289Y-41308750D01*
X173371288Y-41308750D01*
X173345752Y-41224570D01*
X173286787Y-41114256D01*
X173207435Y-41017565D01*
X173110744Y-40938213D01*
X173000430Y-40879248D01*
X172880732Y-40842938D01*
X172756250Y-40830678D01*
X171856250Y-40830678D01*
X171731768Y-40842938D01*
X171612070Y-40879248D01*
X171501756Y-40938213D01*
X171405065Y-41017565D01*
X171325713Y-41114256D01*
X171266748Y-41224570D01*
X171230438Y-41344268D01*
X171218178Y-41468750D01*
X171218178Y-42668750D01*
X171230438Y-42793232D01*
X171266748Y-42912930D01*
X171325713Y-43023244D01*
X171405065Y-43119935D01*
X171501756Y-43199287D01*
X171612070Y-43258252D01*
X171731768Y-43294562D01*
X171856250Y-43306822D01*
X172756250Y-43306822D01*
X172880732Y-43294562D01*
X173000430Y-43258252D01*
X173110744Y-43199287D01*
X173207435Y-43119935D01*
X173286787Y-43023244D01*
X173345752Y-42912930D01*
X173371288Y-42828750D01*
X173865000Y-42828750D01*
X173865001Y-47310197D01*
X172526503Y-48648696D01*
X172497499Y-48672499D01*
X172442371Y-48739674D01*
X172402526Y-48788224D01*
X172369308Y-48850369D01*
X172329701Y-48754749D01*
X172042000Y-48324174D01*
X171675826Y-47958000D01*
X171245251Y-47670299D01*
X170766822Y-47472127D01*
X170258924Y-47371100D01*
X169741076Y-47371100D01*
X169233178Y-47472127D01*
X168754749Y-47670299D01*
X168324174Y-47958000D01*
X168220000Y-48062174D01*
X168220000Y-43229801D01*
X168233530Y-43216271D01*
X168312070Y-43258252D01*
X168431768Y-43294562D01*
X168556250Y-43306822D01*
X169456250Y-43306822D01*
X169580732Y-43294562D01*
X169700430Y-43258252D01*
X169810744Y-43199287D01*
X169907435Y-43119935D01*
X169986787Y-43023244D01*
X170045752Y-42912930D01*
X170082062Y-42793232D01*
X170094322Y-42668750D01*
X170094322Y-41468750D01*
X170082062Y-41344268D01*
X170045752Y-41224570D01*
X169986787Y-41114256D01*
X169907435Y-41017565D01*
X169810744Y-40938213D01*
X169700430Y-40879248D01*
X169580732Y-40842938D01*
X169456250Y-40830678D01*
X168556250Y-40830678D01*
X168431768Y-40842938D01*
X168312070Y-40879248D01*
X168201756Y-40938213D01*
X168105065Y-41017565D01*
X168025713Y-41114256D01*
X167966748Y-41224570D01*
X167930438Y-41344268D01*
X167923826Y-41411405D01*
X167881974Y-41433776D01*
X167766249Y-41528749D01*
X167742451Y-41557747D01*
X166949002Y-42351197D01*
X166919999Y-42374999D01*
X166864871Y-42442174D01*
X166825026Y-42490724D01*
X166786571Y-42562668D01*
X166754454Y-42622754D01*
X166710997Y-42766015D01*
X166700000Y-42877668D01*
X166700000Y-42877678D01*
X166696324Y-42915000D01*
X166700000Y-42952322D01*
X166700001Y-52929932D01*
X166620966Y-52965418D01*
X166338474Y-53166396D01*
X166100619Y-53418623D01*
X165916541Y-53712408D01*
X165793316Y-54036458D01*
X165750119Y-54292660D01*
X165711901Y-54846825D01*
X165700000Y-54906655D01*
X165700000Y-55019390D01*
X165698223Y-55045157D01*
X165700000Y-55105745D01*
X165700000Y-55253345D01*
X165705078Y-55278872D01*
X165705840Y-55304862D01*
X165738840Y-55448606D01*
X165767636Y-55593373D01*
X165777594Y-55617414D01*
X165783413Y-55642761D01*
X165843820Y-55777298D01*
X165900308Y-55913673D01*
X165914770Y-55935317D01*
X165925419Y-55959034D01*
X166010904Y-56079191D01*
X166092919Y-56201935D01*
X166111322Y-56220338D01*
X166126396Y-56241526D01*
X166233689Y-56342705D01*
X166338065Y-56447081D01*
X166359706Y-56461541D01*
X166378624Y-56479381D01*
X166503593Y-56557684D01*
X166626327Y-56639692D01*
X166650372Y-56649652D01*
X166672408Y-56663459D01*
X166810260Y-56715879D01*
X166946627Y-56772364D01*
X166972154Y-56777442D01*
X166996459Y-56786684D01*
X167141892Y-56811205D01*
X167286655Y-56840000D01*
X167312677Y-56840000D01*
X167338323Y-56844324D01*
X167485749Y-56840000D01*
X167633345Y-56840000D01*
X167658872Y-56834922D01*
X167684862Y-56834160D01*
X167828606Y-56801160D01*
X167973373Y-56772364D01*
X167997414Y-56762406D01*
X168022761Y-56756587D01*
X168157298Y-56696180D01*
X168293673Y-56639692D01*
X168315317Y-56625230D01*
X168339034Y-56614581D01*
X168459191Y-56529096D01*
X168581935Y-56447081D01*
X168600338Y-56428678D01*
X168621526Y-56413604D01*
X168722705Y-56306311D01*
X168827081Y-56201935D01*
X168841541Y-56180294D01*
X168859381Y-56161376D01*
X168937684Y-56036407D01*
X169019692Y-55913673D01*
X169029652Y-55889628D01*
X169043459Y-55867592D01*
X169095879Y-55729740D01*
X169152364Y-55593373D01*
X169157442Y-55567846D01*
X169166684Y-55543541D01*
X169191205Y-55398108D01*
X169220000Y-55253345D01*
X169220000Y-55140613D01*
X169261777Y-54534844D01*
X169254160Y-54275137D01*
X169176587Y-53937238D01*
X169034581Y-53620966D01*
X168833604Y-53338474D01*
X168581376Y-53100619D01*
X168287592Y-52916541D01*
X168220000Y-52890838D01*
X168220000Y-51937826D01*
X168324174Y-52042000D01*
X168754749Y-52329701D01*
X169233178Y-52527873D01*
X169741076Y-52628900D01*
X170131296Y-52628900D01*
X170116249Y-52641249D01*
X170086499Y-52677500D01*
X170021276Y-52756974D01*
X169969395Y-52854036D01*
X169950704Y-52889004D01*
X169907247Y-53032265D01*
X169896250Y-53143918D01*
X169896250Y-53143928D01*
X169892574Y-53181250D01*
X169896250Y-53218573D01*
X169896251Y-58850160D01*
X169892574Y-58887492D01*
X169896251Y-58924825D01*
X169907248Y-59036478D01*
X169909059Y-59042447D01*
X169950704Y-59179738D01*
X170021276Y-59311768D01*
X170092451Y-59398494D01*
X170116250Y-59427493D01*
X170145248Y-59451291D01*
X170864001Y-60170045D01*
X172067795Y-61373839D01*
X172014731Y-61428544D01*
X172014731Y-61653050D01*
X172756663Y-62394982D01*
X172770806Y-62380840D01*
X172950411Y-62560445D01*
X172936268Y-62574587D01*
X172950411Y-62588730D01*
X172770806Y-62768335D01*
X172756663Y-62754192D01*
X172742521Y-62768335D01*
X172562916Y-62588730D01*
X172577058Y-62574587D01*
X171835126Y-61832655D01*
X171610620Y-61832655D01*
X171465789Y-61973142D01*
X171386436Y-62069833D01*
X171327472Y-62180147D01*
X171291162Y-62299846D01*
X171278902Y-62424327D01*
X171288760Y-62524422D01*
X171280577Y-62523616D01*
X171108542Y-62540560D01*
X171007419Y-62571236D01*
X170739928Y-62303746D01*
X170707726Y-62141852D01*
X170629705Y-61953494D01*
X170516437Y-61783976D01*
X170372274Y-61639813D01*
X170202756Y-61526545D01*
X170014398Y-61448524D01*
X169814439Y-61408750D01*
X169610561Y-61408750D01*
X169410602Y-61448524D01*
X169222244Y-61526545D01*
X169052726Y-61639813D01*
X168908563Y-61783976D01*
X168795295Y-61953494D01*
X168717274Y-62141852D01*
X168677500Y-62341811D01*
X168677500Y-62545689D01*
X168717274Y-62745648D01*
X168795295Y-62934006D01*
X168908563Y-63103524D01*
X169052726Y-63247687D01*
X169222244Y-63360955D01*
X169410602Y-63438976D01*
X169572496Y-63471178D01*
X170091658Y-63990342D01*
X170121165Y-64087612D01*
X170202654Y-64240067D01*
X170312320Y-64373695D01*
X170957555Y-65018930D01*
X171091183Y-65128596D01*
X171243638Y-65210085D01*
X171409062Y-65260266D01*
X171581097Y-65277210D01*
X171753132Y-65260266D01*
X171918556Y-65210085D01*
X172071011Y-65128596D01*
X172204639Y-65018930D01*
X172215391Y-65008178D01*
X172246761Y-65039548D01*
X172270778Y-65118722D01*
X172329743Y-65229036D01*
X172409095Y-65325727D01*
X173469755Y-66386387D01*
X173501574Y-66412500D01*
X173469755Y-66438613D01*
X172409095Y-67499273D01*
X172329743Y-67595964D01*
X172270778Y-67706278D01*
X172234468Y-67825976D01*
X172222208Y-67950458D01*
X172234336Y-68073595D01*
X172224024Y-68178289D01*
X172224024Y-68178300D01*
X172220348Y-68215622D01*
X172224024Y-68252944D01*
X172224024Y-68440017D01*
X172151190Y-68478947D01*
X172054499Y-68558300D01*
X171763752Y-68853391D01*
X171763752Y-69077897D01*
X172355424Y-69669569D01*
X172369567Y-69655427D01*
X172549172Y-69835032D01*
X172535029Y-69849174D01*
X172549172Y-69863317D01*
X172369567Y-70042922D01*
X172355424Y-70028779D01*
X171613492Y-70770711D01*
X171613492Y-70995217D01*
X171753979Y-71140048D01*
X171850670Y-71219401D01*
X171960984Y-71278365D01*
X172080683Y-71314675D01*
X172205164Y-71326935D01*
X172305259Y-71317077D01*
X172304453Y-71325260D01*
X172321397Y-71497295D01*
X172371578Y-71662719D01*
X172453067Y-71815174D01*
X172562733Y-71948802D01*
X172907448Y-72293517D01*
X173041076Y-72403183D01*
X173193531Y-72484672D01*
X173358955Y-72534853D01*
X173530990Y-72551797D01*
X173703025Y-72534853D01*
X173868449Y-72484672D01*
X174020904Y-72403183D01*
X174154532Y-72293517D01*
X174799767Y-71648282D01*
X174909433Y-71514654D01*
X174990922Y-71362199D01*
X175041103Y-71196775D01*
X175055729Y-71048276D01*
X175060745Y-71053292D01*
X175157436Y-71132644D01*
X175157914Y-71132899D01*
X175158170Y-71133379D01*
X175237522Y-71230070D01*
X175626430Y-71618978D01*
X175723121Y-71698330D01*
X175723601Y-71698586D01*
X175723856Y-71699064D01*
X175803208Y-71795755D01*
X176192116Y-72184663D01*
X176288807Y-72264015D01*
X176289285Y-72264270D01*
X176289541Y-72264750D01*
X176328162Y-72311810D01*
X176171562Y-72327234D01*
X176006138Y-72377415D01*
X175853683Y-72458904D01*
X175720055Y-72568570D01*
X175074820Y-73213805D01*
X174965154Y-73347433D01*
X174883665Y-73499888D01*
X174854158Y-73597158D01*
X174334996Y-74116322D01*
X174173102Y-74148524D01*
X173984744Y-74226545D01*
X173815226Y-74339813D01*
X173671063Y-74483976D01*
X173557795Y-74653494D01*
X173479774Y-74841852D01*
X173440000Y-75041811D01*
X173440000Y-75245689D01*
X173479774Y-75445648D01*
X173557795Y-75634006D01*
X173671063Y-75803524D01*
X173815226Y-75947687D01*
X173984744Y-76060955D01*
X174173102Y-76138976D01*
X174373061Y-76178750D01*
X174576939Y-76178750D01*
X174776898Y-76138976D01*
X174965256Y-76060955D01*
X175134774Y-75947687D01*
X175148011Y-75934450D01*
X176777231Y-75934450D01*
X176777231Y-76158956D01*
X176917718Y-76303787D01*
X177014409Y-76383140D01*
X177124723Y-76442104D01*
X177244422Y-76478414D01*
X177368903Y-76490674D01*
X177493384Y-76478414D01*
X177613082Y-76442104D01*
X177723397Y-76383140D01*
X177820088Y-76303787D01*
X178110835Y-76008696D01*
X178110835Y-75784190D01*
X177519163Y-75192518D01*
X176777231Y-75934450D01*
X175148011Y-75934450D01*
X175278937Y-75803524D01*
X175392205Y-75634006D01*
X175470226Y-75445648D01*
X175502428Y-75283754D01*
X175769919Y-75016264D01*
X175871042Y-75046940D01*
X176043077Y-75063884D01*
X176051260Y-75063078D01*
X176041402Y-75163173D01*
X176053662Y-75287654D01*
X176089972Y-75407353D01*
X176148936Y-75517667D01*
X176228289Y-75614358D01*
X176373120Y-75754845D01*
X176597626Y-75754845D01*
X177339558Y-75012913D01*
X177325416Y-74998771D01*
X177505021Y-74819166D01*
X177519163Y-74833308D01*
X177533306Y-74819166D01*
X177712911Y-74998771D01*
X177698768Y-75012913D01*
X178290440Y-75604585D01*
X178514946Y-75604585D01*
X178810037Y-75313838D01*
X178889390Y-75217147D01*
X178948354Y-75106832D01*
X178984664Y-74987134D01*
X178996924Y-74862653D01*
X178984664Y-74738172D01*
X178951813Y-74629877D01*
X179033674Y-74621398D01*
X179153187Y-74584485D01*
X179263203Y-74524966D01*
X179359494Y-74445128D01*
X179683329Y-74116959D01*
X179683329Y-73892453D01*
X179241918Y-73451041D01*
X179227776Y-73465184D01*
X179217927Y-73455335D01*
X179852202Y-72821059D01*
X179931554Y-72724368D01*
X179990519Y-72614054D01*
X180026829Y-72494356D01*
X180039089Y-72369874D01*
X180026829Y-72245392D01*
X180019205Y-72220259D01*
X180019205Y-72090037D01*
X179932136Y-72016468D01*
X179931554Y-72015380D01*
X179852202Y-71918689D01*
X179463294Y-71529781D01*
X179366603Y-71450429D01*
X179366125Y-71450173D01*
X179365869Y-71449695D01*
X179286517Y-71353004D01*
X178897609Y-70964096D01*
X178800918Y-70884744D01*
X178800438Y-70884488D01*
X178800183Y-70884010D01*
X178720831Y-70787319D01*
X178331923Y-70398411D01*
X178235232Y-70319059D01*
X178234754Y-70318804D01*
X178234498Y-70318324D01*
X178155146Y-70221633D01*
X177766238Y-69832725D01*
X177669547Y-69753373D01*
X177669067Y-69753117D01*
X177668812Y-69752639D01*
X177589460Y-69655948D01*
X177200552Y-69267040D01*
X177103861Y-69187688D01*
X177103383Y-69187433D01*
X177103127Y-69186953D01*
X177023775Y-69090262D01*
X176634867Y-68701354D01*
X176538176Y-68622002D01*
X176537696Y-68621746D01*
X176537441Y-68621268D01*
X176458089Y-68524577D01*
X176069181Y-68135669D01*
X175972490Y-68056317D01*
X175972012Y-68056062D01*
X175971756Y-68055582D01*
X175892404Y-67958891D01*
X175503496Y-67569983D01*
X175406805Y-67490631D01*
X175406327Y-67490375D01*
X175406071Y-67489897D01*
X175326719Y-67393206D01*
X174937811Y-67004298D01*
X174841120Y-66924946D01*
X174840640Y-66924690D01*
X174840385Y-66924212D01*
X174761033Y-66827521D01*
X174372125Y-66438613D01*
X174340306Y-66412500D01*
X174372125Y-66386387D01*
X174761033Y-65997479D01*
X174840385Y-65900788D01*
X174840965Y-65899703D01*
X174928037Y-65826132D01*
X174928037Y-65695906D01*
X174935660Y-65670776D01*
X174947920Y-65546294D01*
X174936516Y-65430500D01*
X175052311Y-65441904D01*
X175176793Y-65429644D01*
X175201926Y-65422020D01*
X175332149Y-65422020D01*
X175405718Y-65334950D01*
X175406805Y-65334369D01*
X175503496Y-65255017D01*
X175892404Y-64866109D01*
X175971756Y-64769418D01*
X175972012Y-64768938D01*
X175972490Y-64768683D01*
X176069181Y-64689331D01*
X176458089Y-64300423D01*
X176537441Y-64203732D01*
X176537696Y-64203254D01*
X176538176Y-64202998D01*
X176634867Y-64123646D01*
X177023775Y-63734738D01*
X177103127Y-63638047D01*
X177103383Y-63637567D01*
X177103861Y-63637312D01*
X177200552Y-63557960D01*
X177589460Y-63169052D01*
X177668812Y-63072361D01*
X177669067Y-63071883D01*
X177669547Y-63071627D01*
X177766238Y-62992275D01*
X178155146Y-62603367D01*
X178234498Y-62506676D01*
X178234754Y-62506196D01*
X178235232Y-62505941D01*
X178331923Y-62426589D01*
X178720831Y-62037681D01*
X178800183Y-61940990D01*
X178800438Y-61940512D01*
X178800918Y-61940256D01*
X178897609Y-61860904D01*
X179286517Y-61471996D01*
X179365869Y-61375305D01*
X179366450Y-61374218D01*
X179453520Y-61300649D01*
X179453520Y-61170426D01*
X179461144Y-61145293D01*
X179473404Y-61020811D01*
X179462000Y-60905016D01*
X179577794Y-60916420D01*
X179702276Y-60904160D01*
X179727406Y-60896537D01*
X179857632Y-60896537D01*
X179931203Y-60809465D01*
X179932288Y-60808885D01*
X180028979Y-60729533D01*
X180417887Y-60340625D01*
X180444000Y-60308806D01*
X180470113Y-60340625D01*
X180859021Y-60729533D01*
X180955712Y-60808885D01*
X180956190Y-60809140D01*
X180956446Y-60809620D01*
X181035798Y-60906311D01*
X181424706Y-61295219D01*
X181521397Y-61374571D01*
X181521875Y-61374827D01*
X181522131Y-61375305D01*
X181601483Y-61471996D01*
X181990391Y-61860904D01*
X182087082Y-61940256D01*
X182087562Y-61940512D01*
X182087817Y-61940990D01*
X182167169Y-62037681D01*
X182556077Y-62426589D01*
X182652768Y-62505941D01*
X182653853Y-62506521D01*
X182727424Y-62593593D01*
X182857650Y-62593593D01*
X182882780Y-62601216D01*
X183007262Y-62613476D01*
X183123057Y-62602072D01*
X183111653Y-62717867D01*
X183123913Y-62842349D01*
X183131536Y-62867479D01*
X183131536Y-62997705D01*
X183218608Y-63071276D01*
X183219188Y-63072361D01*
X183298540Y-63169052D01*
X183687448Y-63557960D01*
X183784139Y-63637312D01*
X183784617Y-63637567D01*
X183784873Y-63638047D01*
X183864225Y-63734738D01*
X184253133Y-64123646D01*
X184349824Y-64202998D01*
X184350304Y-64203254D01*
X184350559Y-64203732D01*
X184429911Y-64300423D01*
X184818819Y-64689331D01*
X184915510Y-64768683D01*
X184915988Y-64768938D01*
X184916244Y-64769418D01*
X184995596Y-64866109D01*
X185384504Y-65255017D01*
X185481195Y-65334369D01*
X185481673Y-65334625D01*
X185481929Y-65335103D01*
X185561281Y-65431794D01*
X185950189Y-65820702D01*
X186046880Y-65900054D01*
X186047360Y-65900310D01*
X186047615Y-65900788D01*
X186126967Y-65997479D01*
X186515875Y-66386387D01*
X186547694Y-66412500D01*
X186515875Y-66438613D01*
X186126967Y-66827521D01*
X186047615Y-66924212D01*
X186047360Y-66924690D01*
X186046880Y-66924946D01*
X185950189Y-67004298D01*
X185561281Y-67393206D01*
X185481929Y-67489897D01*
X185481673Y-67490375D01*
X185481195Y-67490631D01*
X185384504Y-67569983D01*
X184995596Y-67958891D01*
X184916244Y-68055582D01*
X184915662Y-68056670D01*
X184828593Y-68130239D01*
X184828593Y-68260461D01*
X184820969Y-68285594D01*
X184808709Y-68410076D01*
X184820113Y-68525871D01*
X184704318Y-68514467D01*
X184579836Y-68526727D01*
X184554703Y-68534351D01*
X184424481Y-68534351D01*
X184350912Y-68621420D01*
X184349824Y-68622002D01*
X184253133Y-68701354D01*
X183864225Y-69090262D01*
X183784873Y-69186953D01*
X183784617Y-69187433D01*
X183784139Y-69187688D01*
X183687448Y-69267040D01*
X183298540Y-69655948D01*
X183219188Y-69752639D01*
X183218933Y-69753117D01*
X183218453Y-69753373D01*
X183121762Y-69832725D01*
X182732854Y-70221633D01*
X182653502Y-70318324D01*
X182653246Y-70318804D01*
X182652768Y-70319059D01*
X182556077Y-70398411D01*
X182167169Y-70787319D01*
X182087817Y-70884010D01*
X182087562Y-70884488D01*
X182087082Y-70884744D01*
X181990391Y-70964096D01*
X181601483Y-71353004D01*
X181522131Y-71449695D01*
X181521875Y-71450173D01*
X181521397Y-71450429D01*
X181424706Y-71529781D01*
X181035798Y-71918689D01*
X180956446Y-72015380D01*
X180956190Y-72015860D01*
X180955712Y-72016115D01*
X180859021Y-72095467D01*
X180470113Y-72484375D01*
X180442987Y-72517428D01*
X180423317Y-72494149D01*
X180198810Y-72494149D01*
X179421523Y-73271436D01*
X179862935Y-73712847D01*
X180087441Y-73712847D01*
X180415610Y-73389012D01*
X180443936Y-73354848D01*
X180470113Y-73386745D01*
X181530773Y-74447405D01*
X181627464Y-74526757D01*
X181737778Y-74585722D01*
X181857476Y-74622032D01*
X181981958Y-74634292D01*
X182106440Y-74622032D01*
X182226138Y-74585722D01*
X182336452Y-74526757D01*
X182433143Y-74447405D01*
X182822051Y-74058497D01*
X182901403Y-73961806D01*
X182901659Y-73961326D01*
X182902137Y-73961071D01*
X182998828Y-73881719D01*
X183387736Y-73492811D01*
X183467088Y-73396120D01*
X183467344Y-73395642D01*
X183467822Y-73395386D01*
X183564513Y-73316034D01*
X183953421Y-72927126D01*
X184032773Y-72830435D01*
X184033028Y-72829957D01*
X184033508Y-72829701D01*
X184130199Y-72750349D01*
X184519107Y-72361441D01*
X184598459Y-72264750D01*
X184598715Y-72264270D01*
X184599193Y-72264015D01*
X184695884Y-72184663D01*
X184827501Y-72053046D01*
X184827500Y-74538271D01*
X184425718Y-74940053D01*
X184346366Y-75036744D01*
X184287401Y-75147058D01*
X184251091Y-75266756D01*
X184238831Y-75391238D01*
X184248411Y-75488509D01*
X184109062Y-75502234D01*
X183943638Y-75552415D01*
X183791183Y-75633904D01*
X183657555Y-75743570D01*
X183012320Y-76388805D01*
X182902654Y-76522433D01*
X182821165Y-76674888D01*
X182770984Y-76840312D01*
X182754040Y-77012347D01*
X182770984Y-77184382D01*
X182821165Y-77349806D01*
X182902654Y-77502261D01*
X183012320Y-77635889D01*
X183357035Y-77980604D01*
X183490663Y-78090270D01*
X183643118Y-78171759D01*
X183808542Y-78221940D01*
X183980577Y-78238884D01*
X183988760Y-78238078D01*
X183978902Y-78338173D01*
X183991162Y-78462654D01*
X184027472Y-78582353D01*
X184086436Y-78692667D01*
X184165789Y-78789358D01*
X184181915Y-78805000D01*
X158195000Y-78805000D01*
X158195000Y-69999434D01*
X170877663Y-69999434D01*
X170889923Y-70123915D01*
X170926233Y-70243614D01*
X170985197Y-70353928D01*
X171064550Y-70450619D01*
X171209381Y-70591106D01*
X171433887Y-70591106D01*
X172175819Y-69849174D01*
X171584147Y-69257502D01*
X171359641Y-69257502D01*
X171064550Y-69548249D01*
X170985197Y-69644940D01*
X170926233Y-69755255D01*
X170889923Y-69874953D01*
X170877663Y-69999434D01*
X158195000Y-69999434D01*
X158195000Y-49851278D01*
X163410000Y-49851278D01*
X163410000Y-50148722D01*
X163468029Y-50440451D01*
X163581856Y-50715253D01*
X163747107Y-50962569D01*
X163957431Y-51172893D01*
X164204747Y-51338144D01*
X164479549Y-51451971D01*
X164771278Y-51510000D01*
X165068722Y-51510000D01*
X165360451Y-51451971D01*
X165635253Y-51338144D01*
X165882569Y-51172893D01*
X166092893Y-50962569D01*
X166258144Y-50715253D01*
X166371971Y-50440451D01*
X166430000Y-50148722D01*
X166430000Y-49851278D01*
X166371971Y-49559549D01*
X166258144Y-49284747D01*
X166092893Y-49037431D01*
X165882569Y-48827107D01*
X165635253Y-48661856D01*
X165360451Y-48548029D01*
X165068722Y-48490000D01*
X164771278Y-48490000D01*
X164479549Y-48548029D01*
X164204747Y-48661856D01*
X163957431Y-48827107D01*
X163747107Y-49037431D01*
X163581856Y-49284747D01*
X163468029Y-49559549D01*
X163410000Y-49851278D01*
X158195000Y-49851278D01*
X158195000Y-40550000D01*
X177593178Y-40550000D01*
X177605438Y-40674482D01*
X177641748Y-40794180D01*
X177700713Y-40904494D01*
X177780065Y-41001185D01*
X177876756Y-41080537D01*
X177987070Y-41139502D01*
X178106768Y-41175812D01*
X178231250Y-41188072D01*
X178245500Y-41185000D01*
X178404250Y-41026250D01*
X178404250Y-39902000D01*
X177755000Y-39902000D01*
X177596250Y-40060750D01*
X177593178Y-40550000D01*
X158195000Y-40550000D01*
X158195000Y-39000000D01*
X177593178Y-39000000D01*
X177596250Y-39489250D01*
X177755000Y-39648000D01*
X178404250Y-39648000D01*
X178404250Y-38523750D01*
X178245500Y-38365000D01*
X178231250Y-38361928D01*
X178106768Y-38374188D01*
X177987070Y-38410498D01*
X177876756Y-38469463D01*
X177780065Y-38548815D01*
X177700713Y-38645506D01*
X177641748Y-38755820D01*
X177605438Y-38875518D01*
X177593178Y-39000000D01*
X158195000Y-39000000D01*
X158195000Y-35195000D01*
X175993178Y-35195000D01*
X175993178Y-36800000D01*
X175993178Y-36800000D01*
G37*
X175993178Y-36800000D02*
X176005438Y-36924482D01*
X176041748Y-37044180D01*
X176100713Y-37154494D01*
X176180065Y-37251185D01*
X176276756Y-37330537D01*
X176387070Y-37389502D01*
X176506768Y-37425812D01*
X176631250Y-37438072D01*
X177831250Y-37438072D01*
X177955732Y-37425812D01*
X178075430Y-37389502D01*
X178185744Y-37330537D01*
X178282435Y-37251185D01*
X178361787Y-37154494D01*
X178420752Y-37044180D01*
X178457062Y-36924482D01*
X178469322Y-36800000D01*
X178469322Y-35195000D01*
X181593178Y-35195000D01*
X181593178Y-36800000D01*
X181605438Y-36924482D01*
X181641748Y-37044180D01*
X181700713Y-37154494D01*
X181780065Y-37251185D01*
X181876756Y-37330537D01*
X181987070Y-37389502D01*
X182106768Y-37425812D01*
X182231250Y-37438072D01*
X183431250Y-37438072D01*
X183555732Y-37425812D01*
X183675430Y-37389502D01*
X183785744Y-37330537D01*
X183882435Y-37251185D01*
X183961787Y-37154494D01*
X184020752Y-37044180D01*
X184057062Y-36924482D01*
X184069322Y-36800000D01*
X184069322Y-35195000D01*
X201805000Y-35195000D01*
X201805001Y-58696349D01*
X201737930Y-58660498D01*
X201618232Y-58624188D01*
X201493750Y-58611928D01*
X200879500Y-58615000D01*
X200720750Y-58773750D01*
X200720750Y-59673000D01*
X200740750Y-59673000D01*
X200740750Y-59927000D01*
X200720750Y-59927000D01*
X200720750Y-60826250D01*
X200879500Y-60985000D01*
X201493750Y-60988072D01*
X201618232Y-60975812D01*
X201737930Y-60939502D01*
X201805001Y-60903651D01*
X201805001Y-62396349D01*
X201737930Y-62360498D01*
X201618232Y-62324188D01*
X201493750Y-62311928D01*
X199693750Y-62311928D01*
X199569268Y-62324188D01*
X199449570Y-62360498D01*
X199339256Y-62419463D01*
X199242565Y-62498815D01*
X199163213Y-62595506D01*
X199104248Y-62705820D01*
X199067938Y-62825518D01*
X199055678Y-62950000D01*
X199055678Y-64050000D01*
X199067938Y-64174482D01*
X199104248Y-64294180D01*
X199163213Y-64404494D01*
X199242565Y-64501185D01*
X199339256Y-64580537D01*
X199449570Y-64639502D01*
X199569268Y-64675812D01*
X199693750Y-64688072D01*
X201493750Y-64688072D01*
X201618232Y-64675812D01*
X201737930Y-64639502D01*
X201805001Y-64603651D01*
X201805001Y-78805000D01*
X186253358Y-78805000D01*
X186227943Y-78779585D01*
X186452446Y-78779585D01*
X186747537Y-78488838D01*
X186826890Y-78392147D01*
X186885854Y-78281832D01*
X186922164Y-78162134D01*
X186930288Y-78079646D01*
X187051994Y-78067658D01*
X187171692Y-78031349D01*
X187282006Y-77972385D01*
X187378697Y-77893032D01*
X187669444Y-77597941D01*
X187669444Y-77373434D01*
X186998223Y-76702213D01*
X186256291Y-77444145D01*
X186256291Y-77567890D01*
X185636268Y-78187913D01*
X185650411Y-78202056D01*
X185470806Y-78381661D01*
X185456663Y-78367518D01*
X185442521Y-78381661D01*
X185262916Y-78202056D01*
X185277058Y-78187913D01*
X185262916Y-78173771D01*
X185442521Y-77994166D01*
X185456663Y-78008308D01*
X186198595Y-77266376D01*
X186198595Y-77142631D01*
X186818618Y-76522608D01*
X186804476Y-76508466D01*
X186984081Y-76328861D01*
X186998223Y-76343003D01*
X187012366Y-76328861D01*
X187191971Y-76508466D01*
X187177828Y-76522608D01*
X187849049Y-77193829D01*
X188073556Y-77193829D01*
X188368647Y-76903082D01*
X188448000Y-76806391D01*
X188506964Y-76696077D01*
X188543273Y-76576379D01*
X188549043Y-76517794D01*
X188607629Y-76512024D01*
X188727327Y-76475714D01*
X188837641Y-76416749D01*
X188934332Y-76337397D01*
X189924282Y-75347447D01*
X190003634Y-75250756D01*
X190062599Y-75140442D01*
X190098909Y-75020744D01*
X190111169Y-74896262D01*
X190101589Y-74798991D01*
X190240938Y-74785266D01*
X190406362Y-74735085D01*
X190558817Y-74653596D01*
X190692445Y-74543930D01*
X191337680Y-73898695D01*
X191447346Y-73765067D01*
X191528835Y-73612612D01*
X191579016Y-73447188D01*
X191595960Y-73275153D01*
X191579016Y-73103118D01*
X191528835Y-72937694D01*
X191447346Y-72785239D01*
X191337680Y-72651611D01*
X191110000Y-72423931D01*
X191110000Y-72143988D01*
X191113676Y-72106665D01*
X191110000Y-72069342D01*
X191110000Y-72069333D01*
X191099003Y-71957680D01*
X191055546Y-71814419D01*
X190984974Y-71682390D01*
X190890001Y-71566665D01*
X190861003Y-71542867D01*
X189285501Y-69967366D01*
X189261698Y-69938362D01*
X189145973Y-69843389D01*
X189013944Y-69772817D01*
X189000291Y-69768675D01*
X190308132Y-68460835D01*
X190503310Y-68460835D01*
X191094982Y-67869163D01*
X191080840Y-67855021D01*
X191260445Y-67675416D01*
X191274587Y-67689558D01*
X191288730Y-67675416D01*
X191468335Y-67855021D01*
X191454192Y-67869163D01*
X191468335Y-67883306D01*
X191288730Y-68062911D01*
X191274587Y-68048768D01*
X190682915Y-68640440D01*
X190682915Y-68864946D01*
X190973662Y-69160037D01*
X190989053Y-69172668D01*
X190942274Y-69285602D01*
X190902500Y-69485561D01*
X190902500Y-69689439D01*
X190942274Y-69889398D01*
X191020295Y-70077756D01*
X191133563Y-70247274D01*
X191277726Y-70391437D01*
X191447244Y-70504705D01*
X191635602Y-70582726D01*
X191835561Y-70622500D01*
X192039439Y-70622500D01*
X192239398Y-70582726D01*
X192427756Y-70504705D01*
X192597274Y-70391437D01*
X192741437Y-70247274D01*
X192854705Y-70077756D01*
X192932726Y-69889398D01*
X192964928Y-69727505D01*
X193155457Y-69536977D01*
X193186954Y-69511128D01*
X193212802Y-69479632D01*
X193212805Y-69479629D01*
X193290112Y-69385430D01*
X193366766Y-69242021D01*
X193372564Y-69222907D01*
X193413969Y-69086413D01*
X193425913Y-68965140D01*
X193425913Y-68965138D01*
X193429907Y-68924587D01*
X193425913Y-68884037D01*
X193425913Y-67610156D01*
X193685287Y-67350782D01*
X193820749Y-67309690D01*
X193964157Y-67233036D01*
X194089856Y-67129878D01*
X194115713Y-67098371D01*
X196239290Y-64974795D01*
X196270792Y-64948942D01*
X196338771Y-64866109D01*
X196373950Y-64823244D01*
X196407732Y-64760042D01*
X196450604Y-64679835D01*
X196497807Y-64524227D01*
X196509751Y-64402954D01*
X196509751Y-64402952D01*
X196513745Y-64362402D01*
X196509751Y-64321851D01*
X196509751Y-62678149D01*
X196513745Y-62637598D01*
X196507539Y-62574587D01*
X196497807Y-62475773D01*
X196450604Y-62320165D01*
X196439743Y-62299846D01*
X196373950Y-62176756D01*
X196302541Y-62089745D01*
X196270792Y-62051058D01*
X196239291Y-62025206D01*
X195356030Y-61141946D01*
X195330173Y-61110439D01*
X195204474Y-61007281D01*
X195168537Y-60988072D01*
X195293750Y-60988072D01*
X195418232Y-60975812D01*
X195537930Y-60939502D01*
X195648244Y-60880537D01*
X195744935Y-60801185D01*
X195824287Y-60704494D01*
X195883252Y-60594180D01*
X195919562Y-60474482D01*
X195931822Y-60350000D01*
X199055678Y-60350000D01*
X199067938Y-60474482D01*
X199104248Y-60594180D01*
X199163213Y-60704494D01*
X199242565Y-60801185D01*
X199339256Y-60880537D01*
X199449570Y-60939502D01*
X199569268Y-60975812D01*
X199693750Y-60988072D01*
X200308000Y-60985000D01*
X200466750Y-60826250D01*
X200466750Y-59927000D01*
X199217500Y-59927000D01*
X199058750Y-60085750D01*
X199055678Y-60350000D01*
X195931822Y-60350000D01*
X195931822Y-59250000D01*
X199055678Y-59250000D01*
X199058750Y-59514250D01*
X199217500Y-59673000D01*
X200466750Y-59673000D01*
X200466750Y-58773750D01*
X200308000Y-58615000D01*
X199693750Y-58611928D01*
X199569268Y-58624188D01*
X199449570Y-58660498D01*
X199339256Y-58719463D01*
X199242565Y-58798815D01*
X199163213Y-58895506D01*
X199104248Y-59005820D01*
X199067938Y-59125518D01*
X199055678Y-59250000D01*
X195931822Y-59250000D01*
X195919562Y-59125518D01*
X195883252Y-59005820D01*
X195824287Y-58895506D01*
X195744935Y-58798815D01*
X195648244Y-58719463D01*
X195537930Y-58660498D01*
X195418232Y-58624188D01*
X195293750Y-58611928D01*
X193493750Y-58611928D01*
X193369268Y-58624188D01*
X193249570Y-58660498D01*
X193139256Y-58719463D01*
X193042565Y-58798815D01*
X192963213Y-58895506D01*
X192904248Y-59005820D01*
X192867938Y-59125518D01*
X192855678Y-59250000D01*
X192855678Y-60350000D01*
X192867938Y-60474482D01*
X192904248Y-60594180D01*
X192963213Y-60704494D01*
X193042565Y-60801185D01*
X193128220Y-60871480D01*
X188108645Y-60871480D01*
X188312680Y-60667445D01*
X188422346Y-60533817D01*
X188503835Y-60381362D01*
X188554016Y-60215938D01*
X188570960Y-60043903D01*
X188554016Y-59871868D01*
X188503835Y-59706444D01*
X188422346Y-59553989D01*
X188312680Y-59420361D01*
X187967965Y-59075646D01*
X187834337Y-58965980D01*
X187681882Y-58884491D01*
X187516458Y-58834310D01*
X187344423Y-58817366D01*
X187336240Y-58818172D01*
X187346098Y-58718077D01*
X187333838Y-58593596D01*
X187297528Y-58473897D01*
X187238564Y-58363583D01*
X187159211Y-58266892D01*
X187014380Y-58126405D01*
X186789874Y-58126405D01*
X186047942Y-58868337D01*
X186062085Y-58882480D01*
X185882480Y-59062085D01*
X185868337Y-59047942D01*
X185126405Y-59789874D01*
X185126405Y-60014380D01*
X185266892Y-60159211D01*
X185363583Y-60238564D01*
X185473897Y-60297528D01*
X185593596Y-60333838D01*
X185718077Y-60346098D01*
X185818172Y-60336240D01*
X185817366Y-60344423D01*
X185818802Y-60359000D01*
X185774822Y-60359000D01*
X185737499Y-60355324D01*
X185700177Y-60359000D01*
X185700167Y-60359000D01*
X185588514Y-60369997D01*
X185445253Y-60413454D01*
X185313223Y-60484026D01*
X185273705Y-60516458D01*
X185197499Y-60578999D01*
X185173701Y-60607997D01*
X184757339Y-61024359D01*
X184694590Y-61030539D01*
X184705994Y-60914744D01*
X184693866Y-60791607D01*
X184704178Y-60686913D01*
X184704178Y-60686903D01*
X184707854Y-60649580D01*
X184704178Y-60612257D01*
X184704178Y-59592696D01*
X184722294Y-59610269D01*
X184946800Y-59610269D01*
X185688732Y-58868337D01*
X185097060Y-58276665D01*
X184872554Y-58276665D01*
X184704178Y-58442562D01*
X184704178Y-57872554D01*
X185276665Y-57872554D01*
X185276665Y-58097060D01*
X185868337Y-58688732D01*
X186610269Y-57946800D01*
X186610269Y-57722294D01*
X186469782Y-57577463D01*
X186373091Y-57498110D01*
X186262777Y-57439146D01*
X186143078Y-57402836D01*
X186018597Y-57390576D01*
X185894116Y-57402836D01*
X185774418Y-57439146D01*
X185664103Y-57498110D01*
X185567412Y-57577463D01*
X185276665Y-57872554D01*
X184704178Y-57872554D01*
X184704178Y-57662751D01*
X184707854Y-57625428D01*
X184704178Y-57588105D01*
X184704178Y-57588095D01*
X184693181Y-57476442D01*
X184649724Y-57333181D01*
X184579152Y-57201152D01*
X184484179Y-57085427D01*
X184455182Y-57061630D01*
X182438709Y-55045157D01*
X185698223Y-55045157D01*
X185700000Y-55105745D01*
X185700000Y-55253345D01*
X185705078Y-55278872D01*
X185705840Y-55304862D01*
X185738840Y-55448606D01*
X185767636Y-55593373D01*
X185777594Y-55617414D01*
X185783413Y-55642761D01*
X185843820Y-55777298D01*
X185900308Y-55913673D01*
X185914770Y-55935317D01*
X185925419Y-55959034D01*
X186010904Y-56079191D01*
X186092919Y-56201935D01*
X186111322Y-56220338D01*
X186126396Y-56241526D01*
X186233689Y-56342705D01*
X186338065Y-56447081D01*
X186359706Y-56461541D01*
X186378624Y-56479381D01*
X186503593Y-56557684D01*
X186626327Y-56639692D01*
X186650372Y-56649652D01*
X186672408Y-56663459D01*
X186810260Y-56715879D01*
X186946627Y-56772364D01*
X186972154Y-56777442D01*
X186996459Y-56786684D01*
X187141892Y-56811205D01*
X187286655Y-56840000D01*
X187312677Y-56840000D01*
X187338323Y-56844324D01*
X187485749Y-56840000D01*
X187633345Y-56840000D01*
X187658872Y-56834922D01*
X187684862Y-56834160D01*
X187828606Y-56801160D01*
X187973373Y-56772364D01*
X187997414Y-56762406D01*
X188022761Y-56756587D01*
X188157298Y-56696180D01*
X188293673Y-56639692D01*
X188315317Y-56625230D01*
X188339034Y-56614581D01*
X188459191Y-56529096D01*
X188581935Y-56447081D01*
X188600338Y-56428678D01*
X188621526Y-56413604D01*
X188671250Y-56360875D01*
X188671250Y-56458189D01*
X188711024Y-56658148D01*
X188789045Y-56846506D01*
X188902313Y-57016024D01*
X189046476Y-57160187D01*
X189215994Y-57273455D01*
X189404352Y-57351476D01*
X189604311Y-57391250D01*
X189808189Y-57391250D01*
X190008148Y-57351476D01*
X190196506Y-57273455D01*
X190366024Y-57160187D01*
X190510187Y-57016024D01*
X190623455Y-56846506D01*
X190701476Y-56658148D01*
X190741250Y-56458189D01*
X190741250Y-56396051D01*
X191610306Y-55526995D01*
X191633824Y-55537974D01*
X191666327Y-55559692D01*
X191790647Y-55611187D01*
X191912554Y-55668099D01*
X191950514Y-55677405D01*
X191986627Y-55692364D01*
X192118612Y-55718618D01*
X192249272Y-55750651D01*
X192288311Y-55752373D01*
X192326655Y-55760000D01*
X192461241Y-55760000D01*
X192595624Y-55765927D01*
X192634246Y-55760000D01*
X192673345Y-55760000D01*
X192805359Y-55733741D01*
X192938302Y-55713339D01*
X192975022Y-55699993D01*
X193013373Y-55692364D01*
X193137734Y-55640852D01*
X193264137Y-55594909D01*
X193297545Y-55574656D01*
X193333673Y-55559692D01*
X193445606Y-55484901D01*
X193560605Y-55415187D01*
X193589419Y-55388808D01*
X193621935Y-55367081D01*
X193717124Y-55271892D01*
X193752241Y-55239742D01*
X193778153Y-55210863D01*
X193867081Y-55121935D01*
X193893729Y-55082053D01*
X195177716Y-53651048D01*
X195331442Y-53441587D01*
X195478099Y-53127445D01*
X195560651Y-52790727D01*
X195575927Y-52444374D01*
X195523339Y-52101696D01*
X195404909Y-51775861D01*
X195242125Y-51507334D01*
X195520451Y-51451971D01*
X195795253Y-51338144D01*
X196042569Y-51172893D01*
X196252893Y-50962569D01*
X196418144Y-50715253D01*
X196531971Y-50440451D01*
X196590000Y-50148722D01*
X196590000Y-49851278D01*
X196531971Y-49559549D01*
X196418144Y-49284747D01*
X196252893Y-49037431D01*
X196042569Y-48827107D01*
X195795253Y-48661856D01*
X195520451Y-48548029D01*
X195228722Y-48490000D01*
X194931278Y-48490000D01*
X194639549Y-48548029D01*
X194364747Y-48661856D01*
X194117431Y-48827107D01*
X193907107Y-49037431D01*
X193741856Y-49284747D01*
X193628029Y-49559549D01*
X193570000Y-49851278D01*
X193570000Y-50148722D01*
X193628029Y-50440451D01*
X193741856Y-50715253D01*
X193783186Y-50777108D01*
X193714373Y-50774073D01*
X193371695Y-50826661D01*
X193045861Y-50945091D01*
X192749392Y-51124813D01*
X192557756Y-51300258D01*
X191221808Y-52789176D01*
X191132919Y-52878065D01*
X191058166Y-52989941D01*
X190978556Y-53098414D01*
X190962023Y-53133829D01*
X190940308Y-53166327D01*
X190888822Y-53290627D01*
X190831899Y-53412556D01*
X190822591Y-53450523D01*
X190807636Y-53486627D01*
X190781389Y-53618579D01*
X190749347Y-53749274D01*
X190747625Y-53788323D01*
X190740000Y-53826655D01*
X190740000Y-53961198D01*
X190734071Y-54095626D01*
X190740000Y-54134261D01*
X190740000Y-54173345D01*
X190752336Y-54235362D01*
X189666449Y-55321250D01*
X189604311Y-55321250D01*
X189404352Y-55361024D01*
X189215994Y-55439045D01*
X189180279Y-55462909D01*
X189191205Y-55398108D01*
X189220000Y-55253345D01*
X189220000Y-55140613D01*
X189261777Y-54534844D01*
X189254160Y-54275137D01*
X189176587Y-53937238D01*
X189034581Y-53620966D01*
X188833604Y-53338474D01*
X188581376Y-53100619D01*
X188287592Y-52916541D01*
X188220000Y-52890838D01*
X188220000Y-51937826D01*
X188324174Y-52042000D01*
X188754749Y-52329701D01*
X189233178Y-52527873D01*
X189741076Y-52628900D01*
X190258924Y-52628900D01*
X190766822Y-52527873D01*
X191245251Y-52329701D01*
X191675826Y-52042000D01*
X192042000Y-51675826D01*
X192329701Y-51245251D01*
X192527873Y-50766822D01*
X192628900Y-50258924D01*
X192628900Y-49741076D01*
X192527873Y-49233178D01*
X192329701Y-48754749D01*
X192042000Y-48324174D01*
X191675826Y-47958000D01*
X191245251Y-47670299D01*
X190766822Y-47472127D01*
X190258924Y-47371100D01*
X189741076Y-47371100D01*
X189233178Y-47472127D01*
X188754749Y-47670299D01*
X188324174Y-47958000D01*
X188220000Y-48062174D01*
X188220000Y-43554311D01*
X191052500Y-43554311D01*
X191052500Y-43758189D01*
X191092274Y-43958148D01*
X191170295Y-44146506D01*
X191283563Y-44316024D01*
X191427726Y-44460187D01*
X191597244Y-44573455D01*
X191785602Y-44651476D01*
X191985561Y-44691250D01*
X192189439Y-44691250D01*
X192389398Y-44651476D01*
X192577756Y-44573455D01*
X192747274Y-44460187D01*
X192891437Y-44316024D01*
X193004705Y-44146506D01*
X193082726Y-43958148D01*
X193122500Y-43758189D01*
X193122500Y-43554311D01*
X193082726Y-43354352D01*
X193004705Y-43165994D01*
X193001290Y-43160883D01*
X193051185Y-43119935D01*
X193130537Y-43023244D01*
X193189502Y-42912930D01*
X193225812Y-42793232D01*
X193238072Y-42668750D01*
X193238072Y-41468750D01*
X193225812Y-41344268D01*
X193189502Y-41224570D01*
X193130537Y-41114256D01*
X193051185Y-41017565D01*
X192954494Y-40938213D01*
X192844180Y-40879248D01*
X192724482Y-40842938D01*
X192600000Y-40830678D01*
X191700000Y-40830678D01*
X191575518Y-40842938D01*
X191455820Y-40879248D01*
X191345506Y-40938213D01*
X191248815Y-41017565D01*
X191169463Y-41114256D01*
X191110498Y-41224570D01*
X191074188Y-41344268D01*
X191061928Y-41468750D01*
X191061928Y-42668750D01*
X191074188Y-42793232D01*
X191110498Y-42912930D01*
X191169463Y-43023244D01*
X191222498Y-43087867D01*
X191170295Y-43165994D01*
X191092274Y-43354352D01*
X191052500Y-43554311D01*
X188220000Y-43554311D01*
X188220000Y-43277721D01*
X188275518Y-43294562D01*
X188400000Y-43306822D01*
X189300000Y-43306822D01*
X189424482Y-43294562D01*
X189544180Y-43258252D01*
X189654494Y-43199287D01*
X189751185Y-43119935D01*
X189830537Y-43023244D01*
X189889502Y-42912930D01*
X189925812Y-42793232D01*
X189938072Y-42668750D01*
X189938072Y-41468750D01*
X189925812Y-41344268D01*
X189889502Y-41224570D01*
X189830537Y-41114256D01*
X189751185Y-41017565D01*
X189654494Y-40938213D01*
X189544180Y-40879248D01*
X189424482Y-40842938D01*
X189300000Y-40830678D01*
X188400000Y-40830678D01*
X188275518Y-40842938D01*
X188155820Y-40879248D01*
X188045506Y-40938213D01*
X187948815Y-41017565D01*
X187869463Y-41114256D01*
X187810498Y-41224570D01*
X187774188Y-41344268D01*
X187767576Y-41411405D01*
X187725724Y-41433776D01*
X187609999Y-41528749D01*
X187586201Y-41557748D01*
X186949002Y-42194947D01*
X186919999Y-42218749D01*
X186872607Y-42276497D01*
X186825026Y-42334474D01*
X186783320Y-42412500D01*
X186754454Y-42466504D01*
X186710997Y-42609765D01*
X186700000Y-42721418D01*
X186700000Y-42721428D01*
X186696324Y-42758750D01*
X186700000Y-42796072D01*
X186700001Y-52929932D01*
X186620966Y-52965418D01*
X186338474Y-53166396D01*
X186100619Y-53418623D01*
X185916541Y-53712408D01*
X185793316Y-54036458D01*
X185750119Y-54292660D01*
X185711901Y-54846825D01*
X185700000Y-54906655D01*
X185700000Y-55019390D01*
X185698223Y-55045157D01*
X182438709Y-55045157D01*
X181585000Y-54191449D01*
X181585000Y-52366250D01*
X181720689Y-52366250D01*
X181920648Y-52326476D01*
X182109006Y-52248455D01*
X182278524Y-52135187D01*
X182422687Y-51991024D01*
X182535955Y-51821506D01*
X182613976Y-51633148D01*
X182653750Y-51433189D01*
X182653750Y-51229311D01*
X182613976Y-51029352D01*
X182535955Y-50840994D01*
X182444250Y-50703747D01*
X182444250Y-49851278D01*
X183410000Y-49851278D01*
X183410000Y-50148722D01*
X183468029Y-50440451D01*
X183581856Y-50715253D01*
X183747107Y-50962569D01*
X183957431Y-51172893D01*
X184204747Y-51338144D01*
X184479549Y-51451971D01*
X184771278Y-51510000D01*
X185068722Y-51510000D01*
X185360451Y-51451971D01*
X185635253Y-51338144D01*
X185882569Y-51172893D01*
X186092893Y-50962569D01*
X186258144Y-50715253D01*
X186371971Y-50440451D01*
X186430000Y-50148722D01*
X186430000Y-49851278D01*
X186371971Y-49559549D01*
X186258144Y-49284747D01*
X186092893Y-49037431D01*
X185882569Y-48827107D01*
X185635253Y-48661856D01*
X185360451Y-48548029D01*
X185068722Y-48490000D01*
X184771278Y-48490000D01*
X184479549Y-48548029D01*
X184204747Y-48661856D01*
X183957431Y-48827107D01*
X183747107Y-49037431D01*
X183581856Y-49284747D01*
X183468029Y-49559549D01*
X183410000Y-49851278D01*
X182444250Y-49851278D01*
X182444250Y-47516932D01*
X183110611Y-46850572D01*
X183831250Y-46850572D01*
X184004504Y-46833508D01*
X184171100Y-46782972D01*
X184324636Y-46700905D01*
X184459212Y-46590462D01*
X184569655Y-46455886D01*
X184651722Y-46302350D01*
X184702258Y-46135754D01*
X184719322Y-45962500D01*
X184719322Y-45212500D01*
X184702258Y-45039246D01*
X184651722Y-44872650D01*
X184569655Y-44719114D01*
X184459212Y-44584538D01*
X184324636Y-44474095D01*
X184171100Y-44392028D01*
X184004504Y-44341492D01*
X183831250Y-44324428D01*
X182581250Y-44324428D01*
X182407996Y-44341492D01*
X182241400Y-44392028D01*
X182087864Y-44474095D01*
X182067588Y-44490735D01*
X182014458Y-44391336D01*
X181904792Y-44257708D01*
X181819244Y-44187500D01*
X181904792Y-44117292D01*
X182014458Y-43983664D01*
X182067588Y-43884265D01*
X182087864Y-43900905D01*
X182241400Y-43982972D01*
X182407996Y-44033508D01*
X182581250Y-44050572D01*
X183831250Y-44050572D01*
X184004504Y-44033508D01*
X184171100Y-43982972D01*
X184324636Y-43900905D01*
X184459212Y-43790462D01*
X184569655Y-43655886D01*
X184651722Y-43502350D01*
X184702258Y-43335754D01*
X184719322Y-43162500D01*
X184719322Y-42412500D01*
X184702258Y-42239246D01*
X184651722Y-42072650D01*
X184569655Y-41919114D01*
X184459212Y-41784538D01*
X184324636Y-41674095D01*
X184171100Y-41592028D01*
X184004504Y-41541492D01*
X183831250Y-41524428D01*
X183017980Y-41524428D01*
X182374417Y-40880866D01*
X182420752Y-40794180D01*
X182457062Y-40674482D01*
X182469322Y-40550000D01*
X182469322Y-39000000D01*
X182457062Y-38875518D01*
X182420752Y-38755820D01*
X182361787Y-38645506D01*
X182282435Y-38548815D01*
X182185744Y-38469463D01*
X182075430Y-38410498D01*
X181955732Y-38374188D01*
X181831250Y-38361928D01*
X181231250Y-38361928D01*
X181106768Y-38374188D01*
X181031250Y-38397096D01*
X180955732Y-38374188D01*
X180831250Y-38361928D01*
X180231250Y-38361928D01*
X180106768Y-38374188D01*
X180031250Y-38397096D01*
X179955732Y-38374188D01*
X179831250Y-38361928D01*
X179231250Y-38361928D01*
X179106768Y-38374188D01*
X179031250Y-38397096D01*
X178955732Y-38374188D01*
X178831250Y-38361928D01*
X178817000Y-38365000D01*
X178658250Y-38523750D01*
X178658250Y-38724947D01*
X178641748Y-38755820D01*
X178605438Y-38875518D01*
X178593178Y-39000000D01*
X178593178Y-40550000D01*
X178605438Y-40674482D01*
X178641748Y-40794180D01*
X178658250Y-40825053D01*
X178658250Y-41026250D01*
X178771251Y-41139251D01*
X178771251Y-41847697D01*
X178494520Y-42124428D01*
X177987500Y-42124428D01*
X177815465Y-42141372D01*
X177650041Y-42191553D01*
X177497586Y-42273042D01*
X177363958Y-42382708D01*
X177254292Y-42516336D01*
X177172803Y-42668791D01*
X177122622Y-42834215D01*
X177105678Y-43006250D01*
X177105678Y-43493750D01*
X177122622Y-43665785D01*
X177172803Y-43831209D01*
X177254292Y-43983664D01*
X177363958Y-44117292D01*
X177449506Y-44187500D01*
X177363958Y-44257708D01*
X177254292Y-44391336D01*
X177172803Y-44543791D01*
X177122622Y-44709215D01*
X177105678Y-44881250D01*
X177105678Y-45368750D01*
X177122622Y-45540785D01*
X177172803Y-45706209D01*
X177254292Y-45858664D01*
X177363958Y-45992292D01*
X177497586Y-46101958D01*
X177650041Y-46183447D01*
X177815465Y-46233628D01*
X177987500Y-46250572D01*
X178494521Y-46250572D01*
X179271251Y-47027303D01*
X179271250Y-53087991D01*
X179247687Y-53052726D01*
X179103524Y-52908563D01*
X178934006Y-52795295D01*
X178745648Y-52717274D01*
X178545689Y-52677500D01*
X178341811Y-52677500D01*
X178141852Y-52717274D01*
X177953494Y-52795295D01*
X177783976Y-52908563D01*
X177639813Y-53052726D01*
X177526545Y-53222244D01*
X177448524Y-53410602D01*
X177408750Y-53610561D01*
X177408750Y-53814439D01*
X177448524Y-54014398D01*
X177526545Y-54202756D01*
X177639813Y-54372274D01*
X177783976Y-54516437D01*
X177953494Y-54629705D01*
X178141852Y-54707726D01*
X178303746Y-54739929D01*
X181787892Y-58224076D01*
X181737778Y-58239278D01*
X181627464Y-58298243D01*
X181530773Y-58377595D01*
X180470113Y-59438255D01*
X180444000Y-59470074D01*
X180417887Y-59438255D01*
X179357227Y-58377595D01*
X179260536Y-58298243D01*
X179150222Y-58239278D01*
X179097921Y-58223413D01*
X178890661Y-58016152D01*
X178895960Y-57962347D01*
X178879016Y-57790312D01*
X178828835Y-57624888D01*
X178747346Y-57472433D01*
X178637680Y-57338805D01*
X177992445Y-56693570D01*
X177858817Y-56583904D01*
X177706362Y-56502415D01*
X177609092Y-56472908D01*
X177089928Y-55953746D01*
X177057726Y-55791852D01*
X176979705Y-55603494D01*
X176866437Y-55433976D01*
X176722274Y-55289813D01*
X176552756Y-55176545D01*
X176364398Y-55098524D01*
X176164439Y-55058750D01*
X175960561Y-55058750D01*
X175760602Y-55098524D01*
X175572244Y-55176545D01*
X175402726Y-55289813D01*
X175258563Y-55433976D01*
X175145295Y-55603494D01*
X175067274Y-55791852D01*
X175027500Y-55991811D01*
X175027500Y-56195689D01*
X175067274Y-56395648D01*
X175145295Y-56584006D01*
X175258563Y-56753524D01*
X175402726Y-56897687D01*
X175572244Y-57010955D01*
X175760602Y-57088976D01*
X175922496Y-57121178D01*
X176189986Y-57388669D01*
X176159310Y-57489792D01*
X176142366Y-57661827D01*
X176143172Y-57670010D01*
X176043077Y-57660152D01*
X175918596Y-57672412D01*
X175798897Y-57708722D01*
X175688583Y-57767686D01*
X175591892Y-57847039D01*
X175451405Y-57991870D01*
X175451405Y-58216376D01*
X176193337Y-58958308D01*
X176207480Y-58944166D01*
X176387085Y-59123771D01*
X176372942Y-59137913D01*
X176387085Y-59152056D01*
X176207480Y-59331661D01*
X176193337Y-59317518D01*
X176179195Y-59331661D01*
X175999590Y-59152056D01*
X176013732Y-59137913D01*
X175271800Y-58395981D01*
X175047294Y-58395981D01*
X174902463Y-58536468D01*
X174823110Y-58633159D01*
X174764146Y-58743473D01*
X174727836Y-58863172D01*
X174715576Y-58987653D01*
X174727836Y-59112134D01*
X174764146Y-59231832D01*
X174823110Y-59342147D01*
X174895228Y-59430022D01*
X174758976Y-59521063D01*
X174614813Y-59665226D01*
X174570000Y-59732294D01*
X174570000Y-54328348D01*
X175177716Y-53651048D01*
X175331442Y-53441587D01*
X175478099Y-53127445D01*
X175560651Y-52790727D01*
X175575927Y-52444374D01*
X175523339Y-52101696D01*
X175404909Y-51775861D01*
X175242125Y-51507334D01*
X175520451Y-51451971D01*
X175795253Y-51338144D01*
X176042569Y-51172893D01*
X176252893Y-50962569D01*
X176418144Y-50715253D01*
X176531971Y-50440451D01*
X176590000Y-50148722D01*
X176590000Y-49851278D01*
X176531971Y-49559549D01*
X176418144Y-49284747D01*
X176252893Y-49037431D01*
X176042569Y-48827107D01*
X175795253Y-48661856D01*
X175520451Y-48548029D01*
X175228722Y-48490000D01*
X174931278Y-48490000D01*
X174810846Y-48513956D01*
X175136003Y-48188799D01*
X175165001Y-48165001D01*
X175191332Y-48132917D01*
X175259974Y-48049277D01*
X175330546Y-47917247D01*
X175346486Y-47864699D01*
X175374003Y-47773986D01*
X175385000Y-47662333D01*
X175385000Y-47662324D01*
X175388676Y-47625001D01*
X175385000Y-47587678D01*
X175385000Y-42772461D01*
X175428937Y-42728524D01*
X175542205Y-42559006D01*
X175620226Y-42370648D01*
X175660000Y-42170689D01*
X175660000Y-41966811D01*
X175620226Y-41766852D01*
X175542205Y-41578494D01*
X175428937Y-41408976D01*
X175284774Y-41264813D01*
X175115256Y-41151545D01*
X174926898Y-41073524D01*
X174726939Y-41033750D01*
X174523061Y-41033750D01*
X174323102Y-41073524D01*
X174134744Y-41151545D01*
X173965226Y-41264813D01*
X173921289Y-41308750D01*
X173371288Y-41308750D01*
X173345752Y-41224570D01*
X173286787Y-41114256D01*
X173207435Y-41017565D01*
X173110744Y-40938213D01*
X173000430Y-40879248D01*
X172880732Y-40842938D01*
X172756250Y-40830678D01*
X171856250Y-40830678D01*
X171731768Y-40842938D01*
X171612070Y-40879248D01*
X171501756Y-40938213D01*
X171405065Y-41017565D01*
X171325713Y-41114256D01*
X171266748Y-41224570D01*
X171230438Y-41344268D01*
X171218178Y-41468750D01*
X171218178Y-42668750D01*
X171230438Y-42793232D01*
X171266748Y-42912930D01*
X171325713Y-43023244D01*
X171405065Y-43119935D01*
X171501756Y-43199287D01*
X171612070Y-43258252D01*
X171731768Y-43294562D01*
X171856250Y-43306822D01*
X172756250Y-43306822D01*
X172880732Y-43294562D01*
X173000430Y-43258252D01*
X173110744Y-43199287D01*
X173207435Y-43119935D01*
X173286787Y-43023244D01*
X173345752Y-42912930D01*
X173371288Y-42828750D01*
X173865000Y-42828750D01*
X173865001Y-47310197D01*
X172526503Y-48648696D01*
X172497499Y-48672499D01*
X172442371Y-48739674D01*
X172402526Y-48788224D01*
X172369308Y-48850369D01*
X172329701Y-48754749D01*
X172042000Y-48324174D01*
X171675826Y-47958000D01*
X171245251Y-47670299D01*
X170766822Y-47472127D01*
X170258924Y-47371100D01*
X169741076Y-47371100D01*
X169233178Y-47472127D01*
X168754749Y-47670299D01*
X168324174Y-47958000D01*
X168220000Y-48062174D01*
X168220000Y-43229801D01*
X168233530Y-43216271D01*
X168312070Y-43258252D01*
X168431768Y-43294562D01*
X168556250Y-43306822D01*
X169456250Y-43306822D01*
X169580732Y-43294562D01*
X169700430Y-43258252D01*
X169810744Y-43199287D01*
X169907435Y-43119935D01*
X169986787Y-43023244D01*
X170045752Y-42912930D01*
X170082062Y-42793232D01*
X170094322Y-42668750D01*
X170094322Y-41468750D01*
X170082062Y-41344268D01*
X170045752Y-41224570D01*
X169986787Y-41114256D01*
X169907435Y-41017565D01*
X169810744Y-40938213D01*
X169700430Y-40879248D01*
X169580732Y-40842938D01*
X169456250Y-40830678D01*
X168556250Y-40830678D01*
X168431768Y-40842938D01*
X168312070Y-40879248D01*
X168201756Y-40938213D01*
X168105065Y-41017565D01*
X168025713Y-41114256D01*
X167966748Y-41224570D01*
X167930438Y-41344268D01*
X167923826Y-41411405D01*
X167881974Y-41433776D01*
X167766249Y-41528749D01*
X167742451Y-41557747D01*
X166949002Y-42351197D01*
X166919999Y-42374999D01*
X166864871Y-42442174D01*
X166825026Y-42490724D01*
X166786571Y-42562668D01*
X166754454Y-42622754D01*
X166710997Y-42766015D01*
X166700000Y-42877668D01*
X166700000Y-42877678D01*
X166696324Y-42915000D01*
X166700000Y-42952322D01*
X166700001Y-52929932D01*
X166620966Y-52965418D01*
X166338474Y-53166396D01*
X166100619Y-53418623D01*
X165916541Y-53712408D01*
X165793316Y-54036458D01*
X165750119Y-54292660D01*
X165711901Y-54846825D01*
X165700000Y-54906655D01*
X165700000Y-55019390D01*
X165698223Y-55045157D01*
X165700000Y-55105745D01*
X165700000Y-55253345D01*
X165705078Y-55278872D01*
X165705840Y-55304862D01*
X165738840Y-55448606D01*
X165767636Y-55593373D01*
X165777594Y-55617414D01*
X165783413Y-55642761D01*
X165843820Y-55777298D01*
X165900308Y-55913673D01*
X165914770Y-55935317D01*
X165925419Y-55959034D01*
X166010904Y-56079191D01*
X166092919Y-56201935D01*
X166111322Y-56220338D01*
X166126396Y-56241526D01*
X166233689Y-56342705D01*
X166338065Y-56447081D01*
X166359706Y-56461541D01*
X166378624Y-56479381D01*
X166503593Y-56557684D01*
X166626327Y-56639692D01*
X166650372Y-56649652D01*
X166672408Y-56663459D01*
X166810260Y-56715879D01*
X166946627Y-56772364D01*
X166972154Y-56777442D01*
X166996459Y-56786684D01*
X167141892Y-56811205D01*
X167286655Y-56840000D01*
X167312677Y-56840000D01*
X167338323Y-56844324D01*
X167485749Y-56840000D01*
X167633345Y-56840000D01*
X167658872Y-56834922D01*
X167684862Y-56834160D01*
X167828606Y-56801160D01*
X167973373Y-56772364D01*
X167997414Y-56762406D01*
X168022761Y-56756587D01*
X168157298Y-56696180D01*
X168293673Y-56639692D01*
X168315317Y-56625230D01*
X168339034Y-56614581D01*
X168459191Y-56529096D01*
X168581935Y-56447081D01*
X168600338Y-56428678D01*
X168621526Y-56413604D01*
X168722705Y-56306311D01*
X168827081Y-56201935D01*
X168841541Y-56180294D01*
X168859381Y-56161376D01*
X168937684Y-56036407D01*
X169019692Y-55913673D01*
X169029652Y-55889628D01*
X169043459Y-55867592D01*
X169095879Y-55729740D01*
X169152364Y-55593373D01*
X169157442Y-55567846D01*
X169166684Y-55543541D01*
X169191205Y-55398108D01*
X169220000Y-55253345D01*
X169220000Y-55140613D01*
X169261777Y-54534844D01*
X169254160Y-54275137D01*
X169176587Y-53937238D01*
X169034581Y-53620966D01*
X168833604Y-53338474D01*
X168581376Y-53100619D01*
X168287592Y-52916541D01*
X168220000Y-52890838D01*
X168220000Y-51937826D01*
X168324174Y-52042000D01*
X168754749Y-52329701D01*
X169233178Y-52527873D01*
X169741076Y-52628900D01*
X170131296Y-52628900D01*
X170116249Y-52641249D01*
X170086499Y-52677500D01*
X170021276Y-52756974D01*
X169969395Y-52854036D01*
X169950704Y-52889004D01*
X169907247Y-53032265D01*
X169896250Y-53143918D01*
X169896250Y-53143928D01*
X169892574Y-53181250D01*
X169896250Y-53218573D01*
X169896251Y-58850160D01*
X169892574Y-58887492D01*
X169896251Y-58924825D01*
X169907248Y-59036478D01*
X169909059Y-59042447D01*
X169950704Y-59179738D01*
X170021276Y-59311768D01*
X170092451Y-59398494D01*
X170116250Y-59427493D01*
X170145248Y-59451291D01*
X170864001Y-60170045D01*
X172067795Y-61373839D01*
X172014731Y-61428544D01*
X172014731Y-61653050D01*
X172756663Y-62394982D01*
X172770806Y-62380840D01*
X172950411Y-62560445D01*
X172936268Y-62574587D01*
X172950411Y-62588730D01*
X172770806Y-62768335D01*
X172756663Y-62754192D01*
X172742521Y-62768335D01*
X172562916Y-62588730D01*
X172577058Y-62574587D01*
X171835126Y-61832655D01*
X171610620Y-61832655D01*
X171465789Y-61973142D01*
X171386436Y-62069833D01*
X171327472Y-62180147D01*
X171291162Y-62299846D01*
X171278902Y-62424327D01*
X171288760Y-62524422D01*
X171280577Y-62523616D01*
X171108542Y-62540560D01*
X171007419Y-62571236D01*
X170739928Y-62303746D01*
X170707726Y-62141852D01*
X170629705Y-61953494D01*
X170516437Y-61783976D01*
X170372274Y-61639813D01*
X170202756Y-61526545D01*
X170014398Y-61448524D01*
X169814439Y-61408750D01*
X169610561Y-61408750D01*
X169410602Y-61448524D01*
X169222244Y-61526545D01*
X169052726Y-61639813D01*
X168908563Y-61783976D01*
X168795295Y-61953494D01*
X168717274Y-62141852D01*
X168677500Y-62341811D01*
X168677500Y-62545689D01*
X168717274Y-62745648D01*
X168795295Y-62934006D01*
X168908563Y-63103524D01*
X169052726Y-63247687D01*
X169222244Y-63360955D01*
X169410602Y-63438976D01*
X169572496Y-63471178D01*
X170091658Y-63990342D01*
X170121165Y-64087612D01*
X170202654Y-64240067D01*
X170312320Y-64373695D01*
X170957555Y-65018930D01*
X171091183Y-65128596D01*
X171243638Y-65210085D01*
X171409062Y-65260266D01*
X171581097Y-65277210D01*
X171753132Y-65260266D01*
X171918556Y-65210085D01*
X172071011Y-65128596D01*
X172204639Y-65018930D01*
X172215391Y-65008178D01*
X172246761Y-65039548D01*
X172270778Y-65118722D01*
X172329743Y-65229036D01*
X172409095Y-65325727D01*
X173469755Y-66386387D01*
X173501574Y-66412500D01*
X173469755Y-66438613D01*
X172409095Y-67499273D01*
X172329743Y-67595964D01*
X172270778Y-67706278D01*
X172234468Y-67825976D01*
X172222208Y-67950458D01*
X172234336Y-68073595D01*
X172224024Y-68178289D01*
X172224024Y-68178300D01*
X172220348Y-68215622D01*
X172224024Y-68252944D01*
X172224024Y-68440017D01*
X172151190Y-68478947D01*
X172054499Y-68558300D01*
X171763752Y-68853391D01*
X171763752Y-69077897D01*
X172355424Y-69669569D01*
X172369567Y-69655427D01*
X172549172Y-69835032D01*
X172535029Y-69849174D01*
X172549172Y-69863317D01*
X172369567Y-70042922D01*
X172355424Y-70028779D01*
X171613492Y-70770711D01*
X171613492Y-70995217D01*
X171753979Y-71140048D01*
X171850670Y-71219401D01*
X171960984Y-71278365D01*
X172080683Y-71314675D01*
X172205164Y-71326935D01*
X172305259Y-71317077D01*
X172304453Y-71325260D01*
X172321397Y-71497295D01*
X172371578Y-71662719D01*
X172453067Y-71815174D01*
X172562733Y-71948802D01*
X172907448Y-72293517D01*
X173041076Y-72403183D01*
X173193531Y-72484672D01*
X173358955Y-72534853D01*
X173530990Y-72551797D01*
X173703025Y-72534853D01*
X173868449Y-72484672D01*
X174020904Y-72403183D01*
X174154532Y-72293517D01*
X174799767Y-71648282D01*
X174909433Y-71514654D01*
X174990922Y-71362199D01*
X175041103Y-71196775D01*
X175055729Y-71048276D01*
X175060745Y-71053292D01*
X175157436Y-71132644D01*
X175157914Y-71132899D01*
X175158170Y-71133379D01*
X175237522Y-71230070D01*
X175626430Y-71618978D01*
X175723121Y-71698330D01*
X175723601Y-71698586D01*
X175723856Y-71699064D01*
X175803208Y-71795755D01*
X176192116Y-72184663D01*
X176288807Y-72264015D01*
X176289285Y-72264270D01*
X176289541Y-72264750D01*
X176328162Y-72311810D01*
X176171562Y-72327234D01*
X176006138Y-72377415D01*
X175853683Y-72458904D01*
X175720055Y-72568570D01*
X175074820Y-73213805D01*
X174965154Y-73347433D01*
X174883665Y-73499888D01*
X174854158Y-73597158D01*
X174334996Y-74116322D01*
X174173102Y-74148524D01*
X173984744Y-74226545D01*
X173815226Y-74339813D01*
X173671063Y-74483976D01*
X173557795Y-74653494D01*
X173479774Y-74841852D01*
X173440000Y-75041811D01*
X173440000Y-75245689D01*
X173479774Y-75445648D01*
X173557795Y-75634006D01*
X173671063Y-75803524D01*
X173815226Y-75947687D01*
X173984744Y-76060955D01*
X174173102Y-76138976D01*
X174373061Y-76178750D01*
X174576939Y-76178750D01*
X174776898Y-76138976D01*
X174965256Y-76060955D01*
X175134774Y-75947687D01*
X175148011Y-75934450D01*
X176777231Y-75934450D01*
X176777231Y-76158956D01*
X176917718Y-76303787D01*
X177014409Y-76383140D01*
X177124723Y-76442104D01*
X177244422Y-76478414D01*
X177368903Y-76490674D01*
X177493384Y-76478414D01*
X177613082Y-76442104D01*
X177723397Y-76383140D01*
X177820088Y-76303787D01*
X178110835Y-76008696D01*
X178110835Y-75784190D01*
X177519163Y-75192518D01*
X176777231Y-75934450D01*
X175148011Y-75934450D01*
X175278937Y-75803524D01*
X175392205Y-75634006D01*
X175470226Y-75445648D01*
X175502428Y-75283754D01*
X175769919Y-75016264D01*
X175871042Y-75046940D01*
X176043077Y-75063884D01*
X176051260Y-75063078D01*
X176041402Y-75163173D01*
X176053662Y-75287654D01*
X176089972Y-75407353D01*
X176148936Y-75517667D01*
X176228289Y-75614358D01*
X176373120Y-75754845D01*
X176597626Y-75754845D01*
X177339558Y-75012913D01*
X177325416Y-74998771D01*
X177505021Y-74819166D01*
X177519163Y-74833308D01*
X177533306Y-74819166D01*
X177712911Y-74998771D01*
X177698768Y-75012913D01*
X178290440Y-75604585D01*
X178514946Y-75604585D01*
X178810037Y-75313838D01*
X178889390Y-75217147D01*
X178948354Y-75106832D01*
X178984664Y-74987134D01*
X178996924Y-74862653D01*
X178984664Y-74738172D01*
X178951813Y-74629877D01*
X179033674Y-74621398D01*
X179153187Y-74584485D01*
X179263203Y-74524966D01*
X179359494Y-74445128D01*
X179683329Y-74116959D01*
X179683329Y-73892453D01*
X179241918Y-73451041D01*
X179227776Y-73465184D01*
X179217927Y-73455335D01*
X179852202Y-72821059D01*
X179931554Y-72724368D01*
X179990519Y-72614054D01*
X180026829Y-72494356D01*
X180039089Y-72369874D01*
X180026829Y-72245392D01*
X180019205Y-72220259D01*
X180019205Y-72090037D01*
X179932136Y-72016468D01*
X179931554Y-72015380D01*
X179852202Y-71918689D01*
X179463294Y-71529781D01*
X179366603Y-71450429D01*
X179366125Y-71450173D01*
X179365869Y-71449695D01*
X179286517Y-71353004D01*
X178897609Y-70964096D01*
X178800918Y-70884744D01*
X178800438Y-70884488D01*
X178800183Y-70884010D01*
X178720831Y-70787319D01*
X178331923Y-70398411D01*
X178235232Y-70319059D01*
X178234754Y-70318804D01*
X178234498Y-70318324D01*
X178155146Y-70221633D01*
X177766238Y-69832725D01*
X177669547Y-69753373D01*
X177669067Y-69753117D01*
X177668812Y-69752639D01*
X177589460Y-69655948D01*
X177200552Y-69267040D01*
X177103861Y-69187688D01*
X177103383Y-69187433D01*
X177103127Y-69186953D01*
X177023775Y-69090262D01*
X176634867Y-68701354D01*
X176538176Y-68622002D01*
X176537696Y-68621746D01*
X176537441Y-68621268D01*
X176458089Y-68524577D01*
X176069181Y-68135669D01*
X175972490Y-68056317D01*
X175972012Y-68056062D01*
X175971756Y-68055582D01*
X175892404Y-67958891D01*
X175503496Y-67569983D01*
X175406805Y-67490631D01*
X175406327Y-67490375D01*
X175406071Y-67489897D01*
X175326719Y-67393206D01*
X174937811Y-67004298D01*
X174841120Y-66924946D01*
X174840640Y-66924690D01*
X174840385Y-66924212D01*
X174761033Y-66827521D01*
X174372125Y-66438613D01*
X174340306Y-66412500D01*
X174372125Y-66386387D01*
X174761033Y-65997479D01*
X174840385Y-65900788D01*
X174840965Y-65899703D01*
X174928037Y-65826132D01*
X174928037Y-65695906D01*
X174935660Y-65670776D01*
X174947920Y-65546294D01*
X174936516Y-65430500D01*
X175052311Y-65441904D01*
X175176793Y-65429644D01*
X175201926Y-65422020D01*
X175332149Y-65422020D01*
X175405718Y-65334950D01*
X175406805Y-65334369D01*
X175503496Y-65255017D01*
X175892404Y-64866109D01*
X175971756Y-64769418D01*
X175972012Y-64768938D01*
X175972490Y-64768683D01*
X176069181Y-64689331D01*
X176458089Y-64300423D01*
X176537441Y-64203732D01*
X176537696Y-64203254D01*
X176538176Y-64202998D01*
X176634867Y-64123646D01*
X177023775Y-63734738D01*
X177103127Y-63638047D01*
X177103383Y-63637567D01*
X177103861Y-63637312D01*
X177200552Y-63557960D01*
X177589460Y-63169052D01*
X177668812Y-63072361D01*
X177669067Y-63071883D01*
X177669547Y-63071627D01*
X177766238Y-62992275D01*
X178155146Y-62603367D01*
X178234498Y-62506676D01*
X178234754Y-62506196D01*
X178235232Y-62505941D01*
X178331923Y-62426589D01*
X178720831Y-62037681D01*
X178800183Y-61940990D01*
X178800438Y-61940512D01*
X178800918Y-61940256D01*
X178897609Y-61860904D01*
X179286517Y-61471996D01*
X179365869Y-61375305D01*
X179366450Y-61374218D01*
X179453520Y-61300649D01*
X179453520Y-61170426D01*
X179461144Y-61145293D01*
X179473404Y-61020811D01*
X179462000Y-60905016D01*
X179577794Y-60916420D01*
X179702276Y-60904160D01*
X179727406Y-60896537D01*
X179857632Y-60896537D01*
X179931203Y-60809465D01*
X179932288Y-60808885D01*
X180028979Y-60729533D01*
X180417887Y-60340625D01*
X180444000Y-60308806D01*
X180470113Y-60340625D01*
X180859021Y-60729533D01*
X180955712Y-60808885D01*
X180956190Y-60809140D01*
X180956446Y-60809620D01*
X181035798Y-60906311D01*
X181424706Y-61295219D01*
X181521397Y-61374571D01*
X181521875Y-61374827D01*
X181522131Y-61375305D01*
X181601483Y-61471996D01*
X181990391Y-61860904D01*
X182087082Y-61940256D01*
X182087562Y-61940512D01*
X182087817Y-61940990D01*
X182167169Y-62037681D01*
X182556077Y-62426589D01*
X182652768Y-62505941D01*
X182653853Y-62506521D01*
X182727424Y-62593593D01*
X182857650Y-62593593D01*
X182882780Y-62601216D01*
X183007262Y-62613476D01*
X183123057Y-62602072D01*
X183111653Y-62717867D01*
X183123913Y-62842349D01*
X183131536Y-62867479D01*
X183131536Y-62997705D01*
X183218608Y-63071276D01*
X183219188Y-63072361D01*
X183298540Y-63169052D01*
X183687448Y-63557960D01*
X183784139Y-63637312D01*
X183784617Y-63637567D01*
X183784873Y-63638047D01*
X183864225Y-63734738D01*
X184253133Y-64123646D01*
X184349824Y-64202998D01*
X184350304Y-64203254D01*
X184350559Y-64203732D01*
X184429911Y-64300423D01*
X184818819Y-64689331D01*
X184915510Y-64768683D01*
X184915988Y-64768938D01*
X184916244Y-64769418D01*
X184995596Y-64866109D01*
X185384504Y-65255017D01*
X185481195Y-65334369D01*
X185481673Y-65334625D01*
X185481929Y-65335103D01*
X185561281Y-65431794D01*
X185950189Y-65820702D01*
X186046880Y-65900054D01*
X186047360Y-65900310D01*
X186047615Y-65900788D01*
X186126967Y-65997479D01*
X186515875Y-66386387D01*
X186547694Y-66412500D01*
X186515875Y-66438613D01*
X186126967Y-66827521D01*
X186047615Y-66924212D01*
X186047360Y-66924690D01*
X186046880Y-66924946D01*
X185950189Y-67004298D01*
X185561281Y-67393206D01*
X185481929Y-67489897D01*
X185481673Y-67490375D01*
X185481195Y-67490631D01*
X185384504Y-67569983D01*
X184995596Y-67958891D01*
X184916244Y-68055582D01*
X184915662Y-68056670D01*
X184828593Y-68130239D01*
X184828593Y-68260461D01*
X184820969Y-68285594D01*
X184808709Y-68410076D01*
X184820113Y-68525871D01*
X184704318Y-68514467D01*
X184579836Y-68526727D01*
X184554703Y-68534351D01*
X184424481Y-68534351D01*
X184350912Y-68621420D01*
X184349824Y-68622002D01*
X184253133Y-68701354D01*
X183864225Y-69090262D01*
X183784873Y-69186953D01*
X183784617Y-69187433D01*
X183784139Y-69187688D01*
X183687448Y-69267040D01*
X183298540Y-69655948D01*
X183219188Y-69752639D01*
X183218933Y-69753117D01*
X183218453Y-69753373D01*
X183121762Y-69832725D01*
X182732854Y-70221633D01*
X182653502Y-70318324D01*
X182653246Y-70318804D01*
X182652768Y-70319059D01*
X182556077Y-70398411D01*
X182167169Y-70787319D01*
X182087817Y-70884010D01*
X182087562Y-70884488D01*
X182087082Y-70884744D01*
X181990391Y-70964096D01*
X181601483Y-71353004D01*
X181522131Y-71449695D01*
X181521875Y-71450173D01*
X181521397Y-71450429D01*
X181424706Y-71529781D01*
X181035798Y-71918689D01*
X180956446Y-72015380D01*
X180956190Y-72015860D01*
X180955712Y-72016115D01*
X180859021Y-72095467D01*
X180470113Y-72484375D01*
X180442987Y-72517428D01*
X180423317Y-72494149D01*
X180198810Y-72494149D01*
X179421523Y-73271436D01*
X179862935Y-73712847D01*
X180087441Y-73712847D01*
X180415610Y-73389012D01*
X180443936Y-73354848D01*
X180470113Y-73386745D01*
X181530773Y-74447405D01*
X181627464Y-74526757D01*
X181737778Y-74585722D01*
X181857476Y-74622032D01*
X181981958Y-74634292D01*
X182106440Y-74622032D01*
X182226138Y-74585722D01*
X182336452Y-74526757D01*
X182433143Y-74447405D01*
X182822051Y-74058497D01*
X182901403Y-73961806D01*
X182901659Y-73961326D01*
X182902137Y-73961071D01*
X182998828Y-73881719D01*
X183387736Y-73492811D01*
X183467088Y-73396120D01*
X183467344Y-73395642D01*
X183467822Y-73395386D01*
X183564513Y-73316034D01*
X183953421Y-72927126D01*
X184032773Y-72830435D01*
X184033028Y-72829957D01*
X184033508Y-72829701D01*
X184130199Y-72750349D01*
X184519107Y-72361441D01*
X184598459Y-72264750D01*
X184598715Y-72264270D01*
X184599193Y-72264015D01*
X184695884Y-72184663D01*
X184827501Y-72053046D01*
X184827500Y-74538271D01*
X184425718Y-74940053D01*
X184346366Y-75036744D01*
X184287401Y-75147058D01*
X184251091Y-75266756D01*
X184238831Y-75391238D01*
X184248411Y-75488509D01*
X184109062Y-75502234D01*
X183943638Y-75552415D01*
X183791183Y-75633904D01*
X183657555Y-75743570D01*
X183012320Y-76388805D01*
X182902654Y-76522433D01*
X182821165Y-76674888D01*
X182770984Y-76840312D01*
X182754040Y-77012347D01*
X182770984Y-77184382D01*
X182821165Y-77349806D01*
X182902654Y-77502261D01*
X183012320Y-77635889D01*
X183357035Y-77980604D01*
X183490663Y-78090270D01*
X183643118Y-78171759D01*
X183808542Y-78221940D01*
X183980577Y-78238884D01*
X183988760Y-78238078D01*
X183978902Y-78338173D01*
X183991162Y-78462654D01*
X184027472Y-78582353D01*
X184086436Y-78692667D01*
X184165789Y-78789358D01*
X184181915Y-78805000D01*
X158195000Y-78805000D01*
X158195000Y-69999434D01*
X170877663Y-69999434D01*
X170889923Y-70123915D01*
X170926233Y-70243614D01*
X170985197Y-70353928D01*
X171064550Y-70450619D01*
X171209381Y-70591106D01*
X171433887Y-70591106D01*
X172175819Y-69849174D01*
X171584147Y-69257502D01*
X171359641Y-69257502D01*
X171064550Y-69548249D01*
X170985197Y-69644940D01*
X170926233Y-69755255D01*
X170889923Y-69874953D01*
X170877663Y-69999434D01*
X158195000Y-69999434D01*
X158195000Y-49851278D01*
X163410000Y-49851278D01*
X163410000Y-50148722D01*
X163468029Y-50440451D01*
X163581856Y-50715253D01*
X163747107Y-50962569D01*
X163957431Y-51172893D01*
X164204747Y-51338144D01*
X164479549Y-51451971D01*
X164771278Y-51510000D01*
X165068722Y-51510000D01*
X165360451Y-51451971D01*
X165635253Y-51338144D01*
X165882569Y-51172893D01*
X166092893Y-50962569D01*
X166258144Y-50715253D01*
X166371971Y-50440451D01*
X166430000Y-50148722D01*
X166430000Y-49851278D01*
X166371971Y-49559549D01*
X166258144Y-49284747D01*
X166092893Y-49037431D01*
X165882569Y-48827107D01*
X165635253Y-48661856D01*
X165360451Y-48548029D01*
X165068722Y-48490000D01*
X164771278Y-48490000D01*
X164479549Y-48548029D01*
X164204747Y-48661856D01*
X163957431Y-48827107D01*
X163747107Y-49037431D01*
X163581856Y-49284747D01*
X163468029Y-49559549D01*
X163410000Y-49851278D01*
X158195000Y-49851278D01*
X158195000Y-40550000D01*
X177593178Y-40550000D01*
X177605438Y-40674482D01*
X177641748Y-40794180D01*
X177700713Y-40904494D01*
X177780065Y-41001185D01*
X177876756Y-41080537D01*
X177987070Y-41139502D01*
X178106768Y-41175812D01*
X178231250Y-41188072D01*
X178245500Y-41185000D01*
X178404250Y-41026250D01*
X178404250Y-39902000D01*
X177755000Y-39902000D01*
X177596250Y-40060750D01*
X177593178Y-40550000D01*
X158195000Y-40550000D01*
X158195000Y-39000000D01*
X177593178Y-39000000D01*
X177596250Y-39489250D01*
X177755000Y-39648000D01*
X178404250Y-39648000D01*
X178404250Y-38523750D01*
X178245500Y-38365000D01*
X178231250Y-38361928D01*
X178106768Y-38374188D01*
X177987070Y-38410498D01*
X177876756Y-38469463D01*
X177780065Y-38548815D01*
X177700713Y-38645506D01*
X177641748Y-38755820D01*
X177605438Y-38875518D01*
X177593178Y-39000000D01*
X158195000Y-39000000D01*
X158195000Y-35195000D01*
X175993178Y-35195000D01*
X175993178Y-36800000D01*
G36*
X188301665Y-71328310D02*
G01*
X188893337Y-71919982D01*
X188907480Y-71905840D01*
X189087085Y-72085445D01*
X189072942Y-72099587D01*
X189087085Y-72113730D01*
X188907480Y-72293335D01*
X188893337Y-72279192D01*
X188151405Y-73021124D01*
X188151405Y-73144869D01*
X187531382Y-73764892D01*
X187545525Y-73779035D01*
X187365920Y-73958640D01*
X187351777Y-73944497D01*
X187337635Y-73958640D01*
X187158030Y-73779035D01*
X187172172Y-73764892D01*
X186500951Y-73093671D01*
X186347500Y-73093671D01*
X186347500Y-72689559D01*
X186680556Y-72689559D01*
X186680556Y-72914066D01*
X187351777Y-73585287D01*
X188093709Y-72843355D01*
X188093709Y-72719610D01*
X188713732Y-72099587D01*
X188122060Y-71507915D01*
X187897554Y-71507915D01*
X187602463Y-71798662D01*
X187523110Y-71895353D01*
X187464146Y-72005668D01*
X187427836Y-72125366D01*
X187419712Y-72207854D01*
X187298006Y-72219842D01*
X187178308Y-72256151D01*
X187067994Y-72315115D01*
X186971303Y-72394468D01*
X186680556Y-72689559D01*
X186347500Y-72689559D01*
X186347500Y-71593323D01*
X186351176Y-71556000D01*
X186347500Y-71518677D01*
X186347500Y-71518667D01*
X186336503Y-71407014D01*
X186293046Y-71263753D01*
X186279475Y-71238363D01*
X188301665Y-71238363D01*
X188301665Y-71328310D01*
X188301665Y-71328310D01*
G37*
X188301665Y-71328310D02*
X188893337Y-71919982D01*
X188907480Y-71905840D01*
X189087085Y-72085445D01*
X189072942Y-72099587D01*
X189087085Y-72113730D01*
X188907480Y-72293335D01*
X188893337Y-72279192D01*
X188151405Y-73021124D01*
X188151405Y-73144869D01*
X187531382Y-73764892D01*
X187545525Y-73779035D01*
X187365920Y-73958640D01*
X187351777Y-73944497D01*
X187337635Y-73958640D01*
X187158030Y-73779035D01*
X187172172Y-73764892D01*
X186500951Y-73093671D01*
X186347500Y-73093671D01*
X186347500Y-72689559D01*
X186680556Y-72689559D01*
X186680556Y-72914066D01*
X187351777Y-73585287D01*
X188093709Y-72843355D01*
X188093709Y-72719610D01*
X188713732Y-72099587D01*
X188122060Y-71507915D01*
X187897554Y-71507915D01*
X187602463Y-71798662D01*
X187523110Y-71895353D01*
X187464146Y-72005668D01*
X187427836Y-72125366D01*
X187419712Y-72207854D01*
X187298006Y-72219842D01*
X187178308Y-72256151D01*
X187067994Y-72315115D01*
X186971303Y-72394468D01*
X186680556Y-72689559D01*
X186347500Y-72689559D01*
X186347500Y-71593323D01*
X186351176Y-71556000D01*
X186347500Y-71518677D01*
X186347500Y-71518667D01*
X186336503Y-71407014D01*
X186293046Y-71263753D01*
X186279475Y-71238363D01*
X188301665Y-71238363D01*
X188301665Y-71328310D01*
G36*
X177706198Y-59328823D02*
G01*
X177666711Y-59332712D01*
X177670600Y-59293225D01*
X177706198Y-59328823D01*
X177706198Y-59328823D01*
G37*
X177706198Y-59328823D02*
X177666711Y-59332712D01*
X177670600Y-59293225D01*
X177706198Y-59328823D01*
M02*
