G04 #@! TF.GenerationSoftware,KiCad,Pcbnew,(5.1.4)-1*
G04 #@! TF.CreationDate,2023-02-06T19:17:43+01:00*
G04 #@! TF.ProjectId,Keypad PCB,4b657970-6164-4205-9043-422e6b696361,rev?*
G04 #@! TF.SameCoordinates,Original*
G04 #@! TF.FileFunction,Soldermask,Bot*
G04 #@! TF.FilePolarity,Negative*
%FSLAX46Y46*%
G04 Gerber Fmt 4.6, Leading zero omitted, Abs format (unit mm)*
G04 Created by KiCad (PCBNEW (5.1.4)-1) date 2023-02-06 19:17:43*
%MOMM*%
%LPD*%
G04 APERTURE LIST*
%ADD10C,0.100000*%
G04 APERTURE END LIST*
D10*
G36*
X185647141Y-77366302D02*
G01*
X185685811Y-77378033D01*
X185721450Y-77397083D01*
X185757456Y-77426632D01*
X185797306Y-77466482D01*
X185797312Y-77466487D01*
X186178089Y-77847264D01*
X186178094Y-77847270D01*
X186217944Y-77887120D01*
X186247493Y-77923126D01*
X186266543Y-77958765D01*
X186278274Y-77997435D01*
X186282234Y-78037653D01*
X186278274Y-78077871D01*
X186266543Y-78116541D01*
X186247493Y-78152180D01*
X186217944Y-78188186D01*
X186178094Y-78228036D01*
X186178089Y-78228042D01*
X185496792Y-78909339D01*
X185496786Y-78909344D01*
X185456936Y-78949194D01*
X185420930Y-78978743D01*
X185385291Y-78997793D01*
X185346621Y-79009524D01*
X185306403Y-79013484D01*
X185266185Y-79009524D01*
X185227515Y-78997793D01*
X185191876Y-78978743D01*
X185155870Y-78949194D01*
X185116020Y-78909344D01*
X185116014Y-78909339D01*
X184735237Y-78528562D01*
X184735232Y-78528556D01*
X184695382Y-78488706D01*
X184665833Y-78452700D01*
X184646783Y-78417061D01*
X184635052Y-78378391D01*
X184631092Y-78338173D01*
X184635052Y-78297955D01*
X184646783Y-78259285D01*
X184665833Y-78223646D01*
X184695382Y-78187640D01*
X184735232Y-78147790D01*
X184735237Y-78147784D01*
X185416534Y-77466487D01*
X185416540Y-77466482D01*
X185456390Y-77426632D01*
X185492396Y-77397083D01*
X185528035Y-77378033D01*
X185566705Y-77366302D01*
X185606923Y-77362342D01*
X185647141Y-77366302D01*
X185647141Y-77366302D01*
G37*
G36*
X184321315Y-76040476D02*
G01*
X184359985Y-76052207D01*
X184395624Y-76071257D01*
X184431630Y-76100806D01*
X184471480Y-76140656D01*
X184471486Y-76140661D01*
X184852263Y-76521438D01*
X184852268Y-76521444D01*
X184892118Y-76561294D01*
X184921667Y-76597300D01*
X184940717Y-76632939D01*
X184952448Y-76671609D01*
X184956408Y-76711827D01*
X184952448Y-76752045D01*
X184940717Y-76790715D01*
X184921667Y-76826354D01*
X184892118Y-76862360D01*
X184852268Y-76902210D01*
X184852263Y-76902216D01*
X184170966Y-77583513D01*
X184170960Y-77583518D01*
X184131110Y-77623368D01*
X184095104Y-77652917D01*
X184059465Y-77671967D01*
X184020795Y-77683698D01*
X183980577Y-77687658D01*
X183940359Y-77683698D01*
X183901689Y-77671967D01*
X183866050Y-77652917D01*
X183830044Y-77623368D01*
X183790194Y-77583518D01*
X183790188Y-77583513D01*
X183409411Y-77202736D01*
X183409406Y-77202730D01*
X183369556Y-77162880D01*
X183340007Y-77126874D01*
X183320957Y-77091235D01*
X183309226Y-77052565D01*
X183305266Y-77012347D01*
X183309226Y-76972129D01*
X183320957Y-76933459D01*
X183340007Y-76897820D01*
X183369556Y-76861814D01*
X183409406Y-76821964D01*
X183409411Y-76821958D01*
X184090708Y-76140661D01*
X184090714Y-76140656D01*
X184130564Y-76100806D01*
X184166570Y-76071257D01*
X184202209Y-76052207D01*
X184240879Y-76040476D01*
X184281097Y-76036516D01*
X184321315Y-76040476D01*
X184321315Y-76040476D01*
G37*
G36*
X187989587Y-76451897D02*
G01*
X186927512Y-77513972D01*
X186006859Y-76593319D01*
X187068934Y-75531244D01*
X187989587Y-76451897D01*
X187989587Y-76451897D01*
G37*
G36*
X186787506Y-75249816D02*
G01*
X185725431Y-76311891D01*
X184804778Y-75391238D01*
X185866853Y-74329163D01*
X186787506Y-75249816D01*
X186787506Y-75249816D01*
G37*
G36*
X189545222Y-74896262D02*
G01*
X188483147Y-75958337D01*
X187562494Y-75037684D01*
X188624569Y-73975609D01*
X189545222Y-74896262D01*
X189545222Y-74896262D01*
G37*
G36*
X177709641Y-74191302D02*
G01*
X177748311Y-74203033D01*
X177783950Y-74222083D01*
X177819956Y-74251632D01*
X177859806Y-74291482D01*
X177859812Y-74291487D01*
X178240589Y-74672264D01*
X178240594Y-74672270D01*
X178280444Y-74712120D01*
X178309993Y-74748126D01*
X178329043Y-74783765D01*
X178340774Y-74822435D01*
X178344734Y-74862653D01*
X178340774Y-74902871D01*
X178329043Y-74941541D01*
X178309993Y-74977180D01*
X178280444Y-75013186D01*
X178240594Y-75053036D01*
X178240589Y-75053042D01*
X177559292Y-75734339D01*
X177559286Y-75734344D01*
X177519436Y-75774194D01*
X177483430Y-75803743D01*
X177447791Y-75822793D01*
X177409121Y-75834524D01*
X177368903Y-75838484D01*
X177328685Y-75834524D01*
X177290015Y-75822793D01*
X177254376Y-75803743D01*
X177218370Y-75774194D01*
X177178520Y-75734344D01*
X177178514Y-75734339D01*
X176797737Y-75353562D01*
X176797732Y-75353556D01*
X176757882Y-75313706D01*
X176728333Y-75277700D01*
X176709283Y-75242061D01*
X176697552Y-75203391D01*
X176693592Y-75163173D01*
X176697552Y-75122955D01*
X176709283Y-75084285D01*
X176728333Y-75048646D01*
X176757882Y-75012640D01*
X176797732Y-74972790D01*
X176797737Y-74972784D01*
X177479034Y-74291487D01*
X177479040Y-74291482D01*
X177518890Y-74251632D01*
X177554896Y-74222083D01*
X177590535Y-74203033D01*
X177629205Y-74191302D01*
X177669423Y-74187342D01*
X177709641Y-74191302D01*
X177709641Y-74191302D01*
G37*
G36*
X188343141Y-73694181D02*
G01*
X187281066Y-74756256D01*
X186360413Y-73835603D01*
X187422488Y-72773528D01*
X188343141Y-73694181D01*
X188343141Y-73694181D01*
G37*
G36*
X176383815Y-72865476D02*
G01*
X176422485Y-72877207D01*
X176458124Y-72896257D01*
X176494130Y-72925806D01*
X176533980Y-72965656D01*
X176533986Y-72965661D01*
X176914763Y-73346438D01*
X176914768Y-73346444D01*
X176954618Y-73386294D01*
X176984167Y-73422300D01*
X177003217Y-73457939D01*
X177014948Y-73496609D01*
X177018908Y-73536827D01*
X177014948Y-73577045D01*
X177003217Y-73615715D01*
X176984167Y-73651354D01*
X176954618Y-73687360D01*
X176914768Y-73727210D01*
X176914763Y-73727216D01*
X176233466Y-74408513D01*
X176233460Y-74408518D01*
X176193610Y-74448368D01*
X176157604Y-74477917D01*
X176121965Y-74496967D01*
X176083295Y-74508698D01*
X176043077Y-74512658D01*
X176002859Y-74508698D01*
X175964189Y-74496967D01*
X175928550Y-74477917D01*
X175892544Y-74448368D01*
X175852694Y-74408518D01*
X175852688Y-74408513D01*
X175471911Y-74027736D01*
X175471906Y-74027730D01*
X175432056Y-73987880D01*
X175402507Y-73951874D01*
X175383457Y-73916235D01*
X175371726Y-73877565D01*
X175367766Y-73837347D01*
X175371726Y-73797129D01*
X175383457Y-73758459D01*
X175402507Y-73722820D01*
X175432056Y-73686814D01*
X175471906Y-73646964D01*
X175471911Y-73646958D01*
X176153208Y-72965661D01*
X176153214Y-72965656D01*
X176193064Y-72925806D01*
X176229070Y-72896257D01*
X176264709Y-72877207D01*
X176303379Y-72865476D01*
X176343597Y-72861516D01*
X176383815Y-72865476D01*
X176383815Y-72865476D01*
G37*
G36*
X190409641Y-72603802D02*
G01*
X190448311Y-72615533D01*
X190483950Y-72634583D01*
X190519956Y-72664132D01*
X190559806Y-72703982D01*
X190559812Y-72703987D01*
X190940589Y-73084764D01*
X190940594Y-73084770D01*
X190980444Y-73124620D01*
X191009993Y-73160626D01*
X191029043Y-73196265D01*
X191040774Y-73234935D01*
X191044734Y-73275153D01*
X191040774Y-73315371D01*
X191029043Y-73354041D01*
X191009993Y-73389680D01*
X190980444Y-73425686D01*
X190940594Y-73465536D01*
X190940589Y-73465542D01*
X190259292Y-74146839D01*
X190259286Y-74146844D01*
X190219436Y-74186694D01*
X190183430Y-74216243D01*
X190147791Y-74235293D01*
X190109121Y-74247024D01*
X190068903Y-74250984D01*
X190028685Y-74247024D01*
X189990015Y-74235293D01*
X189954376Y-74216243D01*
X189918370Y-74186694D01*
X189878520Y-74146844D01*
X189878514Y-74146839D01*
X189497737Y-73766062D01*
X189497732Y-73766056D01*
X189457882Y-73726206D01*
X189428333Y-73690200D01*
X189409283Y-73654561D01*
X189397552Y-73615891D01*
X189393592Y-73575673D01*
X189397552Y-73535455D01*
X189409283Y-73496785D01*
X189428333Y-73461146D01*
X189457882Y-73425140D01*
X189497732Y-73385290D01*
X189497737Y-73385284D01*
X190179034Y-72703987D01*
X190179040Y-72703982D01*
X190218890Y-72664132D01*
X190254896Y-72634583D01*
X190290535Y-72615533D01*
X190329205Y-72603802D01*
X190369423Y-72599842D01*
X190409641Y-72603802D01*
X190409641Y-72603802D01*
G37*
G36*
X174398238Y-67294971D02*
G01*
X174398244Y-67294976D01*
X175601727Y-68498459D01*
X175601732Y-68498465D01*
X176095294Y-68992027D01*
X176095300Y-68992032D01*
X176733098Y-69629830D01*
X176733103Y-69629836D01*
X177226665Y-70123398D01*
X177226671Y-70123403D01*
X177864469Y-70761201D01*
X177864474Y-70761207D01*
X178358036Y-71254769D01*
X178358042Y-71254774D01*
X179561525Y-72458257D01*
X179561530Y-72458263D01*
X180038827Y-72935560D01*
X178906042Y-74068345D01*
X178356627Y-73518930D01*
X178356622Y-73518924D01*
X177297375Y-72459677D01*
X177297369Y-72459672D01*
X176659571Y-71821874D01*
X176659566Y-71821868D01*
X176166004Y-71328306D01*
X176165998Y-71328301D01*
X175528200Y-70690503D01*
X175528195Y-70690497D01*
X175034633Y-70196935D01*
X175034627Y-70196930D01*
X174396829Y-69559132D01*
X174396824Y-69559126D01*
X173337577Y-68499879D01*
X173337571Y-68499874D01*
X172788155Y-67950458D01*
X173920940Y-66817673D01*
X174398238Y-67294971D01*
X174398238Y-67294971D01*
G37*
G36*
X188099845Y-67950458D02*
G01*
X187550424Y-68499879D01*
X186984738Y-69065564D01*
X186491177Y-69559126D01*
X183590626Y-72459677D01*
X183024940Y-73025362D01*
X182531379Y-73518924D01*
X181981958Y-74068345D01*
X180849173Y-72935560D01*
X181310206Y-72474527D01*
X181326471Y-72458263D01*
X181326480Y-72458252D01*
X182529954Y-71254778D01*
X182529965Y-71254769D01*
X182546230Y-71238505D01*
X182546229Y-71238504D01*
X183007262Y-70777471D01*
X183007263Y-70777472D01*
X183023527Y-70761207D01*
X183023536Y-70761196D01*
X183661325Y-70123407D01*
X183661336Y-70123398D01*
X183677601Y-70107134D01*
X183677600Y-70107133D01*
X184138633Y-69646100D01*
X184138634Y-69646101D01*
X184154898Y-69629836D01*
X184154907Y-69629825D01*
X184792696Y-68992036D01*
X184792707Y-68992027D01*
X184808972Y-68975763D01*
X184808971Y-68975762D01*
X185270004Y-68514729D01*
X185270005Y-68514730D01*
X185286269Y-68498465D01*
X185286278Y-68498454D01*
X186489752Y-67294980D01*
X186489763Y-67294971D01*
X186506027Y-67278706D01*
X186967060Y-66817673D01*
X188099845Y-67950458D01*
X188099845Y-67950458D01*
G37*
G36*
X189083815Y-71277976D02*
G01*
X189122485Y-71289707D01*
X189158124Y-71308757D01*
X189194130Y-71338306D01*
X189233980Y-71378156D01*
X189233986Y-71378161D01*
X189614763Y-71758938D01*
X189614768Y-71758944D01*
X189654618Y-71798794D01*
X189684167Y-71834800D01*
X189703217Y-71870439D01*
X189714948Y-71909109D01*
X189718908Y-71949327D01*
X189714948Y-71989545D01*
X189703217Y-72028215D01*
X189684167Y-72063854D01*
X189654618Y-72099860D01*
X189614768Y-72139710D01*
X189614763Y-72139716D01*
X188933466Y-72821013D01*
X188933460Y-72821018D01*
X188893610Y-72860868D01*
X188857604Y-72890417D01*
X188821965Y-72909467D01*
X188783295Y-72921198D01*
X188743077Y-72925158D01*
X188702859Y-72921198D01*
X188664189Y-72909467D01*
X188628550Y-72890417D01*
X188592544Y-72860868D01*
X188552694Y-72821018D01*
X188552688Y-72821013D01*
X188171911Y-72440236D01*
X188171906Y-72440230D01*
X188132056Y-72400380D01*
X188102507Y-72364374D01*
X188083457Y-72328735D01*
X188071726Y-72290065D01*
X188067766Y-72249847D01*
X188071726Y-72209629D01*
X188083457Y-72170959D01*
X188102507Y-72135320D01*
X188132056Y-72099314D01*
X188171906Y-72059464D01*
X188171911Y-72059458D01*
X188853208Y-71378161D01*
X188853214Y-71378156D01*
X188893064Y-71338306D01*
X188929070Y-71308757D01*
X188964709Y-71289707D01*
X189003379Y-71277976D01*
X189043597Y-71274016D01*
X189083815Y-71277976D01*
X189083815Y-71277976D01*
G37*
G36*
X173871728Y-70353389D02*
G01*
X173910398Y-70365120D01*
X173946037Y-70384170D01*
X173982043Y-70413719D01*
X174021893Y-70453569D01*
X174021899Y-70453574D01*
X174402676Y-70834351D01*
X174402681Y-70834357D01*
X174442531Y-70874207D01*
X174472080Y-70910213D01*
X174491130Y-70945852D01*
X174502861Y-70984522D01*
X174506821Y-71024740D01*
X174502861Y-71064958D01*
X174491130Y-71103628D01*
X174472080Y-71139267D01*
X174442531Y-71175273D01*
X174402681Y-71215123D01*
X174402676Y-71215129D01*
X173721379Y-71896426D01*
X173721373Y-71896431D01*
X173681523Y-71936281D01*
X173645517Y-71965830D01*
X173609878Y-71984880D01*
X173571208Y-71996611D01*
X173530990Y-72000571D01*
X173490772Y-71996611D01*
X173452102Y-71984880D01*
X173416463Y-71965830D01*
X173380457Y-71936281D01*
X173340607Y-71896431D01*
X173340601Y-71896426D01*
X172959824Y-71515649D01*
X172959819Y-71515643D01*
X172919969Y-71475793D01*
X172890420Y-71439787D01*
X172871370Y-71404148D01*
X172859639Y-71365478D01*
X172855679Y-71325260D01*
X172859639Y-71285042D01*
X172871370Y-71246372D01*
X172890420Y-71210733D01*
X172919969Y-71174727D01*
X172959819Y-71134877D01*
X172959824Y-71134871D01*
X173641121Y-70453574D01*
X173641127Y-70453569D01*
X173680977Y-70413719D01*
X173716983Y-70384170D01*
X173752622Y-70365120D01*
X173791292Y-70353389D01*
X173831510Y-70349429D01*
X173871728Y-70353389D01*
X173871728Y-70353389D01*
G37*
G36*
X172545902Y-69027563D02*
G01*
X172584572Y-69039294D01*
X172620211Y-69058344D01*
X172656217Y-69087893D01*
X172696067Y-69127743D01*
X172696073Y-69127748D01*
X173076850Y-69508525D01*
X173076855Y-69508531D01*
X173116705Y-69548381D01*
X173146254Y-69584387D01*
X173165304Y-69620026D01*
X173177035Y-69658696D01*
X173180995Y-69698914D01*
X173177035Y-69739132D01*
X173165304Y-69777802D01*
X173146254Y-69813441D01*
X173116705Y-69849447D01*
X173076855Y-69889297D01*
X173076850Y-69889303D01*
X172395553Y-70570600D01*
X172395547Y-70570605D01*
X172355697Y-70610455D01*
X172319691Y-70640004D01*
X172284052Y-70659054D01*
X172245382Y-70670785D01*
X172205164Y-70674745D01*
X172164946Y-70670785D01*
X172126276Y-70659054D01*
X172090637Y-70640004D01*
X172054631Y-70610455D01*
X172014781Y-70570605D01*
X172014775Y-70570600D01*
X171633998Y-70189823D01*
X171633993Y-70189817D01*
X171594143Y-70149967D01*
X171564594Y-70113961D01*
X171545544Y-70078322D01*
X171533813Y-70039652D01*
X171529853Y-69999434D01*
X171533813Y-69959216D01*
X171545544Y-69920546D01*
X171564594Y-69884907D01*
X171594143Y-69848901D01*
X171633993Y-69809051D01*
X171633998Y-69809045D01*
X172315295Y-69127748D01*
X172315301Y-69127743D01*
X172355151Y-69087893D01*
X172391157Y-69058344D01*
X172426796Y-69039294D01*
X172465466Y-69027563D01*
X172505684Y-69023603D01*
X172545902Y-69027563D01*
X172545902Y-69027563D01*
G37*
G36*
X191164545Y-67047552D02*
G01*
X191203215Y-67059283D01*
X191238854Y-67078333D01*
X191274860Y-67107882D01*
X191314710Y-67147732D01*
X191314716Y-67147737D01*
X191996013Y-67829034D01*
X191996018Y-67829040D01*
X192035868Y-67868890D01*
X192065417Y-67904896D01*
X192084467Y-67940535D01*
X192096198Y-67979205D01*
X192100158Y-68019423D01*
X192096198Y-68059641D01*
X192084467Y-68098311D01*
X192065417Y-68133950D01*
X192035868Y-68169956D01*
X191996018Y-68209806D01*
X191996013Y-68209812D01*
X191615236Y-68590589D01*
X191615230Y-68590594D01*
X191575380Y-68630444D01*
X191539374Y-68659993D01*
X191503735Y-68679043D01*
X191465065Y-68690774D01*
X191424847Y-68694734D01*
X191384629Y-68690774D01*
X191345959Y-68679043D01*
X191310320Y-68659993D01*
X191274314Y-68630444D01*
X191234464Y-68590594D01*
X191234458Y-68590589D01*
X190553161Y-67909292D01*
X190553156Y-67909286D01*
X190513306Y-67869436D01*
X190483757Y-67833430D01*
X190464707Y-67797791D01*
X190452976Y-67759121D01*
X190449016Y-67718903D01*
X190452976Y-67678685D01*
X190464707Y-67640015D01*
X190483757Y-67604376D01*
X190513306Y-67568370D01*
X190553156Y-67528520D01*
X190553161Y-67528514D01*
X190933938Y-67147737D01*
X190933944Y-67147732D01*
X190973794Y-67107882D01*
X191009800Y-67078333D01*
X191045439Y-67059283D01*
X191084109Y-67047552D01*
X191124327Y-67043592D01*
X191164545Y-67047552D01*
X191164545Y-67047552D01*
G37*
G36*
X192490371Y-65721726D02*
G01*
X192529041Y-65733457D01*
X192564680Y-65752507D01*
X192600686Y-65782056D01*
X192640536Y-65821906D01*
X192640542Y-65821911D01*
X193321839Y-66503208D01*
X193321844Y-66503214D01*
X193361694Y-66543064D01*
X193391243Y-66579070D01*
X193410293Y-66614709D01*
X193422024Y-66653379D01*
X193425984Y-66693597D01*
X193422024Y-66733815D01*
X193410293Y-66772485D01*
X193391243Y-66808124D01*
X193361694Y-66844130D01*
X193321844Y-66883980D01*
X193321839Y-66883986D01*
X192941062Y-67264763D01*
X192941056Y-67264768D01*
X192901206Y-67304618D01*
X192865200Y-67334167D01*
X192829561Y-67353217D01*
X192790891Y-67364948D01*
X192750673Y-67368908D01*
X192710455Y-67364948D01*
X192671785Y-67353217D01*
X192636146Y-67334167D01*
X192600140Y-67304618D01*
X192560290Y-67264768D01*
X192560284Y-67264763D01*
X191878987Y-66583466D01*
X191878982Y-66583460D01*
X191839132Y-66543610D01*
X191809583Y-66507604D01*
X191790533Y-66471965D01*
X191778802Y-66433295D01*
X191774842Y-66393077D01*
X191778802Y-66352859D01*
X191790533Y-66314189D01*
X191809583Y-66278550D01*
X191839132Y-66242544D01*
X191878982Y-66202694D01*
X191878987Y-66202688D01*
X192259764Y-65821911D01*
X192259770Y-65821906D01*
X192299620Y-65782056D01*
X192335626Y-65752507D01*
X192371265Y-65733457D01*
X192409935Y-65721726D01*
X192450153Y-65717766D01*
X192490371Y-65721726D01*
X192490371Y-65721726D01*
G37*
G36*
X182531374Y-59306071D02*
G01*
X182531379Y-59306077D01*
X183590626Y-60365324D01*
X183590632Y-60365329D01*
X184228430Y-61003127D01*
X184228435Y-61003133D01*
X184721997Y-61496695D01*
X184722003Y-61496700D01*
X185359801Y-62134498D01*
X185359806Y-62134504D01*
X185853368Y-62628066D01*
X185853374Y-62628071D01*
X186491172Y-63265869D01*
X186491177Y-63265875D01*
X187550424Y-64325122D01*
X187550430Y-64325127D01*
X188099845Y-64874542D01*
X186967060Y-66007327D01*
X186489763Y-65530030D01*
X186489757Y-65530025D01*
X185286274Y-64326542D01*
X185286269Y-64326536D01*
X184792707Y-63832974D01*
X184792701Y-63832969D01*
X184154903Y-63195171D01*
X184154898Y-63195165D01*
X183661336Y-62701603D01*
X183661330Y-62701598D01*
X183023532Y-62063800D01*
X183023527Y-62063794D01*
X182529965Y-61570232D01*
X182529959Y-61570227D01*
X181326476Y-60366744D01*
X181326471Y-60366738D01*
X180849173Y-59889440D01*
X181981958Y-58756655D01*
X182531374Y-59306071D01*
X182531374Y-59306071D01*
G37*
G36*
X180038827Y-59889440D02*
G01*
X179561530Y-60366738D01*
X174398238Y-65530030D01*
X173920940Y-66007327D01*
X172788155Y-64874542D01*
X173337566Y-64325131D01*
X173337577Y-64325122D01*
X173353841Y-64308857D01*
X174380559Y-63282139D01*
X174396824Y-63265875D01*
X174396833Y-63265864D01*
X175034622Y-62628075D01*
X175034633Y-62628066D01*
X175050898Y-62611802D01*
X175050897Y-62611801D01*
X175511930Y-62150768D01*
X175511931Y-62150769D01*
X175528195Y-62134504D01*
X175528204Y-62134493D01*
X176165993Y-61496704D01*
X176166004Y-61496695D01*
X176182269Y-61480431D01*
X176182268Y-61480430D01*
X176643301Y-61019397D01*
X176643302Y-61019398D01*
X176659566Y-61003133D01*
X176659575Y-61003122D01*
X177297364Y-60365333D01*
X177297375Y-60365324D01*
X177313639Y-60349059D01*
X178340357Y-59322341D01*
X178356622Y-59306077D01*
X178356631Y-59306066D01*
X178906042Y-58756655D01*
X180038827Y-59889440D01*
X180038827Y-59889440D01*
G37*
G36*
X171320795Y-63078802D02*
G01*
X171359465Y-63090533D01*
X171395104Y-63109583D01*
X171431110Y-63139132D01*
X171470960Y-63178982D01*
X171470966Y-63178987D01*
X172152263Y-63860284D01*
X172152268Y-63860290D01*
X172192118Y-63900140D01*
X172221667Y-63936146D01*
X172240717Y-63971785D01*
X172252448Y-64010455D01*
X172256408Y-64050673D01*
X172252448Y-64090891D01*
X172240717Y-64129561D01*
X172221667Y-64165200D01*
X172192118Y-64201206D01*
X172152268Y-64241056D01*
X172152263Y-64241062D01*
X171771486Y-64621839D01*
X171771480Y-64621844D01*
X171731630Y-64661694D01*
X171695624Y-64691243D01*
X171659985Y-64710293D01*
X171621315Y-64722024D01*
X171581097Y-64725984D01*
X171540879Y-64722024D01*
X171502209Y-64710293D01*
X171466570Y-64691243D01*
X171430564Y-64661694D01*
X171390714Y-64621844D01*
X171390708Y-64621839D01*
X170709411Y-63940542D01*
X170709406Y-63940536D01*
X170669556Y-63900686D01*
X170640007Y-63864680D01*
X170620957Y-63829041D01*
X170609226Y-63790371D01*
X170605266Y-63750153D01*
X170609226Y-63709935D01*
X170620957Y-63671265D01*
X170640007Y-63635626D01*
X170669556Y-63599620D01*
X170709406Y-63559770D01*
X170709411Y-63559764D01*
X171090188Y-63178987D01*
X171090194Y-63178982D01*
X171130044Y-63139132D01*
X171166050Y-63109583D01*
X171201689Y-63090533D01*
X171240359Y-63078802D01*
X171280577Y-63074842D01*
X171320795Y-63078802D01*
X171320795Y-63078802D01*
G37*
G36*
X195344750Y-64101000D02*
G01*
X193442750Y-64101000D01*
X193442750Y-62899000D01*
X195344750Y-62899000D01*
X195344750Y-64101000D01*
X195344750Y-64101000D01*
G37*
G36*
X201544750Y-64101000D02*
G01*
X199642750Y-64101000D01*
X199642750Y-62899000D01*
X201544750Y-62899000D01*
X201544750Y-64101000D01*
X201544750Y-64101000D01*
G37*
G36*
X192453218Y-62491065D02*
G01*
X192491888Y-62502796D01*
X192527527Y-62521846D01*
X192558767Y-62547483D01*
X192584404Y-62578723D01*
X192603454Y-62614362D01*
X192615185Y-62653032D01*
X192619750Y-62699388D01*
X192619750Y-63775612D01*
X192615185Y-63821968D01*
X192603454Y-63860638D01*
X192584404Y-63896277D01*
X192558767Y-63927517D01*
X192527527Y-63953154D01*
X192491888Y-63972204D01*
X192453218Y-63983935D01*
X192406862Y-63988500D01*
X191755638Y-63988500D01*
X191709282Y-63983935D01*
X191670612Y-63972204D01*
X191634973Y-63953154D01*
X191603733Y-63927517D01*
X191578096Y-63896277D01*
X191559046Y-63860638D01*
X191547315Y-63821968D01*
X191542750Y-63775612D01*
X191542750Y-62699388D01*
X191547315Y-62653032D01*
X191559046Y-62614362D01*
X191578096Y-62578723D01*
X191603733Y-62547483D01*
X191634973Y-62521846D01*
X191670612Y-62502796D01*
X191709282Y-62491065D01*
X191755638Y-62486500D01*
X192406862Y-62486500D01*
X192453218Y-62491065D01*
X192453218Y-62491065D01*
G37*
G36*
X190578218Y-62491065D02*
G01*
X190616888Y-62502796D01*
X190652527Y-62521846D01*
X190683767Y-62547483D01*
X190709404Y-62578723D01*
X190728454Y-62614362D01*
X190740185Y-62653032D01*
X190744750Y-62699388D01*
X190744750Y-63775612D01*
X190740185Y-63821968D01*
X190728454Y-63860638D01*
X190709404Y-63896277D01*
X190683767Y-63927517D01*
X190652527Y-63953154D01*
X190616888Y-63972204D01*
X190578218Y-63983935D01*
X190531862Y-63988500D01*
X189880638Y-63988500D01*
X189834282Y-63983935D01*
X189795612Y-63972204D01*
X189759973Y-63953154D01*
X189728733Y-63927517D01*
X189703096Y-63896277D01*
X189684046Y-63860638D01*
X189672315Y-63821968D01*
X189667750Y-63775612D01*
X189667750Y-62699388D01*
X189672315Y-62653032D01*
X189684046Y-62614362D01*
X189703096Y-62578723D01*
X189728733Y-62547483D01*
X189759973Y-62521846D01*
X189795612Y-62502796D01*
X189834282Y-62491065D01*
X189880638Y-62486500D01*
X190531862Y-62486500D01*
X190578218Y-62491065D01*
X190578218Y-62491065D01*
G37*
G36*
X172646621Y-61752976D02*
G01*
X172685291Y-61764707D01*
X172720930Y-61783757D01*
X172756936Y-61813306D01*
X172796786Y-61853156D01*
X172796792Y-61853161D01*
X173478089Y-62534458D01*
X173478094Y-62534464D01*
X173517944Y-62574314D01*
X173547493Y-62610320D01*
X173566543Y-62645959D01*
X173578274Y-62684629D01*
X173582234Y-62724847D01*
X173578274Y-62765065D01*
X173566543Y-62803735D01*
X173547493Y-62839374D01*
X173517944Y-62875380D01*
X173478094Y-62915230D01*
X173478089Y-62915236D01*
X173097312Y-63296013D01*
X173097306Y-63296018D01*
X173057456Y-63335868D01*
X173021450Y-63365417D01*
X172985811Y-63384467D01*
X172947141Y-63396198D01*
X172906923Y-63400158D01*
X172866705Y-63396198D01*
X172828035Y-63384467D01*
X172792396Y-63365417D01*
X172756390Y-63335868D01*
X172716540Y-63296018D01*
X172716534Y-63296013D01*
X172035237Y-62614716D01*
X172035232Y-62614710D01*
X171995382Y-62574860D01*
X171965833Y-62538854D01*
X171946783Y-62503215D01*
X171935052Y-62464545D01*
X171931092Y-62424327D01*
X171935052Y-62384109D01*
X171946783Y-62345439D01*
X171965833Y-62309800D01*
X171995382Y-62273794D01*
X172035232Y-62233944D01*
X172035237Y-62233938D01*
X172416014Y-61853161D01*
X172416020Y-61853156D01*
X172455870Y-61813306D01*
X172491876Y-61783757D01*
X172527515Y-61764707D01*
X172566185Y-61752976D01*
X172606403Y-61749016D01*
X172646621Y-61752976D01*
X172646621Y-61752976D01*
G37*
G36*
X187384641Y-59372552D02*
G01*
X187423311Y-59384283D01*
X187458950Y-59403333D01*
X187494956Y-59432882D01*
X187534806Y-59472732D01*
X187534812Y-59472737D01*
X187915589Y-59853514D01*
X187915594Y-59853520D01*
X187955444Y-59893370D01*
X187984993Y-59929376D01*
X188004043Y-59965015D01*
X188015774Y-60003685D01*
X188019734Y-60043903D01*
X188015774Y-60084121D01*
X188004043Y-60122791D01*
X187984993Y-60158430D01*
X187955444Y-60194436D01*
X187915594Y-60234286D01*
X187915589Y-60234292D01*
X187234292Y-60915589D01*
X187234286Y-60915594D01*
X187194436Y-60955444D01*
X187158430Y-60984993D01*
X187122791Y-61004043D01*
X187084121Y-61015774D01*
X187043903Y-61019734D01*
X187003685Y-61015774D01*
X186965015Y-61004043D01*
X186929376Y-60984993D01*
X186893370Y-60955444D01*
X186853520Y-60915594D01*
X186853514Y-60915589D01*
X186472737Y-60534812D01*
X186472732Y-60534806D01*
X186432882Y-60494956D01*
X186403333Y-60458950D01*
X186384283Y-60423311D01*
X186372552Y-60384641D01*
X186368592Y-60344423D01*
X186372552Y-60304205D01*
X186384283Y-60265535D01*
X186403333Y-60229896D01*
X186432882Y-60193890D01*
X186472732Y-60154040D01*
X186472737Y-60154034D01*
X187154034Y-59472737D01*
X187154040Y-59472732D01*
X187193890Y-59432882D01*
X187229896Y-59403333D01*
X187265535Y-59384283D01*
X187304205Y-59372552D01*
X187344423Y-59368592D01*
X187384641Y-59372552D01*
X187384641Y-59372552D01*
G37*
G36*
X201544750Y-60401000D02*
G01*
X199642750Y-60401000D01*
X199642750Y-59199000D01*
X201544750Y-59199000D01*
X201544750Y-60401000D01*
X201544750Y-60401000D01*
G37*
G36*
X195344750Y-60401000D02*
G01*
X193442750Y-60401000D01*
X193442750Y-59199000D01*
X195344750Y-59199000D01*
X195344750Y-60401000D01*
X195344750Y-60401000D01*
G37*
G36*
X176083295Y-58316302D02*
G01*
X176121965Y-58328033D01*
X176157604Y-58347083D01*
X176193610Y-58376632D01*
X176233460Y-58416482D01*
X176233466Y-58416487D01*
X176914763Y-59097784D01*
X176914768Y-59097790D01*
X176954618Y-59137640D01*
X176984167Y-59173646D01*
X177003217Y-59209285D01*
X177014948Y-59247955D01*
X177018908Y-59288173D01*
X177014948Y-59328391D01*
X177003217Y-59367061D01*
X176984167Y-59402700D01*
X176954618Y-59438706D01*
X176914768Y-59478556D01*
X176914763Y-59478562D01*
X176533986Y-59859339D01*
X176533980Y-59859344D01*
X176494130Y-59899194D01*
X176458124Y-59928743D01*
X176422485Y-59947793D01*
X176383815Y-59959524D01*
X176343597Y-59963484D01*
X176303379Y-59959524D01*
X176264709Y-59947793D01*
X176229070Y-59928743D01*
X176193064Y-59899194D01*
X176153214Y-59859344D01*
X176153208Y-59859339D01*
X175471911Y-59178042D01*
X175471906Y-59178036D01*
X175432056Y-59138186D01*
X175402507Y-59102180D01*
X175383457Y-59066541D01*
X175371726Y-59027871D01*
X175367766Y-58987653D01*
X175371726Y-58947435D01*
X175383457Y-58908765D01*
X175402507Y-58873126D01*
X175432056Y-58837120D01*
X175471906Y-58797270D01*
X175471911Y-58797264D01*
X175852688Y-58416487D01*
X175852694Y-58416482D01*
X175892544Y-58376632D01*
X175928550Y-58347083D01*
X175964189Y-58328033D01*
X176002859Y-58316302D01*
X176043077Y-58312342D01*
X176083295Y-58316302D01*
X176083295Y-58316302D01*
G37*
G36*
X186058815Y-58046726D02*
G01*
X186097485Y-58058457D01*
X186133124Y-58077507D01*
X186169130Y-58107056D01*
X186208980Y-58146906D01*
X186208986Y-58146911D01*
X186589763Y-58527688D01*
X186589768Y-58527694D01*
X186629618Y-58567544D01*
X186659167Y-58603550D01*
X186678217Y-58639189D01*
X186689948Y-58677859D01*
X186693908Y-58718077D01*
X186689948Y-58758295D01*
X186678217Y-58796965D01*
X186659167Y-58832604D01*
X186629618Y-58868610D01*
X186589768Y-58908460D01*
X186589763Y-58908466D01*
X185908466Y-59589763D01*
X185908460Y-59589768D01*
X185868610Y-59629618D01*
X185832604Y-59659167D01*
X185796965Y-59678217D01*
X185758295Y-59689948D01*
X185718077Y-59693908D01*
X185677859Y-59689948D01*
X185639189Y-59678217D01*
X185603550Y-59659167D01*
X185567544Y-59629618D01*
X185527694Y-59589768D01*
X185527688Y-59589763D01*
X185146911Y-59208986D01*
X185146906Y-59208980D01*
X185107056Y-59169130D01*
X185077507Y-59133124D01*
X185058457Y-59097485D01*
X185046726Y-59058815D01*
X185042766Y-59018597D01*
X185046726Y-58978379D01*
X185058457Y-58939709D01*
X185077507Y-58904070D01*
X185107056Y-58868064D01*
X185146906Y-58828214D01*
X185146911Y-58828208D01*
X185828208Y-58146911D01*
X185828214Y-58146906D01*
X185868064Y-58107056D01*
X185904070Y-58077507D01*
X185939709Y-58058457D01*
X185978379Y-58046726D01*
X186018597Y-58042766D01*
X186058815Y-58046726D01*
X186058815Y-58046726D01*
G37*
G36*
X177409121Y-56990476D02*
G01*
X177447791Y-57002207D01*
X177483430Y-57021257D01*
X177519436Y-57050806D01*
X177559286Y-57090656D01*
X177559292Y-57090661D01*
X178240589Y-57771958D01*
X178240594Y-57771964D01*
X178280444Y-57811814D01*
X178309993Y-57847820D01*
X178329043Y-57883459D01*
X178340774Y-57922129D01*
X178344734Y-57962347D01*
X178340774Y-58002565D01*
X178329043Y-58041235D01*
X178309993Y-58076874D01*
X178280444Y-58112880D01*
X178240594Y-58152730D01*
X178240589Y-58152736D01*
X177859812Y-58533513D01*
X177859806Y-58533518D01*
X177819956Y-58573368D01*
X177783950Y-58602917D01*
X177748311Y-58621967D01*
X177709641Y-58633698D01*
X177669423Y-58637658D01*
X177629205Y-58633698D01*
X177590535Y-58621967D01*
X177554896Y-58602917D01*
X177518890Y-58573368D01*
X177479040Y-58533518D01*
X177479034Y-58533513D01*
X176797737Y-57852216D01*
X176797732Y-57852210D01*
X176757882Y-57812360D01*
X176728333Y-57776354D01*
X176709283Y-57740715D01*
X176697552Y-57702045D01*
X176693592Y-57661827D01*
X176697552Y-57621609D01*
X176709283Y-57582939D01*
X176728333Y-57547300D01*
X176757882Y-57511294D01*
X176797732Y-57471444D01*
X176797737Y-57471438D01*
X177178514Y-57090661D01*
X177178520Y-57090656D01*
X177218370Y-57050806D01*
X177254376Y-57021257D01*
X177290015Y-57002207D01*
X177328685Y-56990476D01*
X177368903Y-56986516D01*
X177409121Y-56990476D01*
X177409121Y-56990476D01*
G37*
G36*
X167809730Y-53359624D02*
G01*
X168026255Y-53441961D01*
X168222557Y-53564959D01*
X168391090Y-53723889D01*
X168525380Y-53912645D01*
X168620265Y-54123973D01*
X168672098Y-54349751D01*
X168677188Y-54523277D01*
X168636407Y-55114591D01*
X168636296Y-55116204D01*
X168636000Y-55124804D01*
X168636000Y-55195827D01*
X168617118Y-55290753D01*
X168616456Y-55294357D01*
X168600376Y-55389730D01*
X168597915Y-55396203D01*
X168592159Y-55416228D01*
X168590807Y-55423027D01*
X168588157Y-55429424D01*
X168553763Y-55512460D01*
X168552411Y-55515864D01*
X168518038Y-55606255D01*
X168514364Y-55612119D01*
X168504813Y-55630635D01*
X168502158Y-55637045D01*
X168448343Y-55717585D01*
X168446423Y-55720551D01*
X168395041Y-55802557D01*
X168390289Y-55807596D01*
X168377311Y-55823893D01*
X168373463Y-55829652D01*
X168304997Y-55898118D01*
X168302476Y-55900715D01*
X168236111Y-55971090D01*
X168230478Y-55975098D01*
X168214556Y-55988559D01*
X168209656Y-55993459D01*
X168129152Y-56047250D01*
X168126202Y-56049284D01*
X168047355Y-56105380D01*
X168041033Y-56108219D01*
X168022810Y-56118306D01*
X168017045Y-56122158D01*
X167927535Y-56159234D01*
X167924372Y-56160599D01*
X167836027Y-56200265D01*
X167829275Y-56201815D01*
X167809438Y-56208152D01*
X167803027Y-56210807D01*
X167708050Y-56229699D01*
X167704599Y-56230438D01*
X167610249Y-56252098D01*
X167603341Y-56252301D01*
X167582630Y-56254647D01*
X167575826Y-56256000D01*
X167479027Y-56256000D01*
X167475363Y-56256054D01*
X167378698Y-56258889D01*
X167378697Y-56258889D01*
X167371882Y-56257740D01*
X167351100Y-56256000D01*
X167344173Y-56256000D01*
X167249246Y-56237118D01*
X167245642Y-56236456D01*
X167218781Y-56231927D01*
X167150270Y-56220376D01*
X167143797Y-56217915D01*
X167123772Y-56212159D01*
X167116973Y-56210807D01*
X167057522Y-56186181D01*
X167027540Y-56173763D01*
X167024136Y-56172411D01*
X166993224Y-56160656D01*
X166933745Y-56138038D01*
X166927881Y-56134364D01*
X166909365Y-56124813D01*
X166902955Y-56122158D01*
X166822415Y-56068343D01*
X166819449Y-56066423D01*
X166737443Y-56015041D01*
X166732404Y-56010289D01*
X166716107Y-55997311D01*
X166710348Y-55993463D01*
X166641882Y-55924997D01*
X166639285Y-55922476D01*
X166568910Y-55856111D01*
X166564902Y-55850478D01*
X166551441Y-55834556D01*
X166546541Y-55829656D01*
X166492750Y-55749152D01*
X166490716Y-55746202D01*
X166434620Y-55667355D01*
X166431781Y-55661033D01*
X166421693Y-55642808D01*
X166417842Y-55637045D01*
X166380766Y-55547535D01*
X166379401Y-55544372D01*
X166339735Y-55456027D01*
X166338185Y-55449275D01*
X166331848Y-55429438D01*
X166329193Y-55423027D01*
X166310301Y-55328050D01*
X166309562Y-55324599D01*
X166287902Y-55230249D01*
X166287699Y-55223340D01*
X166285353Y-55202630D01*
X166284000Y-55195826D01*
X166284000Y-55099015D01*
X166283947Y-55095415D01*
X166282812Y-55056723D01*
X166283705Y-55043774D01*
X166284000Y-55035204D01*
X166284000Y-54964173D01*
X166290396Y-54932019D01*
X166292500Y-54916248D01*
X166330762Y-54361455D01*
X166359624Y-54190270D01*
X166441962Y-53973745D01*
X166564959Y-53777443D01*
X166670912Y-53665088D01*
X166723888Y-53608910D01*
X166843991Y-53523464D01*
X166912645Y-53474620D01*
X167123973Y-53379735D01*
X167349751Y-53327901D01*
X167581302Y-53321110D01*
X167809730Y-53359624D01*
X167809730Y-53359624D01*
G37*
G36*
X187809730Y-53359624D02*
G01*
X188026255Y-53441961D01*
X188222557Y-53564959D01*
X188391090Y-53723889D01*
X188525380Y-53912645D01*
X188620265Y-54123973D01*
X188672098Y-54349751D01*
X188677188Y-54523277D01*
X188636407Y-55114591D01*
X188636296Y-55116204D01*
X188636000Y-55124804D01*
X188636000Y-55195827D01*
X188617118Y-55290753D01*
X188616456Y-55294357D01*
X188600376Y-55389730D01*
X188597915Y-55396203D01*
X188592159Y-55416228D01*
X188590807Y-55423027D01*
X188588157Y-55429424D01*
X188553763Y-55512460D01*
X188552411Y-55515864D01*
X188518038Y-55606255D01*
X188514364Y-55612119D01*
X188504813Y-55630635D01*
X188502158Y-55637045D01*
X188448343Y-55717585D01*
X188446423Y-55720551D01*
X188395041Y-55802557D01*
X188390289Y-55807596D01*
X188377311Y-55823893D01*
X188373463Y-55829652D01*
X188304997Y-55898118D01*
X188302476Y-55900715D01*
X188236111Y-55971090D01*
X188230478Y-55975098D01*
X188214556Y-55988559D01*
X188209656Y-55993459D01*
X188129152Y-56047250D01*
X188126202Y-56049284D01*
X188047355Y-56105380D01*
X188041033Y-56108219D01*
X188022810Y-56118306D01*
X188017045Y-56122158D01*
X187927535Y-56159234D01*
X187924372Y-56160599D01*
X187836027Y-56200265D01*
X187829275Y-56201815D01*
X187809438Y-56208152D01*
X187803027Y-56210807D01*
X187708050Y-56229699D01*
X187704599Y-56230438D01*
X187610249Y-56252098D01*
X187603341Y-56252301D01*
X187582630Y-56254647D01*
X187575826Y-56256000D01*
X187479027Y-56256000D01*
X187475363Y-56256054D01*
X187378698Y-56258889D01*
X187378697Y-56258889D01*
X187371882Y-56257740D01*
X187351100Y-56256000D01*
X187344173Y-56256000D01*
X187249246Y-56237118D01*
X187245642Y-56236456D01*
X187218781Y-56231927D01*
X187150270Y-56220376D01*
X187143797Y-56217915D01*
X187123772Y-56212159D01*
X187116973Y-56210807D01*
X187057522Y-56186181D01*
X187027540Y-56173763D01*
X187024136Y-56172411D01*
X186993224Y-56160656D01*
X186933745Y-56138038D01*
X186927881Y-56134364D01*
X186909365Y-56124813D01*
X186902955Y-56122158D01*
X186822415Y-56068343D01*
X186819449Y-56066423D01*
X186737443Y-56015041D01*
X186732404Y-56010289D01*
X186716107Y-55997311D01*
X186710348Y-55993463D01*
X186641882Y-55924997D01*
X186639285Y-55922476D01*
X186568910Y-55856111D01*
X186564902Y-55850478D01*
X186551441Y-55834556D01*
X186546541Y-55829656D01*
X186492750Y-55749152D01*
X186490716Y-55746202D01*
X186434620Y-55667355D01*
X186431781Y-55661033D01*
X186421693Y-55642808D01*
X186417842Y-55637045D01*
X186380766Y-55547535D01*
X186379401Y-55544372D01*
X186339735Y-55456027D01*
X186338185Y-55449275D01*
X186331848Y-55429438D01*
X186329193Y-55423027D01*
X186310301Y-55328050D01*
X186309562Y-55324599D01*
X186287902Y-55230249D01*
X186287699Y-55223340D01*
X186285353Y-55202630D01*
X186284000Y-55195826D01*
X186284000Y-55099015D01*
X186283947Y-55095415D01*
X186282812Y-55056723D01*
X186283705Y-55043774D01*
X186284000Y-55035204D01*
X186284000Y-54964173D01*
X186290396Y-54932019D01*
X186292500Y-54916248D01*
X186330762Y-54361455D01*
X186359624Y-54190270D01*
X186441962Y-53973745D01*
X186564959Y-53777443D01*
X186670912Y-53665088D01*
X186723888Y-53608910D01*
X186843991Y-53523464D01*
X186912645Y-53474620D01*
X187123973Y-53379735D01*
X187349751Y-53327901D01*
X187581302Y-53321110D01*
X187809730Y-53359624D01*
X187809730Y-53359624D01*
G37*
G36*
X193977530Y-51370246D02*
G01*
X194202519Y-51425407D01*
X194312973Y-51476972D01*
X194412421Y-51523398D01*
X194412423Y-51523400D01*
X194412424Y-51523400D01*
X194599177Y-51660461D01*
X194755603Y-51831321D01*
X194875689Y-52029417D01*
X194954823Y-52247134D01*
X194989961Y-52476104D01*
X194979754Y-52707531D01*
X194924593Y-52932520D01*
X194873028Y-53042973D01*
X194826602Y-53142421D01*
X194826600Y-53142423D01*
X194826600Y-53142424D01*
X194723886Y-53282378D01*
X193580176Y-54557045D01*
X193437215Y-54716375D01*
X193426320Y-54730409D01*
X193413461Y-54749654D01*
X193356418Y-54806697D01*
X193351768Y-54811606D01*
X193336721Y-54828376D01*
X193315309Y-54847979D01*
X193311328Y-54851787D01*
X193249656Y-54913459D01*
X193235850Y-54922684D01*
X193220892Y-54934418D01*
X193208674Y-54945604D01*
X193134204Y-54990748D01*
X193129557Y-54993707D01*
X193057045Y-55042158D01*
X193057044Y-55042159D01*
X193057043Y-55042159D01*
X193041708Y-55048511D01*
X193024751Y-55057099D01*
X193010581Y-55065689D01*
X192928711Y-55095446D01*
X192923605Y-55097431D01*
X192843027Y-55130807D01*
X192826748Y-55134045D01*
X192808453Y-55139157D01*
X192792864Y-55144823D01*
X192706715Y-55158044D01*
X192701338Y-55158991D01*
X192615827Y-55176000D01*
X192599233Y-55176000D01*
X192580290Y-55177445D01*
X192563893Y-55179961D01*
X192476794Y-55176120D01*
X192471354Y-55176000D01*
X192384172Y-55176000D01*
X192367903Y-55172764D01*
X192349044Y-55170485D01*
X192332468Y-55169754D01*
X192247777Y-55148990D01*
X192242482Y-55147816D01*
X192156973Y-55130807D01*
X192141638Y-55124455D01*
X192123599Y-55118545D01*
X192107479Y-55114593D01*
X192028503Y-55077723D01*
X192023506Y-55075523D01*
X191942955Y-55042158D01*
X191929159Y-55032940D01*
X191912603Y-55023616D01*
X191897575Y-55016600D01*
X191827320Y-54965039D01*
X191822808Y-54961878D01*
X191750344Y-54913459D01*
X191738617Y-54901732D01*
X191724191Y-54889351D01*
X191710821Y-54879539D01*
X191681927Y-54847979D01*
X191651979Y-54815267D01*
X191648171Y-54811286D01*
X191586542Y-54749657D01*
X191586540Y-54749654D01*
X191577326Y-54735865D01*
X191565592Y-54720907D01*
X191554394Y-54708676D01*
X191509218Y-54634152D01*
X191506285Y-54629544D01*
X191457842Y-54557045D01*
X191451495Y-54541722D01*
X191442906Y-54524764D01*
X191434309Y-54510583D01*
X191404532Y-54428658D01*
X191402553Y-54423565D01*
X191369193Y-54343027D01*
X191365958Y-54326763D01*
X191360846Y-54308468D01*
X191355175Y-54292866D01*
X191341945Y-54206658D01*
X191340999Y-54201287D01*
X191324000Y-54115827D01*
X191324000Y-54099248D01*
X191322555Y-54080306D01*
X191320037Y-54063895D01*
X191323881Y-53976751D01*
X191324000Y-53971311D01*
X191324000Y-53884175D01*
X191327234Y-53867917D01*
X191329512Y-53849059D01*
X191330244Y-53832470D01*
X191351008Y-53747778D01*
X191352192Y-53742442D01*
X191355883Y-53723889D01*
X191369193Y-53656973D01*
X191375538Y-53641654D01*
X191381454Y-53623596D01*
X191385405Y-53607481D01*
X191422288Y-53528477D01*
X191424480Y-53523497D01*
X191457842Y-53442955D01*
X191467052Y-53429172D01*
X191476382Y-53412605D01*
X191483397Y-53397578D01*
X191534965Y-53327314D01*
X191538126Y-53322802D01*
X191565137Y-53282378D01*
X191586541Y-53250344D01*
X191643547Y-53193338D01*
X191648183Y-53188444D01*
X192688134Y-52029416D01*
X192973276Y-51711624D01*
X193101318Y-51594400D01*
X193101317Y-51594400D01*
X193101321Y-51594397D01*
X193299416Y-51474311D01*
X193517133Y-51395177D01*
X193746104Y-51360039D01*
X193977530Y-51370246D01*
X193977530Y-51370246D01*
G37*
G36*
X173977530Y-51370246D02*
G01*
X174202519Y-51425407D01*
X174312973Y-51476972D01*
X174412421Y-51523398D01*
X174412423Y-51523400D01*
X174412424Y-51523400D01*
X174599177Y-51660461D01*
X174755603Y-51831321D01*
X174875689Y-52029417D01*
X174954823Y-52247134D01*
X174989961Y-52476104D01*
X174979754Y-52707531D01*
X174924593Y-52932520D01*
X174873028Y-53042973D01*
X174826602Y-53142421D01*
X174826600Y-53142423D01*
X174826600Y-53142424D01*
X174723886Y-53282378D01*
X173580176Y-54557045D01*
X173437215Y-54716375D01*
X173426320Y-54730409D01*
X173413461Y-54749654D01*
X173356418Y-54806697D01*
X173351768Y-54811606D01*
X173336721Y-54828376D01*
X173315309Y-54847979D01*
X173311328Y-54851787D01*
X173249656Y-54913459D01*
X173235850Y-54922684D01*
X173220892Y-54934418D01*
X173208674Y-54945604D01*
X173134204Y-54990748D01*
X173129557Y-54993707D01*
X173057045Y-55042158D01*
X173057044Y-55042159D01*
X173057043Y-55042159D01*
X173041708Y-55048511D01*
X173024751Y-55057099D01*
X173010581Y-55065689D01*
X172928711Y-55095446D01*
X172923605Y-55097431D01*
X172843027Y-55130807D01*
X172826748Y-55134045D01*
X172808453Y-55139157D01*
X172792864Y-55144823D01*
X172706715Y-55158044D01*
X172701338Y-55158991D01*
X172615827Y-55176000D01*
X172599233Y-55176000D01*
X172580290Y-55177445D01*
X172563893Y-55179961D01*
X172476794Y-55176120D01*
X172471354Y-55176000D01*
X172384172Y-55176000D01*
X172367903Y-55172764D01*
X172349044Y-55170485D01*
X172332468Y-55169754D01*
X172247777Y-55148990D01*
X172242482Y-55147816D01*
X172156973Y-55130807D01*
X172141638Y-55124455D01*
X172123599Y-55118545D01*
X172107479Y-55114593D01*
X172028503Y-55077723D01*
X172023506Y-55075523D01*
X171942955Y-55042158D01*
X171929159Y-55032940D01*
X171912603Y-55023616D01*
X171897575Y-55016600D01*
X171827320Y-54965039D01*
X171822808Y-54961878D01*
X171750344Y-54913459D01*
X171738617Y-54901732D01*
X171724191Y-54889351D01*
X171710821Y-54879539D01*
X171681927Y-54847979D01*
X171651979Y-54815267D01*
X171648171Y-54811286D01*
X171586542Y-54749657D01*
X171586540Y-54749654D01*
X171577326Y-54735865D01*
X171565592Y-54720907D01*
X171554394Y-54708676D01*
X171509218Y-54634152D01*
X171506285Y-54629544D01*
X171457842Y-54557045D01*
X171451495Y-54541722D01*
X171442906Y-54524764D01*
X171434309Y-54510583D01*
X171404532Y-54428658D01*
X171402553Y-54423565D01*
X171369193Y-54343027D01*
X171365958Y-54326763D01*
X171360846Y-54308468D01*
X171355175Y-54292866D01*
X171341945Y-54206658D01*
X171340999Y-54201287D01*
X171324000Y-54115827D01*
X171324000Y-54099248D01*
X171322555Y-54080306D01*
X171320037Y-54063895D01*
X171323881Y-53976751D01*
X171324000Y-53971311D01*
X171324000Y-53884175D01*
X171327234Y-53867917D01*
X171329512Y-53849059D01*
X171330244Y-53832470D01*
X171351008Y-53747778D01*
X171352192Y-53742442D01*
X171355883Y-53723889D01*
X171369193Y-53656973D01*
X171375538Y-53641654D01*
X171381454Y-53623596D01*
X171385405Y-53607481D01*
X171422288Y-53528477D01*
X171424480Y-53523497D01*
X171457842Y-53442955D01*
X171467052Y-53429172D01*
X171476382Y-53412605D01*
X171483397Y-53397578D01*
X171534965Y-53327314D01*
X171538126Y-53322802D01*
X171565137Y-53282378D01*
X171586541Y-53250344D01*
X171643547Y-53193338D01*
X171648183Y-53188444D01*
X172688134Y-52029416D01*
X172973276Y-51711624D01*
X173101318Y-51594400D01*
X173101317Y-51594400D01*
X173101321Y-51594397D01*
X173299416Y-51474311D01*
X173517133Y-51395177D01*
X173746104Y-51360039D01*
X173977530Y-51370246D01*
X173977530Y-51370246D01*
G37*
G36*
X190596474Y-48033684D02*
G01*
X190814474Y-48123983D01*
X190968623Y-48187833D01*
X191303548Y-48411623D01*
X191588377Y-48696452D01*
X191812167Y-49031377D01*
X191844562Y-49109586D01*
X191966316Y-49403526D01*
X192044900Y-49798594D01*
X192044900Y-50201406D01*
X191966316Y-50596474D01*
X191915451Y-50719272D01*
X191812167Y-50968623D01*
X191588377Y-51303548D01*
X191303548Y-51588377D01*
X190968623Y-51812167D01*
X190814474Y-51876017D01*
X190596474Y-51966316D01*
X190201406Y-52044900D01*
X189798594Y-52044900D01*
X189403526Y-51966316D01*
X189185526Y-51876017D01*
X189031377Y-51812167D01*
X188696452Y-51588377D01*
X188411623Y-51303548D01*
X188187833Y-50968623D01*
X188084549Y-50719272D01*
X188033684Y-50596474D01*
X187955100Y-50201406D01*
X187955100Y-49798594D01*
X188033684Y-49403526D01*
X188155438Y-49109586D01*
X188187833Y-49031377D01*
X188411623Y-48696452D01*
X188696452Y-48411623D01*
X189031377Y-48187833D01*
X189185526Y-48123983D01*
X189403526Y-48033684D01*
X189798594Y-47955100D01*
X190201406Y-47955100D01*
X190596474Y-48033684D01*
X190596474Y-48033684D01*
G37*
G36*
X170596474Y-48033684D02*
G01*
X170814474Y-48123983D01*
X170968623Y-48187833D01*
X171303548Y-48411623D01*
X171588377Y-48696452D01*
X171812167Y-49031377D01*
X171844562Y-49109586D01*
X171966316Y-49403526D01*
X172044900Y-49798594D01*
X172044900Y-50201406D01*
X171966316Y-50596474D01*
X171915451Y-50719272D01*
X171812167Y-50968623D01*
X171588377Y-51303548D01*
X171303548Y-51588377D01*
X170968623Y-51812167D01*
X170814474Y-51876017D01*
X170596474Y-51966316D01*
X170201406Y-52044900D01*
X169798594Y-52044900D01*
X169403526Y-51966316D01*
X169185526Y-51876017D01*
X169031377Y-51812167D01*
X168696452Y-51588377D01*
X168411623Y-51303548D01*
X168187833Y-50968623D01*
X168084549Y-50719272D01*
X168033684Y-50596474D01*
X167955100Y-50201406D01*
X167955100Y-49798594D01*
X168033684Y-49403526D01*
X168155438Y-49109586D01*
X168187833Y-49031377D01*
X168411623Y-48696452D01*
X168696452Y-48411623D01*
X169031377Y-48187833D01*
X169185526Y-48123983D01*
X169403526Y-48033684D01*
X169798594Y-47955100D01*
X170201406Y-47955100D01*
X170596474Y-48033684D01*
X170596474Y-48033684D01*
G37*
G36*
X195350104Y-49109585D02*
G01*
X195518626Y-49179389D01*
X195670291Y-49280728D01*
X195799272Y-49409709D01*
X195900611Y-49561374D01*
X195970415Y-49729896D01*
X196006000Y-49908797D01*
X196006000Y-50091203D01*
X195970415Y-50270104D01*
X195900611Y-50438626D01*
X195799272Y-50590291D01*
X195670291Y-50719272D01*
X195518626Y-50820611D01*
X195350104Y-50890415D01*
X195171203Y-50926000D01*
X194988797Y-50926000D01*
X194809896Y-50890415D01*
X194641374Y-50820611D01*
X194489709Y-50719272D01*
X194360728Y-50590291D01*
X194259389Y-50438626D01*
X194189585Y-50270104D01*
X194154000Y-50091203D01*
X194154000Y-49908797D01*
X194189585Y-49729896D01*
X194259389Y-49561374D01*
X194360728Y-49409709D01*
X194489709Y-49280728D01*
X194641374Y-49179389D01*
X194809896Y-49109585D01*
X194988797Y-49074000D01*
X195171203Y-49074000D01*
X195350104Y-49109585D01*
X195350104Y-49109585D01*
G37*
G36*
X185190104Y-49109585D02*
G01*
X185358626Y-49179389D01*
X185510291Y-49280728D01*
X185639272Y-49409709D01*
X185740611Y-49561374D01*
X185810415Y-49729896D01*
X185846000Y-49908797D01*
X185846000Y-50091203D01*
X185810415Y-50270104D01*
X185740611Y-50438626D01*
X185639272Y-50590291D01*
X185510291Y-50719272D01*
X185358626Y-50820611D01*
X185190104Y-50890415D01*
X185011203Y-50926000D01*
X184828797Y-50926000D01*
X184649896Y-50890415D01*
X184481374Y-50820611D01*
X184329709Y-50719272D01*
X184200728Y-50590291D01*
X184099389Y-50438626D01*
X184029585Y-50270104D01*
X183994000Y-50091203D01*
X183994000Y-49908797D01*
X184029585Y-49729896D01*
X184099389Y-49561374D01*
X184200728Y-49409709D01*
X184329709Y-49280728D01*
X184481374Y-49179389D01*
X184649896Y-49109585D01*
X184828797Y-49074000D01*
X185011203Y-49074000D01*
X185190104Y-49109585D01*
X185190104Y-49109585D01*
G37*
G36*
X175350104Y-49109585D02*
G01*
X175518626Y-49179389D01*
X175670291Y-49280728D01*
X175799272Y-49409709D01*
X175900611Y-49561374D01*
X175970415Y-49729896D01*
X176006000Y-49908797D01*
X176006000Y-50091203D01*
X175970415Y-50270104D01*
X175900611Y-50438626D01*
X175799272Y-50590291D01*
X175670291Y-50719272D01*
X175518626Y-50820611D01*
X175350104Y-50890415D01*
X175171203Y-50926000D01*
X174988797Y-50926000D01*
X174809896Y-50890415D01*
X174641374Y-50820611D01*
X174489709Y-50719272D01*
X174360728Y-50590291D01*
X174259389Y-50438626D01*
X174189585Y-50270104D01*
X174154000Y-50091203D01*
X174154000Y-49908797D01*
X174189585Y-49729896D01*
X174259389Y-49561374D01*
X174360728Y-49409709D01*
X174489709Y-49280728D01*
X174641374Y-49179389D01*
X174809896Y-49109585D01*
X174988797Y-49074000D01*
X175171203Y-49074000D01*
X175350104Y-49109585D01*
X175350104Y-49109585D01*
G37*
G36*
X165190104Y-49109585D02*
G01*
X165358626Y-49179389D01*
X165510291Y-49280728D01*
X165639272Y-49409709D01*
X165740611Y-49561374D01*
X165810415Y-49729896D01*
X165846000Y-49908797D01*
X165846000Y-50091203D01*
X165810415Y-50270104D01*
X165740611Y-50438626D01*
X165639272Y-50590291D01*
X165510291Y-50719272D01*
X165358626Y-50820611D01*
X165190104Y-50890415D01*
X165011203Y-50926000D01*
X164828797Y-50926000D01*
X164649896Y-50890415D01*
X164481374Y-50820611D01*
X164329709Y-50719272D01*
X164200728Y-50590291D01*
X164099389Y-50438626D01*
X164029585Y-50270104D01*
X163994000Y-50091203D01*
X163994000Y-49908797D01*
X164029585Y-49729896D01*
X164099389Y-49561374D01*
X164200728Y-49409709D01*
X164329709Y-49280728D01*
X164481374Y-49179389D01*
X164649896Y-49109585D01*
X164828797Y-49074000D01*
X165011203Y-49074000D01*
X165190104Y-49109585D01*
X165190104Y-49109585D01*
G37*
G36*
X183974854Y-44915847D02*
G01*
X184011394Y-44926932D01*
X184045071Y-44944933D01*
X184074591Y-44969159D01*
X184098817Y-44998679D01*
X184116818Y-45032356D01*
X184127903Y-45068896D01*
X184132250Y-45113038D01*
X184132250Y-46061962D01*
X184127903Y-46106104D01*
X184116818Y-46142644D01*
X184098817Y-46176321D01*
X184074591Y-46205841D01*
X184045071Y-46230067D01*
X184011394Y-46248068D01*
X183974854Y-46259153D01*
X183930712Y-46263500D01*
X182481788Y-46263500D01*
X182437646Y-46259153D01*
X182401106Y-46248068D01*
X182367429Y-46230067D01*
X182337909Y-46205841D01*
X182313683Y-46176321D01*
X182295682Y-46142644D01*
X182284597Y-46106104D01*
X182280250Y-46061962D01*
X182280250Y-45113038D01*
X182284597Y-45068896D01*
X182295682Y-45032356D01*
X182313683Y-44998679D01*
X182337909Y-44969159D01*
X182367429Y-44944933D01*
X182401106Y-44926932D01*
X182437646Y-44915847D01*
X182481788Y-44911500D01*
X183930712Y-44911500D01*
X183974854Y-44915847D01*
X183974854Y-44915847D01*
G37*
G36*
X181409468Y-44591065D02*
G01*
X181448138Y-44602796D01*
X181483777Y-44621846D01*
X181515017Y-44647483D01*
X181540654Y-44678723D01*
X181559704Y-44714362D01*
X181571435Y-44753032D01*
X181576000Y-44799388D01*
X181576000Y-45450612D01*
X181571435Y-45496968D01*
X181559704Y-45535638D01*
X181540654Y-45571277D01*
X181515017Y-45602517D01*
X181483777Y-45628154D01*
X181448138Y-45647204D01*
X181409468Y-45658935D01*
X181363112Y-45663500D01*
X180286888Y-45663500D01*
X180240532Y-45658935D01*
X180201862Y-45647204D01*
X180166223Y-45628154D01*
X180134983Y-45602517D01*
X180109346Y-45571277D01*
X180090296Y-45535638D01*
X180078565Y-45496968D01*
X180074000Y-45450612D01*
X180074000Y-44799388D01*
X180078565Y-44753032D01*
X180090296Y-44714362D01*
X180109346Y-44678723D01*
X180134983Y-44647483D01*
X180166223Y-44621846D01*
X180201862Y-44602796D01*
X180240532Y-44591065D01*
X180286888Y-44586500D01*
X181363112Y-44586500D01*
X181409468Y-44591065D01*
X181409468Y-44591065D01*
G37*
G36*
X179028218Y-44591065D02*
G01*
X179066888Y-44602796D01*
X179102527Y-44621846D01*
X179133767Y-44647483D01*
X179159404Y-44678723D01*
X179178454Y-44714362D01*
X179190185Y-44753032D01*
X179194750Y-44799388D01*
X179194750Y-45450612D01*
X179190185Y-45496968D01*
X179178454Y-45535638D01*
X179159404Y-45571277D01*
X179133767Y-45602517D01*
X179102527Y-45628154D01*
X179066888Y-45647204D01*
X179028218Y-45658935D01*
X178981862Y-45663500D01*
X177905638Y-45663500D01*
X177859282Y-45658935D01*
X177820612Y-45647204D01*
X177784973Y-45628154D01*
X177753733Y-45602517D01*
X177728096Y-45571277D01*
X177709046Y-45535638D01*
X177697315Y-45496968D01*
X177692750Y-45450612D01*
X177692750Y-44799388D01*
X177697315Y-44753032D01*
X177709046Y-44714362D01*
X177728096Y-44678723D01*
X177753733Y-44647483D01*
X177784973Y-44621846D01*
X177820612Y-44602796D01*
X177859282Y-44591065D01*
X177905638Y-44586500D01*
X178981862Y-44586500D01*
X179028218Y-44591065D01*
X179028218Y-44591065D01*
G37*
G36*
X181409468Y-42716065D02*
G01*
X181448138Y-42727796D01*
X181483777Y-42746846D01*
X181515017Y-42772483D01*
X181540654Y-42803723D01*
X181559704Y-42839362D01*
X181571435Y-42878032D01*
X181576000Y-42924388D01*
X181576000Y-43575612D01*
X181571435Y-43621968D01*
X181559704Y-43660638D01*
X181540654Y-43696277D01*
X181515017Y-43727517D01*
X181483777Y-43753154D01*
X181448138Y-43772204D01*
X181409468Y-43783935D01*
X181363112Y-43788500D01*
X180286888Y-43788500D01*
X180240532Y-43783935D01*
X180201862Y-43772204D01*
X180166223Y-43753154D01*
X180134983Y-43727517D01*
X180109346Y-43696277D01*
X180090296Y-43660638D01*
X180078565Y-43621968D01*
X180074000Y-43575612D01*
X180074000Y-42924388D01*
X180078565Y-42878032D01*
X180090296Y-42839362D01*
X180109346Y-42803723D01*
X180134983Y-42772483D01*
X180166223Y-42746846D01*
X180201862Y-42727796D01*
X180240532Y-42716065D01*
X180286888Y-42711500D01*
X181363112Y-42711500D01*
X181409468Y-42716065D01*
X181409468Y-42716065D01*
G37*
G36*
X179028218Y-42716065D02*
G01*
X179066888Y-42727796D01*
X179102527Y-42746846D01*
X179133767Y-42772483D01*
X179159404Y-42803723D01*
X179178454Y-42839362D01*
X179190185Y-42878032D01*
X179194750Y-42924388D01*
X179194750Y-43575612D01*
X179190185Y-43621968D01*
X179178454Y-43660638D01*
X179159404Y-43696277D01*
X179133767Y-43727517D01*
X179102527Y-43753154D01*
X179066888Y-43772204D01*
X179028218Y-43783935D01*
X178981862Y-43788500D01*
X177905638Y-43788500D01*
X177859282Y-43783935D01*
X177820612Y-43772204D01*
X177784973Y-43753154D01*
X177753733Y-43727517D01*
X177728096Y-43696277D01*
X177709046Y-43660638D01*
X177697315Y-43621968D01*
X177692750Y-43575612D01*
X177692750Y-42924388D01*
X177697315Y-42878032D01*
X177709046Y-42839362D01*
X177728096Y-42803723D01*
X177753733Y-42772483D01*
X177784973Y-42746846D01*
X177820612Y-42727796D01*
X177859282Y-42716065D01*
X177905638Y-42711500D01*
X178981862Y-42711500D01*
X179028218Y-42716065D01*
X179028218Y-42716065D01*
G37*
G36*
X183974854Y-42115847D02*
G01*
X184011394Y-42126932D01*
X184045071Y-42144933D01*
X184074591Y-42169159D01*
X184098817Y-42198679D01*
X184116818Y-42232356D01*
X184127903Y-42268896D01*
X184132250Y-42313038D01*
X184132250Y-43261962D01*
X184127903Y-43306104D01*
X184116818Y-43342644D01*
X184098817Y-43376321D01*
X184074591Y-43405841D01*
X184045071Y-43430067D01*
X184011394Y-43448068D01*
X183974854Y-43459153D01*
X183930712Y-43463500D01*
X182481788Y-43463500D01*
X182437646Y-43459153D01*
X182401106Y-43448068D01*
X182367429Y-43430067D01*
X182337909Y-43405841D01*
X182313683Y-43376321D01*
X182295682Y-43342644D01*
X182284597Y-43306104D01*
X182280250Y-43261962D01*
X182280250Y-42313038D01*
X182284597Y-42268896D01*
X182295682Y-42232356D01*
X182313683Y-42198679D01*
X182337909Y-42169159D01*
X182367429Y-42144933D01*
X182401106Y-42126932D01*
X182437646Y-42115847D01*
X182481788Y-42111500D01*
X183930712Y-42111500D01*
X183974854Y-42115847D01*
X183974854Y-42115847D01*
G37*
G36*
X169507250Y-42719750D02*
G01*
X168505250Y-42719750D01*
X168505250Y-41417750D01*
X169507250Y-41417750D01*
X169507250Y-42719750D01*
X169507250Y-42719750D01*
G37*
G36*
X192651000Y-42719750D02*
G01*
X191649000Y-42719750D01*
X191649000Y-41417750D01*
X192651000Y-41417750D01*
X192651000Y-42719750D01*
X192651000Y-42719750D01*
G37*
G36*
X172807250Y-42719750D02*
G01*
X171805250Y-42719750D01*
X171805250Y-41417750D01*
X172807250Y-41417750D01*
X172807250Y-42719750D01*
X172807250Y-42719750D01*
G37*
G36*
X189351000Y-42719750D02*
G01*
X188349000Y-42719750D01*
X188349000Y-41417750D01*
X189351000Y-41417750D01*
X189351000Y-42719750D01*
X189351000Y-42719750D01*
G37*
G36*
X178882250Y-40601000D02*
G01*
X178180250Y-40601000D01*
X178180250Y-38949000D01*
X178882250Y-38949000D01*
X178882250Y-40601000D01*
X178882250Y-40601000D01*
G37*
G36*
X179882250Y-40601000D02*
G01*
X179180250Y-40601000D01*
X179180250Y-38949000D01*
X179882250Y-38949000D01*
X179882250Y-40601000D01*
X179882250Y-40601000D01*
G37*
G36*
X180882250Y-40601000D02*
G01*
X180180250Y-40601000D01*
X180180250Y-38949000D01*
X180882250Y-38949000D01*
X180882250Y-40601000D01*
X180882250Y-40601000D01*
G37*
G36*
X181882250Y-40601000D02*
G01*
X181180250Y-40601000D01*
X181180250Y-38949000D01*
X181882250Y-38949000D01*
X181882250Y-40601000D01*
X181882250Y-40601000D01*
G37*
G36*
X177882250Y-36851000D02*
G01*
X176580250Y-36851000D01*
X176580250Y-34949000D01*
X177882250Y-34949000D01*
X177882250Y-36851000D01*
X177882250Y-36851000D01*
G37*
G36*
X183482250Y-36851000D02*
G01*
X182180250Y-36851000D01*
X182180250Y-34949000D01*
X183482250Y-34949000D01*
X183482250Y-36851000D01*
X183482250Y-36851000D01*
G37*
M02*
